<?xml version="1.0" encoding="UTF-8"?>
<svg width="135px" height="657px" viewBox="0 0 135 657" version="1.1" xmlns="http://www.w3.org/2000/svg" xmlns:xlink="http://www.w3.org/1999/xlink">
    <!-- Generator: Sketch 63.1 (92452) - https://sketch.com -->
    <title>Combined Shape Copy 9</title>
    <desc>Created with Sketch.</desc>
    <g id="Final-Website" stroke="none" stroke-width="1" fill="none" fill-rule="evenodd" opacity="0.050035">
        <path d="M91.3807509,511.355691 C94.0078575,511.355691 96.1293821,513.471713 96.132582,516.083178 L96.132582,516.083178 L96.15,528.517 L96.3790864,528.624812 C118.943681,539.312144 134.64232,562.125457 134.994036,588.656181 L135,589.469498 L135,589.573381 C134.9984,626.761985 104.842672,656.942465 67.6007964,657 L67.6007964,657 L67.5047998,657 C30.2741236,657 0.0575979521,626.875457 0.00159994311,589.666077 L0.00159994311,589.677265 L0.8015715,589.664479 L0.001,589.666 L0,589.560596 C0.00158394368,562.734026 15.7093,539.561867 38.4342355,528.71428 L38.661,528.607 L38.6466259,516.172677 C38.6466259,513.629092 40.6473881,511.549275 43.1712773,511.431286 L43.3888573,511.426012 L58.4043234,511.402039 L58.1195335,512.418497 C53.324504,529.501697 48.038292,544.360197 41.9857072,557.743555 L41.9857072,557.743555 L41.7521155,558.262972 L41.1841357,558.210231 C40.7169523,558.167079 40.248169,558.144704 39.7889853,558.144704 C37.5826637,558.149499 35.6707317,558.667317 34.1683851,559.58149 C32.6644386,560.498859 31.5620778,561.802993 30.9476996,563.457134 C30.5765128,564.456011 30.3557207,565.611512 30.3557207,566.760621 C30.3589206,568.70084 30.9700988,570.57873 32.4404466,571.86848 C33.1956197,572.528538 33.9491929,572.817813 34.7683638,572.822608 C35.8755244,572.827402 36.9874849,572.210496 37.9378511,571.365046 C38.8850174,570.527587 39.6385906,569.499942 40.049776,568.871848 L40.049776,568.871848 L40.27,568.522 L41.0005422,567.066927 C41.4967246,566.068549 41.990507,565.056786 42.4810896,564.036832 L43.2144635,562.501408 L43.5328522,561.826966 L44.2288274,562.100259 C46.8047358,563.110324 48.7470668,564.943463 50.1918154,566.925236 C51.6397639,568.911803 52.6029297,571.059789 53.2253075,572.784251 L53.2253075,572.784251 L53.4428998,573.386774 L52.9005191,573.728789 C52.4285359,574.029252 51.9677523,574.3425 51.524568,574.66214 C50.7757946,575.200735 49.5086397,576.215594 48.4110787,577.548496 C47.307118,578.881398 46.3887506,580.517959 46.2287563,582.295161 C46.2111569,582.477357 46.2031572,582.659552 46.2031572,582.840149 C46.209557,584.395201 46.7983361,585.792031 48.0830904,587.142514 C48.8094646,587.893669 49.7566309,588.290024 50.9373889,588.294818 L50.9373889,588.294818 L50.962988,588.294818 L50.962,588.296 L50.8013937,588.312399 L50.962988,589.09392 L50.962,588.296 L50.967,588.296 L50.982,588.294 L51.23957,588.28851 C52.272268,588.235511 53.3361158,587.851809 54.1842653,587.226979 L54.3916661,587.0658 C56.7147835,585.146357 57.7643462,582.912068 57.7819455,579.74283 C57.7819455,579.269762 57.7579464,578.779113 57.7067482,578.262893 C57.6219512,577.350319 57.4731565,576.407379 57.2795634,575.44526 L57.2795634,575.44526 L57.1547678,574.817166 L57.740347,574.558257 C58.2283297,574.340901 58.7227121,574.134733 59.2234943,573.939752 C60.807438,573.318051 62.661772,573.020785 64.7000996,573.019187 C66.3320415,573.020785 68.0839792,573.21257 69.9127142,573.591344 L69.9127142,573.591344 C70.7206855,573.752762 71.4822584,573.997288 72.1782337,574.300946 L72.1782337,574.300946 L73.1477992,574.722872 L72.4758231,575.541152 L72.1702339,575.913534 C71.099872,577.224061 69.8695158,578.734364 68.9207495,580.3038 C67.9687833,581.871637 67.3224063,583.485823 67.3272061,584.959367 C67.3272061,585.175125 67.3400057,585.389284 67.3688047,585.598649 C67.5527981,586.939542 68.258373,588.072668 69.6151248,589.063554 C70.6022897,589.773157 71.5830548,590.094396 72.5366209,590.095994 C73.9109721,590.094396 75.3109223,589.42315 76.6004764,587.952803 C78.3956126,585.910298 79.6819669,582.454982 79.6659674,579.955391 C79.6659674,579.63575 79.6467681,579.33369 79.6067695,579.050808 C79.397177,577.506943 78.861196,576.162854 78.0244258,574.99137 L78.0244258,574.99137 L77.6676385,574.491133 L78.0564247,574.018064 C81.3219086,570.060912 85.3073668,566.818156 89.2672261,564.922687 L89.2672261,564.922687 L89.9808007,564.580671 L90.3295883,565.29347 C90.8543696,566.36107 91.3823508,567.422277 91.913532,568.469101 L91.913532,568.469101 L91.9199317,568.480288 C92.5727085,569.816387 93.6030719,571.285136 94.8702268,572.3847 C96.1405817,573.489059 97.6141293,574.211447 99.2076726,574.211447 L99.2076726,574.211447 L99.218,574.211 L99.5037366,574.202665 C100.356833,574.153818 101.196688,573.901793 102.029435,573.428207 L102.306762,573.262114 C103.693913,572.376709 104.417087,571.21002 104.546683,569.752458 L104.546683,569.752458 L104.564282,569.338524 C104.586681,567.070672 102.980338,564.459207 101.308398,562.987262 C99.3020693,561.202068 97.0349499,560.326253 94.4510417,560.321458 C93.711868,560.321458 92.9454953,560.394975 92.1551234,560.545206 L92.1551234,560.545206 L91.5439451,560.660277 L91.2815544,560.099308 C84.7185878,546.123016 79.0243902,530.489387 73.8885729,512.394524 L73.8885729,512.394524 L73.6005831,511.378066 Z M75.5661851,576.580623 L76.0719945,577.801218 C76.3984274,578.58986 76.5616438,579.445586 76.5616438,580.329126 C76.5600278,581.498999 76.2788431,582.721231 75.7358656,583.950007 C75.178344,585.200053 74.2588375,586.207944 73.1017784,586.697163 L73.1017784,586.697163 C72.6525291,586.89187 72.2905441,586.952409 72.0465275,586.957317 L72.0465275,586.957317 L72.0158234,586.957317 C71.8429109,586.954045 71.6295983,586.927866 71.4114377,586.805152 C71.1932771,586.684074 71.0494527,586.489368 70.9815805,586.363381 L70.9815805,586.363381 L70.982,586.362 L70.9014274,586.213197 C70.7185095,585.833321 70.6661472,585.447462 70.6495769,585.05286 L70.6438356,584.854818 C70.6486836,584.15453 70.7715,583.446061 71.0332927,582.857034 L71.0332927,582.857034 C71.863919,581.075227 73.1357144,579.527395 74.3202457,578.059736 C74.44791,577.902662 74.5788064,577.740679 74.7145508,577.581969 L74.7145508,577.581969 L75.5661851,576.580623 Z M74.925,579.898 L74.6876594,580.197618 C73.8203953,581.299896 73.0238061,582.409537 72.4990087,583.545869 L72.4990087,583.545869 C72.3745764,583.807658 72.254992,584.388505 72.25984,584.854818 C72.256608,584.973168 72.2648676,585.08552 72.2779154,585.182721 L72.29,585.26 L72.3730898,585.230869 L72.3730898,585.230869 L72.4780006,585.1886 C73.1728825,584.900631 73.8483724,584.213433 74.2604535,583.27917 C74.7274788,582.227102 74.9456394,581.232301 74.9440234,580.329126 C74.9440234,580.231423 74.9415169,580.134787 74.9365182,580.039211 L74.925,579.898 Z M54.3159262,576.580623 L54.5374579,577.791245 C54.654645,578.434339 54.739726,579.131411 54.739726,579.845446 C54.7381207,580.824739 54.5808011,581.844128 54.0911839,582.778697 C53.7990188,583.333887 53.3800349,583.864401 52.8968389,584.294673 C52.4072216,584.712608 51.8822877,585.081192 51.1422433,585.104336 C50.7601813,585.105867 50.413436,584.951647 50.1549823,584.748078 C49.8901074,584.544508 49.6846287,584.290047 49.495203,583.990861 L49.495203,583.990861 C49.2849084,583.665458 49.1901956,583.278368 49.1917808,582.898988 C49.1950115,582.295991 49.3988849,581.689909 49.7359984,581.02985 L49.7343931,581.032935 L49.735,581.029 L49.8799172,580.763336 C50.54,579.601645 51.5819873,578.52521 52.9546745,577.528006 L53.2772955,577.299285 L54.3159262,576.580623 Z M53.119,579.387 L52.8801318,579.597153 C52.0979334,580.301421 51.5307265,581.013914 51.17756,581.709958 L51.17756,581.709958 C50.8998426,582.243556 50.7938927,582.659949 50.7971033,582.898988 C50.7987086,583.05475 50.8292093,583.128775 50.864526,583.187379 L50.864526,583.187379 C51.0041873,583.410997 51.1294009,583.529745 51.17756,583.559047 L51.169,583.553 L51.3541432,583.486564 C51.4492574,583.437985 51.5651402,583.361646 51.6862151,583.265356 L51.8084438,583.162703 C52.1375308,582.872771 52.4666178,582.453295 52.6576488,582.08471 C52.9963676,581.443158 53.1344236,580.665893 53.1344236,579.845446 C53.1344236,579.726389 53.1315341,579.606653 53.1260632,579.486633 L53.119,579.387 Z M75.3270165,578.117002 L74.5804224,578.43115 C74.7524114,578.847209 74.8642126,579.288311 74.914059,579.75565 L74.925,579.898 L74.9790892,579.830438 C75.1747529,579.585798 75.3728032,579.341415 75.5710331,579.097078 C75.6970815,578.94164 75.8182818,578.791111 75.9378661,578.650399 L75.3270165,578.117002 Z M53.7460438,577.923873 L52.956235,578.058044 C53.019805,578.405963 53.0712389,578.765541 53.1022148,579.126118 L53.119,579.387 C53.4513246,579.105193 53.815821,578.825954 54.2147921,578.550004 L53.7460438,577.923873 Z M58.8491076,575.132012 L58.0651355,575.288636 L58.3899239,576.017417 L58.8582332,575.814564 L58.8582332,575.814564 L58.97,575.767 L58.9645339,575.733346 C58.9279528,575.533225 58.8894262,575.332747 58.8491076,575.132012 Z M71.2390671,574.526293 L70.931878,574.901871 L70.5674838,575.348805 L70.5674838,575.348805 L70.529,575.395 L70.7990571,575.480357 C71.0546896,575.567043 71.3014648,575.662936 71.5382564,575.766499 L71.858245,575.034522 L71.2390671,574.526293 Z M79.3251795,574.061216 L78.6756026,574.526293 L79.2931807,575.034522 L79.6715362,574.582367 L79.6715362,574.582367 L79.672,574.581 L79.5319728,574.360884 C79.4648562,574.259858 79.3959199,574.159962 79.3251795,574.061216 Z M52.0445495,572.379905 L51.546908,572.702328 L51.546908,572.702328 L51.498,572.735 L51.5892532,572.970327 C51.6344417,573.090234 51.677934,573.208346 51.7197611,573.324444 L52.4733343,573.054347 L52.0445495,572.379905 Z M70.6049205,511.355691 L70.7692049,511.939519 C75.9688871,530.521241 81.7507423,546.566111 88.4337694,560.944273 L88.4337694,560.944273 L88.7671233,561.659262 L88.0573507,562.003161 C82.5849244,564.637584 77.9068055,569.677698 75.9656971,572.000214 L75.9656971,572.000214 L75.5430236,572.504065 L74.9688255,572.184159 C73.0229322,571.099679 70.5187907,570.376692 67.512226,570.083978 C66.7609836,570.0104 66.0225011,569.973611 65.2919936,569.973611 C62.550198,569.973611 59.9423819,570.493458 57.3568958,571.558744 L57.3568958,571.558744 L56.6008684,571.869052 L56.3089844,571.104478 C54.2323015,565.677278 50.5478641,561.566489 45.8394402,559.379934 L45.8394402,559.379934 L45.1232877,559.048832 L45.4454766,558.327444 C51.5862056,544.597092 56.9198673,529.411168 61.7479158,511.952315 L61.7479158,511.952315 L61.9090102,511.368487 L70.6049205,511.355691 Z M75.162,570.481 L75.0782041,570.57888 C74.9602895,570.716107 74.8493236,570.846748 74.7455263,570.970117 L75.3564092,571.485165 L75.7423979,570.786171 L75.3505071,570.575782 L75.3505071,570.575782 L75.162,570.481 Z M94.429,563.239 L94.3846963,563.24284 C94.347406,563.24657 94.2978559,563.254492 94.2340026,563.271101 L94.408,563.88 L94.0264796,564.064845 L94.1430117,564.855394 L94.4223697,564.83623 L94.423966,564.83623 L94.5516725,564.841021 L94.559,564.839 L94.6884941,564.842869 C94.8395709,564.852314 94.9972246,564.871705 95.1594118,564.900494 L95.348,564.938 L95.1402458,564.524683 C95.006627,564.255783 94.8746636,563.987121 94.7448286,563.718281 L94.461,563.855 L94.467,563.685 L94.467,563.681 L94.471,563.572 L94.4830303,563.240757 L94.467,563.24 L94.429,563.239 L94.476,563.239 L94.7881882,563.249859 C95.6474231,563.304018 96.5272953,563.560457 97.3640539,563.95294 L97.6756928,564.106369 C98.7053265,564.641387 99.6535473,565.379233 100.347951,566.267204 C100.802906,566.85812 101.334484,567.741299 101.342466,568.857651 C101.342466,569.108391 101.312135,569.37031 101.246686,569.633827 L101.246686,569.633827 C101.090245,570.224742 100.648062,570.571307 100.248979,570.756567 C99.835529,570.945021 99.4061159,571.018486 98.9910698,571.02168 L98.9910698,571.02168 L98.9671248,571.02168 L98.9463725,571.020083 L98.6207209,571.000918 L98.5840053,570.999321 L98.5456934,570.992933 C97.4953074,570.830032 96.6939491,570.172039 96.0729762,569.411834 C95.4456181,568.642046 94.958737,567.73012 94.5293239,566.856523 L94.529,566.856 L94.1216682,566.052783 C93.9841472,565.780867 93.8472766,565.508537 93.7115293,565.235379 L93.3081305,564.413006 L92.8356164,563.434002 L93.9099474,563.275892 C94.0807548,563.250339 94.2515623,563.23916 94.4223697,563.23916 L94.4223697,563.23916 L94.429,563.239 Z M57.499,569.785 L57.270166,569.870489 C57.0967746,569.937272 56.9236554,570.006301 56.7507979,570.07758 L57.0538468,570.818162 L57.7987093,570.531846 L57.6258027,570.090872 L57.6258027,570.090872 L57.499,569.785 Z M69.398,512.956 L63.122,512.965 L62.8688852,513.877167 C58.272194,530.274791 53.2098587,544.687983 47.4292063,557.793797 L47.215,558.274 L47.2878394,558.310943 C51.7750646,560.632765 55.3082972,564.602222 57.445999,569.655126 L57.499,569.785 L57.7911673,569.67688 C60.0524693,568.867097 62.3615486,568.436659 64.7415044,568.38042 L65.2919936,568.374083 C66.075136,568.374083 66.8678482,568.412471 67.6685355,568.492448 C70.4649362,568.764838 72.9074303,569.393386 74.9478075,570.374796 L75.162,570.481 L75.2602601,570.368189 C77.3820026,567.926331 81.480159,563.681054 86.4746564,561.015323 L86.664,560.916 L86.4595901,560.473373 C80.1328636,546.680874 74.6188631,531.380706 69.6463533,513.838452 L69.398,512.956 Z M40.3150685,561.386179 L39.6890453,562.630188 C38.9300328,564.140881 38.1969694,565.560624 37.4590405,566.946453 L37.4590405,566.946453 L37.446066,566.969576 L37.4314696,566.992699 L37.3390257,567.139144 C36.7259771,568.090264 36.2783544,568.637504 35.9102008,568.985889 C35.5436691,569.323482 35.2371448,569.520797 34.8008748,569.539295 L34.8008748,569.539295 L34.6743727,569.539295 L34.5348961,569.499216 L34.4667796,569.479176 L34.4035285,569.448346 C34.189448,569.340439 34.0645678,569.210951 33.9477966,569.062965 C33.8326473,568.913437 33.7369598,568.742328 33.6510033,568.538847 C33.4823338,568.128802 33.3558317,567.589268 33.3039334,566.85242 C33.2925807,566.707517 33.2876712,566.565697 33.2876712,566.428501 C33.2828497,565.244612 33.6818179,564.157838 34.4894851,563.343913 C35.5193418,562.303385 37.0811561,561.714523 38.873269,561.531082 L38.873269,561.531082 L40.3150685,561.386179 Z M95.348,564.938 L95.5455957,565.332504 L95.5455957,565.332504 L95.9580404,566.14423 L95.9644257,566.155409 C96.3682975,566.985885 96.8184629,567.805182 97.3085366,568.400889 C97.801803,569.004581 98.2950694,569.34316 98.7851431,569.415028 L98.76,569.41 L98.997,569.424 L99.1510577,569.415915 C99.2053329,569.410237 99.2597856,569.401897 99.3121098,569.39125 L99.4603912,569.352742 L99.701,569.226 L99.7461345,568.857651 C99.7532293,568.360785 99.5004966,567.819753 99.2020768,567.399441 L99.088446,567.247805 C98.572831,566.585021 97.7890324,565.962164 96.9413805,565.524567 C96.4347049,565.26105 95.9044675,565.064802 95.4058375,564.950656 L95.348,564.938 Z M35.043,567.597 L35.02273,567.62299 C34.9215998,567.739918 34.8368044,567.827849 34.7684384,567.891407 L34.5916598,568.034769 L34.7862784,567.997772 L34.786,568.042 L34.787,568.076 L34.787,568.133 L34.788,568.205 L34.793,568.699 L35.0117116,568.02552 L35.0327953,568.031686 L34.83,568.656 L34.938,568.456 L34.951,568.432 L34.98,568.378 L34.983,568.372 L35.028,568.289 L35.039,568.269 L35.073,568.205 L35.101,568.153 L35.107,568.142 L35.112,568.133 L35.119,568.12 L35.138,568.086 L35.1430792,568.07639 L35.245254,568.142675 L35.2582285,568.153466 L35.2484976,568.142675 C35.2123541,568.09687 35.1296081,567.93781 35.0547301,567.643923 L35.043,567.597 Z M37.516,563.363 L37.4791549,563.374536 C36.7000787,563.619991 36.0804921,563.977672 35.6750367,564.396774 C35.172272,564.913184 34.9160242,565.54675 34.9095369,566.428501 L34.9095369,566.428501 L34.9225114,566.746055 C34.9427842,567.063719 34.9820886,567.322396 35.027126,567.527353 L35.043,567.597 L35.1016389,567.529784 C35.2928995,567.29928 35.5341132,566.97643 35.8247736,566.536444 L35.9475027,566.348342 L36.6432642,566.744514 L35.9523682,566.340635 L36.028,566.218 L36.4509292,565.420876 C36.7432722,564.864891 37.0359267,564.301409 37.3310723,563.726778 L37.516,563.363 Z M89.6128138,565.645075 L88.8928394,565.995081 L89.25,566.718 L89.5126462,566.582413 C89.6608965,566.507573 89.8089668,566.434843 89.9568015,566.364266 L89.6128138,565.645075 Z M43.9376378,562.845022 L43.6448482,563.588186 L44.0085848,563.738995 L44.0085848,563.738995 L44.325,563.884 L44.6592121,563.185439 L44.6592121,563.185439 L43.9376378,562.845022 Z M38.2261622,561.965792 L37.7759315,562.856015 L37.7759315,562.856015 L37.516,563.363 L37.7176078,563.304317 C38.1228217,563.193067 38.566542,563.111143 39.0419385,563.064898 L38.9576038,562.298761 L38.2261622,561.965792 Z M87.3651231,560.561985 L86.9176461,560.784297 L86.9176461,560.784297 L86.664,560.916 L86.9887044,561.619274 L86.9887044,561.619274 L87.7112369,561.281773 L87.3651231,560.561985 Z M92.473,558.872 L92.3837104,558.884251 C92.2084975,558.910947 92.0325677,558.94093 91.855934,558.974172 L92.0063287,559.760488 L92.729503,559.420071 L92.473,558.872 Z M46.5093379,557.929162 L46.1743891,558.655348 L46.9017066,558.981651 L47.215,558.274 L46.9008941,558.115978 C46.7711404,558.052343 46.6406182,557.990067 46.5093379,557.929162 Z M40.756,556.576 L40.528159,557.085095 L40.528159,557.085095 L41.2577331,557.414325 L41.3313304,556.61842 L40.816208,556.579175 L40.816208,556.579175 L40.756,556.576 Z M39.1250089,528.389347 L38.661,528.607 L38.6626253,529.116529 L39.4625969,529.114931 L39.1250089,528.389347 Z M95.6861978,528.301446 L95.3518097,529.02703 L96.1517813,529.025432 L96.15,528.517 L95.6861978,528.301446 L95.6861978,528.301446 Z M56.5787883,511.986982 L56.291,513.003 L57.3499609,513.001841 L57.3483609,512.202739 L56.5787883,511.986982 Z M75.4277181,511.958214 L74.6581455,512.17557 L74.6581455,512.974671 L75.717,512.973 L75.4277181,511.958214 L75.4277181,511.958214 Z M62.5167031,512.166652 L62.5182981,512.966416 L63.122,512.965 L63.2854905,512.380989 L63.2854905,512.380989 L62.5167031,512.166652 Z M70.0004175,512.155455 L69.2332251,512.371392 L69.398,512.956 L70.0020125,512.95522 L70.0004175,512.155455 Z M92.2266242,500.978997 C94.1911992,500.974265 95.7897142,502.779391 95.7945205,505.016041 C95.7993053,507.246369 94.2055858,509.054657 92.2346168,509.057818 L92.2346168,509.057818 L42.7637739,509.132114 C40.8039945,509.135271 39.210275,507.331725 39.2054795,505.101398 C39.207078,502.863167 40.7928049,501.05646 42.7541828,501.051717 L42.7541828,501.051717 Z M92.225137,489.861111 C94.1880582,489.862693 95.7865282,491.672738 95.7945205,493.898903 C95.7945205,496.134562 94.197649,497.938278 92.2331293,497.943024 L92.2331293,497.943024 L42.7620801,498.014228 C40.8039543,498.017388 39.2086812,496.213672 39.2054795,493.979596 C39.2022873,491.755013 40.792765,489.940221 42.7540877,489.938639 L42.7540877,489.938639 Z M68.4246575,0 L68.4246079,462.528093 C72.9483952,462.737266 77.0317146,463.248693 77.683338,463.441216 C79.0164993,463.819308 81.5885095,467.326715 81.5885095,467.326715 L81.5885095,467.326715 L86.9339427,478.231852 L92.2218294,478.222198 C94.1943965,478.21898 95.7881157,480.059564 95.7945205,482.334552 C95.7993053,484.588623 94.2023891,486.445296 92.2346175,486.450123 L92.2346175,486.450123 L42.760587,486.525745 C40.8008079,486.528959 39.2070888,484.677113 39.2054795,482.421432 C39.2006947,480.148054 40.7928154,478.297817 42.7493974,478.294599 L42.7493974,478.294599 L46.7249035,478.288163 C48.034087,475.824934 50.9465809,470.327317 52.3340916,467.650104 C54.1196326,464.13948 56.4230923,463.471786 56.4230923,463.471786 C58.2289462,462.667734 61.5770843,462.418161 65.0951381,462.438082 L65.0958904,0 L68.4246575,0 Z M91.2015573,568.831893 L90.481,569.181 L89.6868111,567.600677 L89.6868111,567.600677 L89.25,566.718 L89.0674101,566.813226 C85.9477508,568.472648 82.7730905,571.044328 80.0564556,574.137048 L79.672,574.581 L79.7278474,574.667336 C80.4259218,575.803286 80.9019002,577.073702 81.1348289,578.453001 L81.1923132,578.831854 C81.2435113,579.196244 81.2659105,579.571822 81.2659105,579.955391 C81.2515111,582.948827 79.8867596,586.583142 77.8084335,589.001224 C76.3076868,590.727285 74.4613525,591.695796 72.5366209,591.694198 C71.211868,591.695796 69.8887151,591.233915 68.6775581,590.358099 C67.0456162,589.186616 66.0168527,587.618778 65.7816611,585.808013 C65.7448624,585.525131 65.727263,585.240651 65.727263,584.959367 C65.7320629,583.025541 66.5272346,581.176419 67.5511982,579.477528 C68.3513475,578.154926 69.3034519,576.916436 70.1914621,575.813193 L70.529,575.395 L70.4091062,575.357423 C70.2770021,575.318874 70.1428244,575.282819 70.0067141,575.249448 L69.5927256,575.157583 C67.8519875,574.796389 66.207246,574.617391 64.7000996,574.617391 C62.8185665,574.617391 61.1562256,574.897076 59.8058736,575.429278 L59.8058736,575.429278 C59.6442793,575.492141 59.4864183,575.554826 59.3290313,575.618813 L58.97,575.767 L59.068287,576.332532 C59.1333599,576.731137 59.1900363,577.1279 59.2370874,577.522004 L59.3002915,578.111064 C59.3546896,578.670435 59.3818886,579.213825 59.3818886,579.74283 C59.399488,583.287646 58.0667354,586.150029 55.4044301,588.302809 C54.1612743,589.314472 52.5725308,589.889826 50.9821873,589.893022 L51.056,589.891 L51.046185,589.893022 L50.9837872,589.893022 L51.056,589.891 L51.1245822,589.87704 L50.9837872,589.893022 L50.9325891,589.893022 L50.6643513,589.887893 C49.2159055,589.828751 47.8961794,589.262202 46.9279315,588.246872 C45.4143853,586.677436 44.5984143,584.828314 44.6032141,582.840149 C44.6032141,582.611606 44.6144137,582.379866 44.635213,582.148127 C44.8448055,579.915436 45.9519662,578.015172 47.1759226,576.530441 C48.4046789,575.045709 49.7646306,573.960529 50.5886013,573.365997 C50.7443291,573.254123 50.9020124,573.142604 51.0617104,573.031854 L51.498,572.735 L51.4485684,572.605443 C50.9138399,571.249407 50.170138,569.702807 49.1763314,568.257902 L48.8990614,567.866578 C47.7215032,566.252747 46.2316994,564.810654 44.3633521,563.902857 L44.325,563.884 L43.9228633,564.729304 C43.4299308,565.754951 42.9330985,566.772607 42.4333663,567.777478 L41.681718,569.274595 L41.6657186,569.308158 L41.6449193,569.340122 L41.3953282,569.736476 L41.3873285,569.747664 C40.9265448,570.450873 40.1089739,571.576009 39.0002133,572.560502 C37.8946526,573.537005 36.4691033,574.411222 34.7699637,574.419213 C33.5380075,574.424008 32.3668492,573.939752 31.3828842,573.067133 C29.4837517,571.398608 28.7541776,569.022079 28.7557776,566.760621 C28.7573775,565.408541 29.0101685,564.080433 29.446953,562.902557 C30.1813269,560.911195 31.5460784,559.301804 33.3348148,558.216624 C35.1251511,557.128247 37.3330726,556.551295 39.7873853,556.546501 C39.9585793,556.546501 40.1299509,556.549342 40.3014411,556.554847 L40.756,556.576 L41.0416882,555.941698 C46.6703905,543.323984 51.637431,529.368553 56.1681047,513.440444 L56.291,513.003 L43.3920572,513.022618 C41.708255,513.027247 40.3436348,514.339994 40.2515252,515.99418 L40.246569,516.172677 L40.2625684,529.624758 L39.7985849,529.838918 C17.2489867,540.292768 1.59994311,563.105529 1.59994311,589.560596 L1.59994311,589.560596 L1.60154306,589.662881 C1.65594112,625.990052 31.1572922,655.403394 67.5047998,655.401796 L67.5047998,655.401796 L67.612,655.403 L68.6878132,655.392868 C104.180069,654.762288 132.816357,626.104484 133.391246,590.660499 L133.400057,589.573381 L133.400057,589.471096 L133.400057,589.471096 L134.200028,589.471096 L133.400057,589.461507 L133.394302,588.677028 C133.04962,562.509936 117.411217,540.051296 95.0174216,529.752615 L95.0174216,529.752615 L94.5534381,529.538455 L94.5326388,516.084776 C94.5310389,514.357118 93.1278888,512.953895 91.3823508,512.953895 L91.3823508,512.953895 L75.717,512.973 L75.8328106,513.376447 C80.7077731,530.333806 86.0838101,545.085549 92.2166736,558.320643 L92.473,558.872 L92.9071862,558.814045 C93.2547195,558.773847 93.5993344,558.746895 93.9409287,558.733393 L94.4510417,558.723254 C97.4093366,558.71846 100.11644,559.770078 102.37396,561.795002 C104.300292,563.532249 106.141826,566.362668 106.164225,569.338524 C106.164225,569.519121 106.156226,569.701316 106.141826,569.883511 C105.989831,571.839712 104.90667,573.525817 103.159532,574.614194 C101.925976,575.392519 100.588424,575.806454 99.2204722,575.809651 L99.2204722,575.809651 L99.207,575.809 L98.8794125,575.801652 C97.0316627,575.712934 95.3961281,574.8952 94.0530296,573.788041 L93.8190642,573.589746 C92.3519164,572.311183 91.2223565,570.690604 90.4815829,569.1819 L90.4879826,569.193087 L90.4879826,569.193087 L91.2015573,568.831893 Z" id="Combined-Shape-Copy-9" fill="#F2F1F0"></path>
    </g>
</svg>