<?xml version="1.0" encoding="UTF-8"?>
<svg width="1057px" height="406px" viewBox="0 0 1057 406" version="1.1" xmlns="http://www.w3.org/2000/svg" xmlns:xlink="http://www.w3.org/1999/xlink">
    <!-- Generator: Sketch 63.1 (92452) - https://sketch.com -->
    <title>Final Website</title>
    <desc>Created with Sketch.</desc>
    <g id="Final-Website" stroke="none" stroke-width="1" fill="none" fill-rule="evenodd">
        <path d="M1009.74349,252.683716 C1016.6918,252.393191 1019.29191,255.448139 1017.54382,261.848559 C1021.01497,263.225354 1022.95028,264.441621 1023.35076,265.498345 C1026.02096,262.980131 1027.82611,263.038236 1028.76724,265.673645 C1038.31666,260.781987 1043.7041,262.005147 1044.92957,269.343127 C1046.80581,270.062054 1047.74493,270.750452 1047.74493,271.408319 C1053.05228,269.553881 1056.12395,270.23243 1056.95795,273.441012 L1057,274.228877 L914,275 C915.263511,270.449093 917.585287,268.173148 920.96633,268.173148 C926.037394,268.173148 925.295507,264.50268 929.459487,265.598798 C933.623466,266.69393 929.905019,258.199758 937.475072,263.800495 C941.471851,257.554693 946.610996,257.928929 952.893509,264.925173 C957.34283,262.119388 960.279341,262.440443 961.704045,265.890308 C964.295143,263.866479 966.370625,263.30414 967.929489,264.203291 C967.688201,260.620474 969.518389,259.349057 973.420055,260.388054 C974.926857,253.644912 978.717389,252.407964 984.790652,256.674254 C987.817271,249.337259 992.734151,247.39911 999.539288,250.858824 C1005.36325,246.513747 1008.76532,247.121388 1009.74349,252.683716 Z" id="Path-Copy-4" fill-opacity="0.688346809" fill="#E4E0E0"></path>
        <path d="M240.363029,348.969498 C257.806685,348.227044 264.334232,356.034132 259.945669,372.390762 C268.659957,375.909237 273.518543,379.017475 274.523941,381.717993 C281.227433,375.282556 285.759265,375.431047 288.12195,382.165982 C312.095667,369.665077 325.620784,372.790932 328.697302,391.543548 C333.407592,393.380806 335.765251,395.140043 335.765251,396.82126 C349.089289,392.082141 356.800692,393.816211 358.894433,402.015919 L359,404.029352 L0,406 C3.17203089,394.369905 9.00082616,388.553599 17.4888993,388.553599 C30.2197523,388.553599 28.3572524,379.173516 38.8108787,381.974705 C49.2645051,384.773378 39.9293841,363.066049 58.933921,377.379044 C68.9677937,361.41755 81.8695643,362.373931 97.6417464,380.25322 C108.811719,373.08288 116.1838,373.903354 119.760504,382.719676 C126.265429,377.547669 131.475905,376.11058 135.389417,378.408411 C134.783664,369.252323 139.378334,366.003145 149.173424,368.65836 C152.956234,351.425886 162.472327,348.264796 177.719189,359.167538 C185.317485,340.417439 197.661259,335.464393 214.745486,344.305882 C229.366487,333.201797 237.907344,334.754657 240.363029,348.969498 Z" id="Path-Copy-5" fill="#D8D8D8" opacity="0.135300409" transform="translate(179.500000, 371.500000) scale(-1, 1) translate(-179.500000, -371.500000) "></path>
        <path d="M610.615613,159.493265 C612.990923,153.289494 616.81779,153.289494 622.095812,159.493265 C623.47977,156.77149 625.987467,155.171943 629.619035,154.695968 C633.250603,154.219992 637.50943,157.911149 642.395649,165.768098 C644.382772,159.757398 647.555341,160.336614 651.913222,167.504403 L654.759981,166.139493 C654.759981,162.843865 657.553866,161.811467 663.141769,163.040959 L666.750179,159.493265 C664.034066,157.06646 664.975088,154.895744 669.573245,152.982456 C674.171402,151.070509 681.164814,151.070509 690.553616,152.982456 C691.570937,155.70155 693.023297,157.870926 694.912033,159.493265 C696.80077,161.114264 698.146043,163.329226 698.947853,166.139493 L706.52154,165.768098 C706.52154,164.021067 708.552166,163.11068 712.614757,163.040959 C713.980109,166.862172 715.943806,169.542383 718.50451,171.081595 C721.066553,172.620806 721.655528,174.926941 720.272774,178 L484.537418,178 C483.400026,176.25565 482.893642,175.077108 483.018531,174.464373 C483.255728,173.30192 485.658479,172.752202 485.701715,171.975892 C485.779219,170.585507 487.446421,169.860147 490.703588,169.798472 C492.674246,164.978381 496.398711,164.585534 501.876851,168.62127 C501.876851,168.62127 504.008138,167.824849 508.270579,166.233348 C507.720691,161.714932 510.21634,159.970582 515.75766,160.998957 C522.058491,150.522131 529.438352,151.496876 537.897108,163.925872 L542.408926,163.260847 C546.157888,157.036963 550.50051,157.003444 555.436391,163.16297 C555.436391,163.16297 556.667215,163.200512 559.128731,163.274254 C559.283738,155.379764 563.335888,153.619325 571.285315,157.994277 C573.323705,149.469622 576.886336,148.166388 581.973075,154.084574 C581.973075,154.084574 582.870191,154.178428 584.664424,154.363455 C584.021236,151.838774 585.667958,150.323697 589.604722,149.816883 C595.967262,147.320358 602.970847,150.546265 610.615613,159.493265 Z" id="Path-Copy-6" fill-opacity="0.688346809" fill="#E4E0E0"></path>
        <path d="M232.615613,10.4932653 C234.990923,4.28949361 238.81779,4.28949361 244.095812,10.4932653 C245.47977,7.77148955 247.987467,6.17194347 251.619035,5.6959679 C255.250603,5.21999233 259.50943,8.91114936 264.395649,16.7680982 C266.382772,10.7573983 269.555341,11.3366136 273.913222,18.5044035 L276.759981,17.1394932 C276.759981,13.8438652 279.553866,12.8114675 285.141769,14.0409593 L288.750179,10.4932653 C286.034066,8.06646032 286.975088,5.89574356 291.573245,3.98245585 C296.171402,2.07050891 303.164814,2.07050891 312.553616,3.98245585 C313.570937,6.70155009 315.023297,8.87092607 316.912033,10.4932653 C318.80077,12.1142638 320.146043,14.3292262 320.947853,17.1394932 L328.52154,16.7680982 C328.52154,15.0210668 330.552166,14.1106797 334.614757,14.0409593 C335.980109,17.8621716 337.943806,20.5423834 340.50451,22.0815945 C343.066553,23.6208057 343.655528,25.9269408 342.272774,29 L106.537418,29 C105.400026,27.2556501 104.893642,26.0771078 105.018531,25.464373 C105.255728,24.30192 107.658479,23.7522017 107.701715,22.9758923 C107.779219,21.5855073 109.446421,20.8601474 112.703588,20.7984716 C114.674246,15.978381 118.398711,15.5855336 123.876851,19.6212701 C123.876851,19.6212701 126.008138,18.824849 130.270579,17.2333476 C129.720691,12.7149316 132.21634,10.9705817 137.75766,11.9989571 C144.058491,1.52213142 151.438352,2.49687576 159.897108,14.9258716 L164.408926,14.2608466 C168.157888,8.03696324 172.50051,8.00344384 177.436391,14.16297 C177.436391,14.16297 178.667215,14.2005117 181.128731,14.2742544 C181.283738,6.37976379 185.335888,4.61932457 193.285315,8.99427749 C195.323705,0.469622057 198.886336,-0.833612463 203.973075,5.08457393 C203.973075,5.08457393 204.870191,5.17842827 206.664424,5.36345539 C206.021236,2.8387737 207.667958,1.32369653 211.604722,0.816883107 C217.967262,-1.67964228 224.970847,1.54626539 232.615613,10.4932653 Z" id="Path-Copy-7" fill-opacity="0.688346809" fill="#E4E0E0"></path>
    </g>
</svg>