<?xml version="1.0" encoding="UTF-8"?>
<svg width="2071px" height="294px" viewBox="0 0 2071 294" version="1.1" xmlns="http://www.w3.org/2000/svg" xmlns:xlink="http://www.w3.org/1999/xlink">
    <!-- Generator: Sketch 63.1 (92452) - https://sketch.com -->
    <title>Final Website</title>
    <desc>Created with Sketch.</desc>
    <g id="Final-Website" stroke="none" stroke-width="1" fill="none" fill-rule="evenodd">
        <path d="M85.6016355,267.623155 C95.3442028,261.854599 103.271566,264.910487 109.383726,276.792197 L114.2318,276.527546 C126.570998,261.934546 136.984797,264.275049 145.473334,283.547679 L151.654228,283.848168 C156.704925,277.059604 161.550381,277.703311 166.190873,285.77929 C172.119143,283.039054 175.722139,285.77929 177,294 L0.0155596643,294 C-0.108548596,289.416858 0.509788786,286.243807 1.87043407,284.47947 C3.23121709,282.715132 6.30127804,281.105174 11.0807546,279.650975 L22.0160561,279.65511 C22.0708786,265.089677 27.6328846,261.62303 38.7020742,269.253789 C39.663259,268.818218 42.4846902,269.328222 47.1665055,270.785179 C57.6077156,253.527753 70.4195174,252.473286 85.6016355,267.623155 Z" id="Path-Copy-4" fill="#D8D8D8" opacity="0.226306734"></path>
        <path d="M1832.07373,24.1124662 C1867.20399,22.6167988 1880.35,38.3441214 1871.51175,71.2944339 C1889.0617,78.3823762 1898.84654,84.6438989 1900.87134,90.0840721 C1914.37168,77.1199316 1923.49846,77.4190651 1928.25674,90.9865426 C1976.53807,65.8035602 2003.77668,72.1005733 2009.97256,109.877582 C2019.45874,113.578725 2024.2069,117.122696 2024.2069,120.509495 C2051.04054,110.962574 2066.57075,114.455845 2070.7874,130.974097 L2071,135.030144 L1348,139 C1354.38824,115.571258 1366.12701,103.854352 1383.22138,103.854352 C1408.86039,103.854352 1405.10945,84.9582426 1426.1623,90.6012181 C1447.21515,96.2391236 1428.41489,52.5098659 1466.68865,81.3432906 C1486.89614,49.1889773 1512.87937,51.1155997 1544.64341,87.1332978 C1567.13892,72.6887001 1581.98576,74.3415393 1589.18898,92.1019555 C1602.28943,81.6829846 1612.78295,78.7879809 1620.66448,83.4169447 C1619.44454,64.9720705 1628.69787,58.4266246 1648.42447,63.7755367 C1656.04278,29.0608436 1675.2075,22.6928497 1705.91357,44.6563447 C1721.21599,6.88440615 1746.07546,-3.09346969 1780.48186,14.7176471 C1809.92749,-7.65145261 1827.12816,-4.52322629 1832.07373,24.1124662 Z" id="Path-Copy-5" fill="#ECE9E9" opacity="0.173967634" transform="translate(1709.500000, 69.500000) scale(-1, 1) translate(-1709.500000, -69.500000) "></path>
    </g>
</svg>