
<svg viewBox="0 0 46 70" version="1.1" xmlns="http://www.w3.org/2000/svg" xmlns:xlink="http://www.w3.org/1999/xlink">
    <g id="Final-Website" stroke="none" stroke-width="1" fill="none" fill-rule="evenodd">
        <g id="What-we-do" transform="translate(-556.000000, -3909.000000)" fill="#FF5F4B" fill-rule="nonzero">
            <path d="M567.862069,3909 L590,3909 C590.552285,3909 591,3909.44772 591,3910 L591,3916.44828 C591,3917.00056 590.552285,3917.44828 590,3917.44828 L567.862069,3917.44828 C567.309784,3917.44828 566.862069,3917.00056 566.862069,3916.44828 L566.862069,3910 C566.862069,3909.44772 567.309784,3909 567.862069,3909 Z M564.665517,3909 C564.525007,3909.38702 564.45154,3909.79517 564.448276,3910.2069 L564.448276,3916.24138 C564.448276,3918.24103 566.069314,3919.86207 568.068966,3919.86207 L589.793103,3919.86207 C591.792755,3919.86207 593.413793,3918.24103 593.413793,3916.24138 L593.413793,3910.2069 C593.410529,3909.79517 593.337062,3909.38702 593.196552,3909 L595.827586,3909 C597.428031,3909 598.962925,3909.63577 600.09461,3910.76746 C601.226295,3911.89914 601.862069,3913.43404 601.862069,3915.03448 L601.862069,3972.96552 C601.862069,3976.29827 599.160339,3979 595.827586,3979 L562.034483,3979 C558.70173,3979 556,3976.29827 556,3972.96552 L556,3915.03448 C556,3911.70173 558.70173,3909 562.034483,3909 L564.665517,3909 Z M578.931034,3938.61724 L578.931034,3948.16379 C581.939856,3948.79555 584.76387,3950.10847 587.186207,3952.00172 C587.922362,3952.52586 588.889626,3952.5949 589.692757,3952.18062 C590.495889,3951.76635 591.000347,3950.93817 591,3950.03448 L591,3936.81897 C591.000347,3935.91528 590.495889,3935.0871 589.692757,3934.67283 C588.889626,3934.25855 587.922362,3934.32759 587.186207,3934.85172 C584.753614,3936.7133 581.931487,3938.00059 578.931034,3938.61724 Z M583.758621,3969.34483 C583.758621,3966.67863 581.597237,3964.51724 578.931034,3964.51724 C576.264832,3964.51724 574.103448,3966.67863 574.103448,3969.34483 C574.103448,3972.01103 576.264832,3974.17241 578.931034,3974.17241 C581.597237,3974.17241 583.758621,3972.01103 583.758621,3969.34483 Z M566.862069,3941.58621 L566.862069,3945.2069 C566.862069,3947.20655 568.483107,3948.82759 570.482759,3948.82759 L572.148276,3948.82759 L574.562069,3953.65517 L577.265517,3953.65517 L574.851724,3948.82759 L576.517241,3948.82759 L576.517241,3937.96552 L570.482759,3937.96552 C568.483107,3937.96552 566.862069,3939.58656 566.862069,3941.58621 Z" id="Combined-Shape"></path>
        </g>
    </g>
</svg>