
<svg width="128px" height="36px" viewBox="0 0 128 36" version="1.1" xmlns="http://www.w3.org/2000/svg" xmlns:xlink="http://www.w3.org/1999/xlink">
    <g id="Final-Website" stroke="none" stroke-width="1" fill="none" fill-rule="evenodd">
        <g id="Landing-white" transform="translate(-1273.000000, -288.000000)" fill="#4C4C4C">
            <path d="M1324.17463,307.999249 C1318.36855,304.123599 1311.83051,300.288893 1290.27506,305.700892 C1279.34933,308.445486 1273,301.566611 1273,301.566611 C1286.02004,301.566611 1290.53307,298.078028 1302.65232,294.719492 C1307.13813,293.475962 1311.25152,294.971807 1314.65373,297.349706 C1314.71951,297.237115 1318.34332,291.117763 1327.92334,293.03856 C1337.59218,294.977166 1349.45341,290.325722 1351,288 C1351,288 1348.77743,298.272191 1338.1399,298.465749 C1327.50387,298.66082 1324.1753,302.152427 1324.1753,308 Z" id="Combined-Shape"></path>
            <path d="M1371.62906,316.544487 C1374.02787,314.879637 1376.92809,313.832188 1380.09078,314.702448 C1388.6361,317.053823 1391.8185,319.496907 1401,319.496907 C1401,319.496907 1396.52258,324.310911 1388.81895,322.391022 C1373.62058,318.602454 1369.01004,321.285867 1364.91652,323.999502 C1364.91607,319.906143 1362.56931,317.461555 1355.06968,317.326246 C1347.57004,317.190936 1346,310 1346,310 C1347.09253,311.628222 1355.45501,314.884665 1362.27314,313.527062 C1369.01719,312.185399 1371.57536,316.453463 1371.62906,316.544487 Z" id="Combined-Shape"></path>
        </g>
    </g>
</svg>