
<svg viewBox="0 0 100 28" version="1.1" xmlns="http://www.w3.org/2000/svg" xmlns:xlink="http://www.w3.org/1999/xlink">
    <g id="Final-Website" stroke="none" stroke-width="1" fill="none" fill-rule="evenodd">
        <g id="Landing-white" transform="translate(-1341.000000, -288.000000)" fill="#4C4C4C">
            <path d="M1367.62906,307.544487 C1370.02787,305.879637 1372.92809,304.832188 1376.09078,305.702448 C1384.6361,308.053823 1387.8185,310.496907 1397,310.496907 C1397,310.496907 1392.52258,315.310911 1384.81895,313.391022 C1369.62058,309.602454 1365.01004,312.285867 1360.91652,314.999502 C1360.91607,310.906143 1358.56931,308.461555 1351.06968,308.326246 C1343.57004,308.190936 1342,301 1342,301 C1343.09253,302.628222 1351.45501,305.884665 1358.27314,304.527062 C1365.01719,303.185399 1367.57536,307.453463 1367.62906,307.544487 Z" id="Combined-Shape" transform="translate(1369.500000, 308.000000) rotate(-3.000000) translate(-1369.500000, -308.000000) "></path>
            <path d="M1410.62906,293.544487 C1413.02787,291.879637 1415.92809,290.832188 1419.09078,291.702448 C1427.6361,294.053823 1430.8185,296.496907 1440,296.496907 C1440,296.496907 1435.52258,301.310911 1427.81895,299.391022 C1412.62058,295.602454 1408.01004,298.285867 1403.91652,300.999502 C1403.91607,296.906143 1401.56931,294.461555 1394.06968,294.326246 C1386.57004,294.190936 1385,287 1385,287 C1386.09253,288.628222 1394.45501,291.884665 1401.27314,290.527062 C1408.01719,289.185399 1410.57536,293.453463 1410.62906,293.544487 Z" id="Combined-Shape-Copy-2" transform="translate(1412.500000, 294.000000) rotate(-3.000000) translate(-1412.500000, -294.000000) "></path>
        </g>
    </g>
</svg>