<?xml version="1.0" encoding="UTF-8"?>
<svg width="" height="" viewBox="0 0 618 929" version="1.1" xmlns="http://www.w3.org/2000/svg" xmlns:xlink="http://www.w3.org/1999/xlink">
    <!-- Generator: Sketch 63.1 (92452) - https://sketch.com -->
    <title>Forza light Copy</title>
    <desc>Created with Sketch.</desc>
    <defs>
        <filter x="-20.1%" y="-16.2%" width="140.2%" height="132.4%" filterUnits="objectBoundingBox" id="filter-1">
            <feOffset dx="-4" dy="2" in="SourceAlpha" result="shadowOffsetOuter1"></feOffset>
            <feGaussianBlur stdDeviation="2.5" in="shadowOffsetOuter1" result="shadowBlurOuter1"></feGaussianBlur>
            <feColorMatrix values="0 0 0 0 0   0 0 0 0 0   0 0 0 0 0  0 0 0 0.5 0" type="matrix" in="shadowBlurOuter1" result="shadowMatrixOuter1"></feColorMatrix>
            <feMerge>
                <feMergeNode in="shadowMatrixOuter1"></feMergeNode>
                <feMergeNode in="SourceGraphic"></feMergeNode>
            </feMerge>
        </filter>
        <filter x="-25.5%" y="-25.5%" width="151.0%" height="151.0%" filterUnits="objectBoundingBox" id="filter-2">
            <feGaussianBlur stdDeviation="37" in="SourceGraphic"></feGaussianBlur>
        </filter>
    </defs>
    <g id="Final-Website" stroke="none" stroke-width="1" fill="none" fill-rule="evenodd">
        <g id="Forza-light-Copy" transform="translate(91.000000, 3.000000)">
            <g id="Socket" filter="url(#filter-1)" transform="translate(234.800892, 43.855131) rotate(90.000000) translate(-234.800892, -43.855131) translate(191.300892, -10.144869)">
                <rect id="Rectangle" fill="#4A4A4A" x="0" y="0" width="63.6138383" height="107.362393" rx="10.08"></rect>
                <rect id="Rectangle" fill="#FFFFFF" x="14.3024402" y="12.1663149" width="35.862835" height="80.2549895"></rect>
                <path d="M43.1897256,38.84683 L43.1897256,40.8746754 L41.3829192,40.87383 L41.3837687,44.2279896 C39.4914483,48.1668929 36.9821196,48.2385094 33.8557827,44.4428389 L33.6814626,44.2279896 L33.6809192,40.87383 L31.8069192,40.8746754 L31.8069192,38.84683 L43.1897256,38.84683 Z M23.766646,33.2972829 C27.7789645,35.2244194 27.7789645,37.7915524 23.766646,40.9986821 L23.766646,40.9986821 L19.4257023,40.9986821 L19.4257023,33.2972829 Z M33.215375,26.9132209 C36.3417118,23.1175504 38.8510405,23.1891668 40.7433609,27.1280702 L40.7433609,27.1280702 L40.7425114,30.4822297 L42.5493178,30.4813844 L42.5493178,32.5092297 L31.1665114,32.5092297 L31.1665114,30.4813844 L33.0405114,30.4822297 L33.0410548,27.1280702 Z" id="Combined-Shape" fill="#313131"></path>
                <g id="Group-10" transform="translate(17.717948, 55.068583)">
                    <rect id="Rectangle" fill="#232325" x="57.8501684" y="7.25710012" width="10.8869321" height="20.2771915"></rect>
                    <path d="M26.4111962,4.72510919e-13 C29.862755,4.68811278e-13 32.6607962,2.79804123 32.6607962,6.2496 L32.6607962,28.7552359 C32.6607962,32.2067946 29.862755,35.0048359 26.4111962,35.0048359 L6.2496,35.0048359 C2.79804123,35.0048359 9.00147433e-13,32.2067946 8.98836561e-13,28.7552359 L8.98836561e-13,6.2496 C8.98413867e-13,2.79804123 2.79804123,4.74033139e-13 6.2496,4.72510919e-13 L26.4111962,4.72510919e-13 Z M62.9734305,7.25710012 L62.9734305,27.5342916 L61.0522072,27.5342916 L61.0522072,7.25710012 L62.9734305,7.25710012 Z M65.9620001,7.25710012 L65.9620001,27.5342916 L64.0407768,27.5342916 L64.0407768,7.25710012 L65.9620001,7.25710012 Z M68.7371005,7.25710012 L68.7371005,27.5342916 L66.8158772,27.5342916 L66.8158772,7.25710012 L68.7371005,7.25710012 Z M58.2771069,7.25710012 L58.2771069,27.5342916 L33.9416117,27.5342916 L33.9416117,7.25710012 L58.2771069,7.25710012 Z" id="Combined-Shape" fill="#9B9B9B"></path>
                </g>
            </g>
            <path d="M189.447728,518.95384 L244.618791,518.873811 C246.813297,518.868476 248.592434,516.842982 248.592434,514.330232 C248.581738,511.826373 246.800818,509.793766 244.609877,509.791988 L189.438814,509.879125 C187.251439,509.880903 185.47765,511.918845 185.479431,514.419147 C185.482998,516.931898 187.263917,518.957392 189.447728,518.95384" id="Fill-4" fill="#F2F1F0"></path>
            <path d="M189.428118,506.270941 L244.602747,506.189134 C246.797253,506.183799 248.578172,504.129853 248.571063,501.64022 C248.565693,499.125692 246.786557,497.089528 244.588485,497.093085 L238.689524,497.103754 L232.728168,485.052156 C232.728168,485.052156 229.861583,481.173664 228.373027,480.75754 C226.911211,480.328967 209.923843,478.470635 204.66309,480.789549 C204.66309,480.789549 202.097781,481.527547 200.102938,485.409596 C198.555552,488.368701 195.307469,494.443404 193.849219,497.165995 L189.415639,497.173108 C187.233612,497.176665 185.45804,499.223499 185.4616,501.736249 C185.465171,504.229438 187.242525,506.274493 189.428118,506.270941" id="Fill-5" fill="#F2F1F0"></path>
            <path d="M189.467337,531.64563 L244.638401,531.560266 C246.836472,531.55671 248.613826,529.524103 248.606717,527.014909 C248.60313,524.496824 246.820428,522.467773 244.627705,522.473098 L189.456641,522.55491 C187.269266,522.560245 185.499042,524.591074 185.499042,527.109159 C185.504391,529.618353 187.281745,531.649182 189.467337,531.64563" id="Fill-6" fill="#F2F1F0"></path>
            <path d="M217.330971,708.27437 C220.525573,708.272592 223.133666,710.975622 223.139014,714.130342 C223.144362,719.306999 223.156841,724.496104 223.16219,729.678096 C223.16393,732.785504 220.573729,735.336442 217.509611,735.456723 L217.289968,735.461156 L217.202616,735.468269 C214.011579,735.466491 211.403486,732.763461 211.407052,729.601628 C211.394573,724.428528 211.383829,719.244758 211.383829,714.060988 C211.376746,712.103069 212.180744,710.657304 213.362676,709.725471 C214.235086,708.900224 215.433396,708.348497 216.942917,708.282755 L217.248966,708.276149 L217.330971,708.27437 Z M161.125237,688.566803 L161.305993,688.704082 L161.733841,689.075749 C164.183274,691.4818 163.769687,694.832134 161.790888,697.311097 C158.557066,701.365641 155.323245,705.423742 152.092988,709.478286 C150.017426,712.07503 146.285333,711.385541 143.999826,709.65685 L143.839078,709.531635 L143.717854,709.43205 C141.063411,707.305192 141.829973,703.465824 143.66259,701.203815 C146.930283,697.174167 150.196193,693.144519 153.456756,689.11665 C155.297082,686.860408 158.916184,686.961043 161.125237,688.566803 Z M280.975217,688.956602 C284.251823,692.980915 287.526647,697.001671 290.797905,701.022427 C292.574935,703.196531 293.485346,706.943349 291.034959,709.10761 L290.858517,709.255997 L290.737293,709.352026 C288.503568,711.142783 284.617277,712.090621 282.4816,709.403597 C279.247779,705.356166 276.010392,701.301622 272.778353,697.245299 C271.571463,695.769303 270.938604,693.987438 271.129353,692.255365 C271.257708,691.11369 271.751516,689.998691 272.723089,689.017064 C273.662573,688.062113 275.060211,687.459266 276.495287,687.317001 C278.171027,687.148062 279.905596,687.617535 280.975217,688.956602 Z M243.802313,534.658069 C246.164132,534.652902 248.087632,536.50054 248.201996,538.818921 L248.20737,539.030942 L248.228763,553.433465 C273.735664,565.147185 291.471767,590.836634 291.512862,620.687326 C291.576946,661.62933 258.349162,694.874814 217.306013,694.938906 C176.266428,694.995739 142.940596,661.851619 142.876335,620.902501 C142.832296,591.359119 160.141627,565.833168 185.193894,553.889048 L185.955414,553.531272 L185.937587,539.130527 C185.937587,536.779707 187.784904,534.857749 190.118501,534.741848 L190.331948,534.736326 L205.884241,534.713208 C200.552179,553.687763 194.67461,570.176242 187.953823,585.019786 C187.406534,584.968215 186.861027,584.943319 186.317303,584.943319 C181.127857,584.953989 177.136387,587.377824 175.631787,591.434146 C174.428463,594.684894 174.546121,599.143115 177.539278,601.769677 C178.509068,602.621487 179.584037,603.051838 180.726749,603.051838 C183.759912,603.046659 186.233841,599.927209 187.265085,598.39091 L187.354835,598.255739 L187.631154,597.814718 C188.745343,595.618507 189.852401,593.351163 190.941632,591.060701 C196.271911,593.148436 199.106407,598.693203 200.452347,602.422316 C199.908623,602.76553 199.379161,603.124748 198.871091,603.489301 C197.12226,604.750122 193.01848,608.160919 192.606676,612.620917 C192.40523,614.861586 193.178923,616.899528 194.917057,618.711625 C195.901109,619.737709 197.232787,620.276537 198.767694,620.269424 C200.329341,620.274758 201.928425,619.700365 203.153141,618.700955 C206.344178,616.097511 207.622375,612.743621 207.171351,608.134244 C207.073303,607.081485 206.900381,606.002052 206.682891,604.906614 C207.215919,604.670099 207.75073,604.446032 208.294454,604.236191 C211.239478,603.08029 215.236296,602.9647 219.701964,603.889421 C220.404646,604.030204 221.06895,604.229029 221.686623,604.472517 L222.051566,604.623862 L221.707504,605.039987 C219.151109,608.173367 215.635621,612.457313 216.165083,616.497631 C216.398617,618.249265 217.363059,619.751936 219.029886,620.955851 C222.02839,623.120053 225.381653,622.590117 228.007573,619.581218 C230.444527,616.783938 232.011522,612.121213 231.567629,608.973606 C231.316268,607.122386 230.665582,605.481007 229.647659,604.060139 C233.205932,599.745961 237.566422,596.212462 241.83421,594.176298 C242.418937,595.367765 243.009011,596.552119 243.604434,597.722246 C245.15895,600.892971 248.423077,604.606079 252.539336,604.597188 C253.881711,604.593631 255.20091,604.193512 256.45415,603.405721 C258.199415,602.306726 259.206642,600.720475 259.36352,598.819462 C259.616663,595.744767 257.586166,592.451339 255.45762,590.55744 C252.405634,587.833071 248.695831,586.837218 244.501133,587.628565 C237.391195,572.508603 231.190743,555.626623 225.590214,536.148701 L225.171294,534.682976 L243.802313,534.658069 Z M124.937088,633.871708 C127.083231,633.942266 129.094141,635.140321 129.790366,637.80433 L129.855563,638.07563 L129.898348,638.265909 C130.11762,639.279545 130.078401,640.3572 129.803865,641.361944 C129.663031,641.996801 129.408105,642.592534 129.033737,643.131362 C128.30996,644.241026 127.211816,645.09995 125.780306,645.40404 C120.69604,646.474582 115.620687,647.536233 110.531073,648.60144 C103.209515,650.137899 100.132571,639.014577 107.498696,637.366085 C112.565136,636.233302 117.638706,635.100519 122.699797,633.969515 C123.50023,633.791684 124.25253,633.768566 124.937088,633.871708 Z M311.691173,633.889491 C316.77544,634.958254 321.857923,636.023461 326.938624,637.090447 C330.09371,637.748379 331.602637,641.109254 331.079004,644.020002 L331.037056,644.232135 L330.996054,644.425971 C330.306148,647.628705 326.803139,649.181168 323.833157,648.514303 C318.768501,647.383298 313.694931,646.25585 308.626709,645.124846 C305.168267,644.397518 304.011293,641.536219 304.521146,638.865199 C305.073783,635.815399 307.771012,633.021676 311.691173,633.889491 Z M219.710878,534.693646 C225.533183,555.389604 232.011522,573.274056 239.504219,589.310845 C233.180975,592.349975 227.911307,598.026337 225.695409,600.654677 C223.385027,599.374295 220.468526,598.545603 217.017215,598.213059 C212.893825,597.807605 209.027144,598.360659 205.238902,599.913122 C202.846516,593.69082 198.573379,588.924952 193.080874,586.389084 C199.782755,571.479041 205.62606,555.038159 210.918522,536.235801 L211.34644,534.706094 L219.710878,534.693646 Z M120.842221,565.060048 C125.491508,567.370071 130.13723,569.680094 134.793648,571.991896 C137.687712,573.428422 138.265643,577.046736 137.033997,579.735719 L136.938238,579.935601 L136.902584,580.013847 C135.457291,582.904249 131.823124,583.477455 129.133786,582.251984 L128.933906,582.156709 L114.986045,575.228418 C113.112425,574.287692 112.213943,572.448921 112.146201,570.535461 C112.064196,569.377782 112.303078,568.195206 112.878891,567.197575 C114.28366,564.359394 118.219867,563.557377 120.842221,565.060048 Z M321.36768,566.97173 C321.955972,567.965804 322.203768,569.164385 322.130677,570.339847 C322.071848,572.24975 321.20902,574.081408 319.338965,575.022134 C314.700375,577.346383 310.058218,579.668855 305.414279,581.991326 C302.784577,583.311612 299.113037,582.917274 297.536676,580.142823 L297.422426,579.930266 L297.384989,579.852021 C296.02657,577.177444 296.479377,573.371863 299.449358,571.878084 C304.096863,569.557391 308.733671,567.238476 313.37761,564.912448 C315.966093,563.390216 319.950432,564.126436 321.36768,566.97173 Z" id="OFF" stroke="#FFFFFF" stroke-width="2.1"></path>
            <g id="ON" transform="translate(0.000000, 398.658058)" fill="#333232" opacity="0.120582217">
                <circle id="Oval-Copy" filter="url(#filter-2)" cx="217.881119" cy="217.841942" r="217.5"></circle>
            </g>
            <path d="M86.1175946,244.171078 L135.334806,244.171078 C137.464568,244.171078 139.22825,244.853097 140.625906,246.217156 C142.023562,247.581215 142.72238,249.327849 142.72238,251.457111 C142.72238,253.586374 142.023562,255.333008 140.625906,256.697067 C139.22825,258.061126 137.464568,258.743145 135.334806,258.743145 L107.381826,258.743145 C105.385175,258.743145 103.771239,259.358625 102.539971,260.589605 C101.308702,261.820585 100.693077,263.434143 100.693077,265.430326 C100.693077,267.42651 101.308702,269.040067 102.539971,270.271047 C103.771239,271.502027 105.385175,272.117507 107.381826,272.117507 L126.050424,272.117507 C128.180185,272.117507 129.927229,272.799527 131.291608,274.163585 C132.655986,275.527644 133.338165,277.274278 133.338165,279.403541 C133.338165,281.599343 132.672625,283.362612 131.341524,284.693401 C130.010423,286.02419 128.24674,286.689574 126.050424,286.689574 L107.381826,286.689574 C105.385175,286.689574 103.771239,287.305055 102.539971,288.536035 C101.308702,289.767015 100.693077,291.380572 100.693077,293.376756 L100.693077,318.728159 L147.314655,318.728159 L147.314655,324.018019 L95.4019773,324.018019 L95.4019773,293.376756 C95.4019773,289.916704 96.5333962,287.072185 98.7962678,284.843114 C101.059139,282.614042 103.920964,281.499523 107.381826,281.499523 L126.050424,281.499523 C127.381525,281.499523 128.047065,280.800869 128.047065,279.403541 C128.047065,278.072752 127.381525,277.407367 126.050424,277.407367 L107.381826,277.407367 C103.920964,277.407367 101.059139,276.276214 98.7962678,274.013872 C96.5333962,271.751531 95.4019773,268.890378 95.4019773,265.430326 C95.4019773,261.970275 96.5333962,259.109121 98.7962678,256.84678 C101.059139,254.584439 103.920964,253.453285 107.381826,253.453285 L135.334806,253.453285 C136.732462,253.453285 137.43128,252.7879 137.43128,251.457111 C137.43128,250.126322 136.732462,249.460938 135.334806,249.460938 L91.4086944,249.460938 L91.4086944,316.731986 C91.4086944,318.861248 90.7265154,320.607883 89.3621369,321.971941 C87.9977585,323.336 86.2507147,324.018019 84.1209531,324.018019 L56.21958,324.018019 L56.21958,318.827968 L84.0211211,318.728159 C85.4187771,318.66162 86.1175946,317.996235 86.1175946,316.731986 L86.1175946,244.171078 Z M151.906931,279.203923 C151.906931,269.289545 155.351103,260.889066 162.23955,254.002233 C169.127998,247.1154 177.497169,243.672035 187.347316,243.672035 C197.264019,243.672035 205.666467,247.1154 212.554915,254.002233 C219.443362,260.889066 222.887534,269.289545 222.887534,279.203923 C222.887534,287.521355 220.242011,294.940392 214.950885,301.461258 C209.659758,307.982124 202.921161,312.107508 194.73489,313.837534 L194.73489,318.728159 L227.579642,318.728159 L227.579642,324.018019 L189.44379,324.018019 L189.44379,309.346144 L191.739928,309.046718 C199.127538,308.115165 205.283788,304.771608 210.208861,299.015946 C215.133935,293.260283 217.596434,286.656342 217.596434,279.203923 C217.596434,270.753413 214.668056,263.60053 208.811212,257.745058 C202.954368,251.889586 195.799807,248.961894 187.347316,248.961894 C178.96138,248.961894 171.840097,251.906221 165.983253,257.794962 C160.126409,263.683704 157.19803,270.819953 157.19803,279.203923 C157.19803,286.656342 159.66053,293.260283 164.585604,299.015946 C169.510677,304.771608 175.666927,308.115165 183.054537,309.046718 L185.350675,309.346144 L185.350675,324.018019 L147.214823,324.018019 L147.214823,318.728159 L180.059575,318.728159 L180.059575,313.837534 C171.873304,312.107508 165.134707,307.982124 159.84358,301.461258 C154.552454,294.940392 151.906931,287.521355 151.906931,279.203923 Z M282.686946,318.728159 L288.976366,318.728159 L288.976366,324.018019 L280.590472,324.018019 L242.754117,286.290339 L242.754117,281.499523 L263.020028,281.499523 C265.682229,281.499523 268.444223,280.7676 271.30609,279.303732 C276.430828,276.642154 278.993159,272.017732 278.993159,265.430326 C278.993159,258.842921 276.430828,254.218498 271.30609,251.55692 C268.577333,250.159592 265.81534,249.460938 263.020028,249.460938 L237.662681,249.460938 L237.662681,316.731986 C237.662681,318.861248 236.980502,320.607883 235.616124,321.971941 C234.251745,323.336 232.504701,324.018019 230.37494,324.018019 L227.679474,324.018019 L227.679474,318.827968 L230.275108,318.728159 C231.672764,318.66162 232.371581,317.996235 232.371581,316.731986 L232.371581,244.171078 L263.020028,244.171078 C268.011656,244.171078 272.470777,245.601655 276.397525,248.462851 C281.655374,252.322139 284.284259,257.977908 284.284259,265.430326 C284.284259,272.882745 281.655374,278.538513 276.397525,282.397801 C272.470777,285.258997 268.011656,286.689574 263.020028,286.689574 L250.640851,286.689574 L282.686946,318.728159 Z M303.252353,243.672035 L329.009028,243.672035 C331.138789,243.672035 332.902472,244.370688 334.300128,245.768017 C335.697784,247.165345 336.396601,248.928614 336.396601,251.057877 C336.396601,253.187139 335.697784,254.933773 334.300128,256.297832 C332.902472,257.661891 331.138789,258.34391 329.009028,258.34391 L312.037575,258.34391 C311.372025,258.34391 310.906146,258.410449 310.639926,258.543527 L310.639926,258.643336 C310.639926,259.042573 310.773034,259.57488 311.039255,260.240275 L335.498112,318.728159 L341.088708,318.728159 L341.088708,324.018019 L332.00399,324.018019 C317.361879,288.885189 308.776407,268.391346 306.247315,262.535874 C305.64832,260.938928 305.348826,259.641428 305.348826,258.643336 C305.348826,254.917127 307.578387,253.05405 312.037575,253.05405 L329.009028,253.05405 C330.406684,253.05405 331.105501,252.388666 331.105501,251.057877 C331.105501,249.660548 330.406684,248.961894 329.009028,248.961894 L303.252353,248.961894 C299.12594,248.961894 297.062764,250.42574 297.062764,253.353476 C297.062764,255.28312 297.56192,257.246005 298.560245,259.242188 C301.821443,265.696515 305.448639,273.847475 309.441941,283.695314 C313.967685,294.807402 317.328664,303.124709 319.524981,308.647483 C320.523306,311.109443 321.022462,313.172135 321.022462,314.835621 C321.022462,316.698726 320.556583,318.328918 319.624813,319.726246 C317.694716,322.587442 314.666507,324.018019 310.540094,324.018019 L288.876534,324.018019 L288.876534,318.728159 L310.440262,318.728159 C311.172368,318.728159 312.004293,318.561813 312.936064,318.229116 C314.73305,317.630261 315.63153,316.499107 315.63153,314.835621 C315.63153,313.637911 315.29876,312.240603 314.633209,310.643657 C302.986076,282.830166 296.031178,266.428438 293.768306,261.437979 C292.437205,258.510243 291.771665,255.815436 291.771665,253.353476 C291.771665,250.159583 292.903083,247.69766 295.165955,245.967634 C297.162606,244.437227 299.858045,243.672035 303.252353,243.672035 Z M381.221202,243.672035 L384.315996,243.672035 L405.580227,286.589766 L377.926743,286.589766 C376.529087,286.589766 375.83027,287.25515 375.83027,288.585939 C375.83027,289.983268 376.529087,290.681921 377.926743,290.681921 L407.676701,290.681921 L421.653191,318.728159 L450.566758,318.728159 L450.566758,324.018019 L418.458565,324.018019 L404.382243,295.971781 L377.926743,295.971781 C375.796982,295.971781 374.049938,295.273127 372.68556,293.875799 C371.321181,292.47847 370.639002,290.715201 370.639002,288.585939 C370.639002,286.390137 371.304543,284.626868 372.635643,283.296079 C373.966744,281.96529 375.730427,281.299906 377.926743,281.299906 L397.094501,281.299906 L382.618851,252.355389 L346.779137,324.018019 L340.988876,324.018019 L340.988876,318.728159 L343.484678,318.728159 L381.221202,243.672035 Z" id="FORZA" fill="#FFFFFF" transform="translate(253.393169, 283.845027) rotate(90.000000) translate(-253.393169, -283.845027) "></path>
        </g>
    </g>
</svg>