<?xml version="1.0" encoding="UTF-8"?>
<svg width="237px" height="140px" viewBox="0 0 237 140" version="1.1" xmlns="http://www.w3.org/2000/svg" xmlns:xlink="http://www.w3.org/1999/xlink">
    <!-- Generator: Sketch 55.2 (78181) - https://sketchapp.com -->
    <title>Group 7</title>
    <desc>Created with Sketch.</desc>
    <g id="Final-Website" stroke="none" stroke-width="1" fill="none" fill-rule="evenodd">
        <g id="About-us" transform="translate(-554.000000, -4965.000000)">
            <g id="Group-20" transform="translate(267.000000, 4901.000000)">
                <g id="Group-7" transform="translate(287.000000, 64.000000)">
                    <path d="M117.855,-8.91 L164.43,68.85 L117.855,146.61 L71.28,68.85 L117.855,-8.91 Z M117.855,6.642 L80.595,68.85 L117.855,131.058 L155.115,68.85 L117.855,6.642 Z" id="Combined-Shape" fill="#DF4E45" transform="translate(117.855000, 68.850000) rotate(-90.000000) translate(-117.855000, -68.850000) "></path>
                    <path d="M120.201907,155.96788 L132.331252,176.238714 L127.666478,184.026498 L120.201907,171.551239 L110.406893,187.92 L105.742119,180.132216 L120.201907,155.96788 Z M70.4691868,74.9344103 L117.093612,152.851208 L103.099291,176.237935 L98.4345172,168.450151 L107.768727,152.851208 L70.4691868,90.5177698 L61.116327,106.147879 L56.4515533,98.3600954 L70.4691868,74.9344103 Z M168.38048,74.9344103 L180.068447,94.4665931 L175.403673,102.254377 L168.38048,90.5177698 L131.08094,152.851208 L138.085483,164.556648 L133.420709,172.344432 L121.756055,152.851208 L168.38048,74.9344103 Z M53.2647738,43.325903 L68.9150393,69.4802344 L53.4978959,95.2449819 L48.8331221,87.457198 L59.5901542,69.4802344 L48.6,51.1136869 L53.2647738,43.325903 Z M183.255226,47.9993525 L187.92,55.7871364 L179.259513,70.2594024 L187.686101,84.3420844 L183.021327,92.1298683 L169.934628,70.2594024 L183.255226,47.9993525 Z M103.099291,-36.4982977 L117.093612,-13.1115709 L70.4691868,64.8052266 L56.4515533,41.3795414 L61.116327,33.5917575 L70.4691868,49.2218671 L107.768727,-13.1115709 L98.4345172,-28.7105138 L103.099291,-36.4982977 Z M134.197006,-32.3437741 L138.861779,-24.5559901 L131.08094,-11.553235 L168.38048,50.780203 L176.17997,37.7462811 L180.844743,45.5340651 L168.38048,66.3635625 L121.756055,-11.553235 L134.197006,-32.3437741 Z M110.329962,-47.79 L119.424834,-32.5907703 L126.190038,-43.8964976 L130.854811,-36.1087137 L119.424834,-17.0074108 L105.665189,-40.0022161 L110.329962,-47.79 Z" id="Shape" fill="#DF4E45" transform="translate(118.260000, 70.065000) rotate(-90.000000) translate(-118.260000, -70.065000) "></path>
                    <path d="M117.814414,96.39 C122.546994,96.39 126.815373,95.2315324 130.619552,92.9145971 C134.423731,90.5976618 137.458017,87.316288 139.722409,83.0704756 L139.722409,83.0704756 L133.948209,83.0704756 C131.910256,85.9238441 129.51,88.0695773 126.747441,89.507675 C123.984883,90.9457728 120.893987,91.6648217 117.474755,91.6648217 C111.926994,91.6648217 107.211397,89.5989828 103.327964,85.4673052 C99.4445309,81.3356275 97.5028145,76.2566314 97.5028145,70.230317 C97.5028145,64.5692338 99.4558529,59.6842668 103.36193,55.5754161 C107.268006,51.4665654 111.972281,49.41214 117.474755,49.41214 C120.984563,49.41214 124.109424,50.1426024 126.849339,51.6035271 C129.589254,53.0644518 132.068763,55.3471466 134.287868,58.4516116 L134.287868,58.4516116 L140.13,58.4516116 C137.842964,54.0231836 134.735085,50.5991413 130.806365,48.1794848 C126.877644,45.7598283 122.456418,44.55 117.542687,44.55 C114.123454,44.55 110.947644,45.1606209 108.015256,46.3818626 C105.082868,47.6031044 102.43919,49.4007266 100.084222,51.7747292 C97.5481023,54.2856935 95.6233689,57.1048217 94.3100213,60.2321136 C92.9966738,63.3594055 92.34,66.6693131 92.34,70.1618362 C92.34,77.6490753 94.7685608,83.8922457 99.6256823,88.8913474 C104.482804,93.8904491 110.545714,96.39 117.814414,96.39 Z" id="C" fill="#3C4893" fill-rule="nonzero"></path>
                    <path d="M118.183739,86.67 C122.643188,86.67 126.405393,85.1747457 129.470356,82.1842371 C132.535319,79.1937285 134.198534,75.3733355 134.46,70.7230581 L134.46,70.7230581 L114.741103,70.7230581 L114.741103,73.5527081 L130.755898,73.5527081 C130.058655,76.5359049 128.558857,78.9634082 126.256503,80.835218 C123.954149,82.7070277 121.350383,83.6429326 118.445205,83.6429326 C114.755629,83.6429326 111.654351,82.3341281 109.141372,79.7165192 C106.628393,77.0989102 105.371903,73.8305548 105.371903,69.9114531 C105.371903,66.2263276 106.632024,63.0713045 109.152266,60.4463838 C111.672508,57.821463 114.755629,56.5090026 118.401627,56.5090026 C120.507882,56.5090026 122.414405,56.9659875 124.121197,57.8799571 C125.827989,58.7939267 127.429469,60.2087517 128.925636,62.124432 L128.925636,62.124432 L132.760471,62.124432 C131.27883,59.3459643 129.314203,57.2072754 126.86659,55.7083653 C124.418978,54.2094551 121.655427,53.46 118.575938,53.46 C116.251796,53.46 114.138278,53.8402114 112.235387,54.6006341 C110.332495,55.3610568 108.596651,56.5236262 107.027855,58.0883421 C105.400955,59.6969287 104.166254,61.5029326 103.323753,63.506354 C102.481251,65.5097754 102.06,67.6301849 102.06,69.8675826 C102.06,74.6348481 103.603376,78.6270674 106.690128,81.8442404 C109.77688,85.0614135 113.608083,86.67 118.183739,86.67 Z" id="G" fill="#DF4E45" fill-rule="nonzero"></path>
                </g>
            </g>
        </g>
    </g>
</svg>