<?xml version="1.0" encoding="UTF-8"?>
<svg width="68px" height="68px" viewBox="0 0 68 68" version="1.1" xmlns="http://www.w3.org/2000/svg" xmlns:xlink="http://www.w3.org/1999/xlink">
    <!-- Generator: Sketch 63.1 (92452) - https://sketch.com -->
    <title>Group 2</title>
    <desc>Created with Sketch.</desc>
    <g id="Final-Website" stroke="none" stroke-width="1" fill="none" fill-rule="evenodd">
        <g id="Landing-white" transform="translate(-1759.000000, -72.000000)">
            <path d="M1948.07373,36.1124662 C1983.20399,34.6167988 1996.35,50.3441214 1987.51175,83.2944339 C2005.0617,90.3823762 2014.84654,96.6438989 2016.87134,102.084072 C2030.37168,89.1199316 2039.49846,89.4190651 2044.25674,102.986543 C2092.53807,77.8035602 2119.77668,84.1005733 2125.97256,121.877582 C2135.45874,125.578725 2140.2069,129.122696 2140.2069,132.509495 C2167.04054,122.962574 2182.57075,126.455845 2186.7874,142.974097 L2187,147.030144 L1464,151 C1470.38824,127.571258 1482.12701,115.854352 1499.22138,115.854352 C1524.86039,115.854352 1521.10945,96.9582426 1542.1623,102.601218 C1563.21515,108.239124 1544.41489,64.5098659 1582.68865,93.3432906 C1602.89614,61.1889773 1628.87937,63.1155997 1660.64341,99.1332978 C1683.13892,84.6887001 1697.98576,86.3415393 1705.18898,104.101956 C1718.28943,93.6829846 1728.78295,90.7879809 1736.66448,95.4169447 C1735.44454,76.9720705 1744.69787,70.4266246 1764.42447,75.7755367 C1772.04278,41.0608436 1791.2075,34.6928497 1821.91357,56.6563447 C1837.21599,18.8844062 1862.07546,8.90653031 1896.48186,26.7176471 C1925.92749,4.34854739 1943.12816,7.47677371 1948.07373,36.1124662 Z" id="Path-Copy-3" fill="#ECE9E9" opacity="0.173967634" transform="translate(1825.500000, 81.500000) scale(-1, 1) translate(-1825.500000, -81.500000) "></path>
            <g id="Group-2" transform="translate(1760.000000, 73.000000)" stroke="#4A4A47" stroke-width="2">
                <path d="M33,66 C51.2253967,66 66,51.2253967 66,33 C66,14.7746033 51.2253967,0 33,0 C14.7746033,0 0,14.7746033 0,33 C0,51.2253967 14.7746033,66 33,66 Z M16.5,26.25 L36.1890393,26.25 M16.5,33.75 L50.25,33.75 M16.5,42 L36.1890393,42" id="Combined-Shape"></path>
            </g>
        </g>
    </g>
</svg>