
<svg viewBox="0 0 747 379" version="1.1" xmlns="http://www.w3.org/2000/svg" xmlns:xlink="http://www.w3.org/1999/xlink">
    <g id="Final-Website" stroke="none" stroke-width="1" fill="none" fill-rule="evenodd">
        <g id="About-us" transform="translate(-987.000000, -3529.000000)">
            <g id="Group-15" transform="translate(1360.941823, 3724.617433) rotate(-2.000000) translate(-1360.941823, -3724.617433) translate(975.441823, 3540.117433)">
                <g id="planes-copy-2" transform="translate(626.000000, 32.500000) scale(-1, 1) translate(-626.000000, -32.500000) translate(549.000000, 0.000000)">
                    <polygon id="Path" fill="#E8291B" points="0 0 67.6404802 57.6 153.6 38.39989"></polygon>
                    <polygon id="Path" fill="#E2392C" points="1.2 0 8.31491453 3.99451393 104.119438 53.6 113.722681 48.0522957 153.6 38.7087938"></polygon>
                    <path d="M105.6,58.0604834 C105.6,58.0604834 100.711986,64.8187106 100.039501,64.3794817 C90.5972961,58.2169144 19.2533353,10.4929072 18.0155275,9.61428637 C16.6895066,8.67309308 100.734563,54.5498291 100.734563,54.5498291 L105.6,58.0604834 Z" id="Path" fill="#901E15"></path>
                    <polygon id="Path" fill="#F85F54" points="0 1.6 112.4 47.4613554 100.465079 63.2"></polygon>
                </g>
                <g id="planes-copy-3" transform="translate(612.124156, 179.085378) scale(-1, 1) rotate(4.000000) translate(-612.124156, -179.085378) translate(458.124156, 114.585378)">
                    <polygon id="Path" fill="#E8291B" points="0 0 135.28096 115.2 307.2 76.79978"></polygon>
                    <polygon id="Path" fill="#E2392C" points="2.4 0 16.6298291 7.98902786 208.238876 107.2 227.445362 96.1045914 307.2 77.4175875"></polygon>
                    <path d="M211.2,116.120967 C211.2,116.120967 201.423972,129.637421 200.079002,128.758963 C181.194592,116.433829 38.5066706,20.9858145 36.0310551,19.2285727 C33.3790131,17.3461862 201.469127,109.099658 201.469127,109.099658 L211.2,116.120967 Z" id="Path" fill="#901E15"></path>
                    <polygon id="Path" fill="#F85F54" points="0 3.2 224.8 94.9227109 200.930158 126.4"></polygon>
                </g>
                <g id="planes-copy-5" transform="translate(198.000000, 274.500000) scale(-1, 1) rotate(4.000000) translate(-198.000000, -274.500000) translate(6.000000, 194.000000)">
                    <polygon id="Path" fill="#E8291B" points="0 0 169.1012 144 384 95.9997249"></polygon>
                    <polygon id="Path" fill="#E2392C" points="3 0 20.7872863 9.98628482 260.298595 134 284.306702 120.130739 384 96.7719844"></polygon>
                    <path d="M264,145.151208 C264,145.151208 251.779965,162.046777 250.098752,160.948704 C226.49324,145.542286 48.1333382,26.2322681 45.0388189,24.0357159 C41.7237664,21.6827327 251.836408,136.374573 251.836408,136.374573 L264,145.151208 Z" id="Path" fill="#901E15"></path>
                    <polygon id="Path" fill="#F85F54" points="0 4 281 118.653389 251.162697 158"></polygon>
                </g>
                <g id="planes-copy-4" transform="translate(317.124156, 82.085378) scale(-1, 1) rotate(4.000000) translate(-317.124156, -82.085378) translate(163.124156, 17.585378)">
                    <polygon id="Path" fill="#E8291B" points="0 0 135.28096 115.2 307.2 76.79978"></polygon>
                    <polygon id="Path" fill="#E2392C" points="2.4 0 16.6298291 7.98902786 208.238876 107.2 227.445362 96.1045914 307.2 77.4175875"></polygon>
                    <path d="M211.2,116.120967 C211.2,116.120967 201.423972,129.637421 200.079002,128.758963 C181.194592,116.433829 38.5066706,20.9858145 36.0310551,19.2285727 C33.3790131,17.3461862 201.469127,109.099658 201.469127,109.099658 L211.2,116.120967 Z" id="Path" fill="#901E15"></path>
                    <polygon id="Path" fill="#F85F54" points="0 3.2 224.8 94.9227109 200.930158 126.4"></polygon>
                </g>
            </g>
        </g>
    </g>
</svg>