<?xml version="1.0" encoding="UTF-8"?>
<svg width="112px" height="47px" viewBox="0 0 112 47" version="1.1" xmlns="http://www.w3.org/2000/svg" xmlns:xlink="http://www.w3.org/1999/xlink">
    <!-- Generator: Sketch 63.1 (92452) - https://sketch.com -->
    <title>planes copy 2</title>
    <desc>Created with Sketch.</desc>
    <g id="Final-Website" stroke="none" stroke-width="1" fill="none" fill-rule="evenodd">
        <g id="About-us" transform="translate(-353.000000, -3495.000000)">
            <rect id="Rectangle-Copy" fill="#333232" x="-23" y="3240" width="1967" height="1271"></rect>
            <g id="planes-copy-2" transform="translate(409.000000, 3518.500000) scale(-1, 1) translate(-409.000000, -3518.500000) translate(353.000000, 3495.000000)">
                <polygon id="Path" fill="#E8291B" points="0 0 49.3211835 42 112 27.9999198"></polygon>
                <polygon id="Path" fill="#E2392C" points="1 0 6.18212279 2.90645603 75.961008 39 82.955496 34.9634241 112 28.1649805"></polygon>
                <path d="M77,42.3726156 C77,42.3726156 73.4288481,47.3056282 72.9375349,46.9850231 C66.0391205,42.4867988 13.9156787,7.65175711 13.0113443,7.010428 C12.0425619,6.32342561 73.4453431,39.8100943 73.4453431,39.8100943 L77,42.3726156 Z" id="Path" fill="#901E15"></path>
                <polygon id="Path" fill="#F85F54" points="0 1 82 34.5026135 73.2930291 46"></polygon>
            </g>
        </g>
    </g>
</svg>