
<svg width="1224px" height="204px" viewBox="0 0 1224 204" version="1.1" xmlns="http://www.w3.org/2000/svg" xmlns:xlink="http://www.w3.org/1999/xlink">
    <g id="Final-Website" stroke="none" stroke-width="1" fill="none" fill-rule="evenodd">
        <g id="Dark-Theme-Copy" transform="translate(-348.000000, -2321.000000)">
            <g id="Group-5" transform="translate(350.000000, 2321.000000)">
                <g id="planes-copy-2" transform="translate(658.000000, 85.000000) scale(-1, 1) translate(-658.000000, -85.000000) translate(457.000000, 0.000000)">
                    <polygon id="Path" fill="#E8291B" points="0 0.848214286 177.027819 151.848214 402 101.514593"></polygon>
                    <polygon id="Path" fill="#E2392C" points="4 0.848214286 22.5809448 11.2816462 272.77911 140.848214 297.858445 126.357942 402 101.953273"></polygon>
                    <path d="M277,153.18963 C277,153.18963 264.166173,170.948476 262.400516,169.794298 C237.609339,153.60069 50.2907205,28.1945399 47.0407687,25.8857551 C43.5592067,23.4125465 264.225452,143.964554 264.225452,143.964554 L277,153.18963 Z" id="Path" fill="#901E15"></path>
                    <polygon id="Path" fill="#F85F54" points="0 3.84821429 294 124.457623 262.782324 165.848214"></polygon>
                </g>
                <path d="M111.791559,198.75 L111.791559,161.578125 L47.794942,161.578125 L47.794942,56.5625 L0,56.5625 L0,198.75 L111.791559,198.75 Z M243.028069,198.75 L243.028069,162.59375 L172.145739,162.59375 L172.145739,143.90625 L232.091938,143.90625 L232.091938,109.375 L172.145739,109.375 L172.145739,92.71875 L240.395296,92.71875 L240.395296,56.5625 L125.160881,56.5625 L125.160881,198.75 L243.028069,198.75 Z M340.24106,198.75 L340.24106,93.734375 L381.757853,93.734375 L381.757853,56.5625 L250.929325,56.5625 L250.929325,93.734375 L292.446118,93.734375 L292.446118,198.75 L340.24106,198.75 Z M422.264981,128.875 L436.441447,98.609375 C439.816796,91.4322917 441.977019,86.0833333 442.922117,82.5625 C443.867214,79.0416667 444.339763,75.5208333 444.339763,72 C444.339763,64.1458333 441.842005,57.8489583 436.846488,53.109375 C431.850972,48.3697917 425.437809,46 417.606999,46 C409.776189,46 403.363026,48.3697917 398.36751,53.109375 C393.371993,57.8489583 390.874235,64.1458333 390.874235,72 C390.874235,77.28125 392.021854,81.8515625 394.317091,85.7109375 C396.612328,89.5703125 399.852663,92.515625 404.038096,94.546875 L404.038096,94.546875 L393.912049,128.875 L422.264981,128.875 Z M515.022511,202 C529.198977,202 541.248973,199.867187 551.172499,195.601562 C561.096025,191.335938 568.555547,185.580729 573.551063,178.335937 C578.54658,171.091146 581.044338,163 581.044338,154.0625 C581.044338,143.770833 578.310305,135.645833 572.84224,129.6875 C567.374174,123.729167 560.927258,119.429687 553.50149,116.789062 C546.075722,114.148437 536.96228,111.8125 526.161163,109.78125 C517.790297,108.15625 511.782176,106.632812 508.136799,105.210937 C504.491422,103.789062 502.668734,101.65625 502.668734,98.8125 C502.668734,92.8541667 508.811869,89.875 521.09814,89.875 C533.519424,89.875 546.683285,93.3958333 560.589723,100.4375 L560.589723,100.4375 L574.96871,65.703125 C567.81297,61.640625 559.543365,58.5598958 550.159894,56.4609375 C540.776424,54.3619792 531.224187,53.3125 521.503181,53.3125 C507.326716,53.3125 495.27672,55.4114583 485.353193,59.609375 C475.429667,63.8072917 467.970146,69.5625 462.97463,76.875 C457.979113,84.1875 455.481355,92.3125 455.481355,101.25 C455.481355,111.541667 458.181634,119.700521 463.582192,125.726563 C468.982751,131.752604 475.328407,136.085937 482.619161,138.726562 C489.909915,141.367187 499.023357,143.838542 509.959488,146.140625 C518.465367,147.901042 524.574749,149.526042 528.287633,151.015625 C532.000517,152.505208 533.856959,154.739583 533.856959,157.71875 C533.856959,160.291667 532.439312,162.221354 529.604019,163.507813 C526.768726,164.794271 522.043237,165.4375 515.427553,165.4375 C507.731757,165.4375 499.698427,164.252604 491.327561,161.882812 C482.956696,159.513021 475.395914,156.364583 468.645216,152.4375 L468.645216,152.4375 L453.253624,187.375 C460.409364,191.84375 469.55656,195.398437 480.695212,198.039063 C491.833864,200.679688 503.276297,202 515.022511,202 Z M734.966132,198.75 L734.966132,93.734375 L776.482925,93.734375 L776.482925,56.5625 L645.654398,56.5625 L645.654398,93.734375 L687.17119,93.734375 L687.17119,198.75 L734.966132,198.75 Z M815.167365,198.75 L824.685849,173.96875 L878.556419,173.96875 L888.074903,198.75 L937.490013,198.75 L875.518605,56.5625 L828.533747,56.5625 L766.562339,198.75 L815.167365,198.75 Z M865.392558,139.4375 L837.84971,139.4375 L851.621134,103.6875 L865.392558,139.4375 Z M1057.18283,198.75 L1057.18283,161.578125 L993.186211,161.578125 L993.186211,56.5625 L945.391269,56.5625 L945.391269,198.75 L1057.18283,198.75 Z M1117.53701,198.75 L1117.53701,163.609375 L1128.27062,151.625 L1163.71178,198.75 L1219,198.75 L1159.45884,119.125 L1216.16471,56.5625 L1164.11683,56.5625 L1117.53701,108.15625 L1117.53701,56.5625 L1070.55215,56.5625 L1070.55215,198.75 L1117.53701,198.75 Z" id="LET’STALK" stroke="#FF5F4B" stroke-width="2.7" fill-rule="nonzero"></path>
            </g>
        </g>
    </g>
</svg>