
<svg viewBox="0 0 585 160" version="1.1" xmlns="http://www.w3.org/2000/svg" xmlns:xlink="http://www.w3.org/1999/xlink">
    <g id="Final-Website" stroke="none" stroke-width="1" fill="none" fill-rule="evenodd">
        <g id="Landing-white-Copy" transform="translate(-348.000000, -2365.000000)" fill-rule="nonzero" stroke="#FF5F4B" stroke-width="2.7">
            <g id="Group-5" transform="translate(350.000000, 2321.000000)">
                <polygon id="Path" points="111.791559 198.75 111.791559 161.578125 47.794942 161.578125 47.794942 56.5625 0 56.5625 0 198.75"></polygon>
                <polygon id="Path" points="243.028069 198.75 243.028069 162.59375 172.145739 162.59375 172.145739 143.90625 232.091938 143.90625 232.091938 109.375 172.145739 109.375 172.145739 92.71875 240.395296 92.71875 240.395296 56.5625 125.160881 56.5625 125.160881 198.75"></polygon>
                <polygon id="Path" points="340.24106 198.75 340.24106 93.734375 381.757853 93.734375 381.757853 56.5625 250.929325 56.5625 250.929325 93.734375 292.446118 93.734375 292.446118 198.75"></polygon>
                <path d="M422.264981,128.875 L436.441447,98.609375 C439.816796,91.4322917 441.977019,86.0833333 442.922117,82.5625 C443.867214,79.0416667 444.339763,75.5208333 444.339763,72 C444.339763,64.1458333 441.842005,57.8489583 436.846488,53.109375 C431.850972,48.3697917 425.437809,46 417.606999,46 C409.776189,46 403.363026,48.3697917 398.36751,53.109375 C393.371993,57.8489583 390.874235,64.1458333 390.874235,72 C390.874235,77.28125 392.021854,81.8515625 394.317091,85.7109375 C396.612328,89.5703125 399.852663,92.515625 404.038096,94.546875 L404.038096,94.546875 L393.912049,128.875 L422.264981,128.875 Z" id="Path"></path>
                <path d="M515.022511,202 C529.198977,202 541.248973,199.867187 551.172499,195.601562 C561.096025,191.335938 568.555547,185.580729 573.551063,178.335937 C578.54658,171.091146 581.044338,163 581.044338,154.0625 C581.044338,143.770833 578.310305,135.645833 572.84224,129.6875 C567.374174,123.729167 560.927258,119.429687 553.50149,116.789062 C546.075722,114.148437 536.96228,111.8125 526.161163,109.78125 C517.790297,108.15625 511.782176,106.632812 508.136799,105.210937 C504.491422,103.789062 502.668734,101.65625 502.668734,98.8125 C502.668734,92.8541667 508.811869,89.875 521.09814,89.875 C533.519424,89.875 546.683285,93.3958333 560.589723,100.4375 L560.589723,100.4375 L574.96871,65.703125 C567.81297,61.640625 559.543365,58.5598958 550.159894,56.4609375 C540.776424,54.3619792 531.224187,53.3125 521.503181,53.3125 C507.326716,53.3125 495.27672,55.4114583 485.353193,59.609375 C475.429667,63.8072917 467.970146,69.5625 462.97463,76.875 C457.979113,84.1875 455.481355,92.3125 455.481355,101.25 C455.481355,111.541667 458.181634,119.700521 463.582192,125.726563 C468.982751,131.752604 475.328407,136.085937 482.619161,138.726562 C489.909915,141.367187 499.023357,143.838542 509.959488,146.140625 C518.465367,147.901042 524.574749,149.526042 528.287633,151.015625 C532.000517,152.505208 533.856959,154.739583 533.856959,157.71875 C533.856959,160.291667 532.439312,162.221354 529.604019,163.507813 C526.768726,164.794271 522.043237,165.4375 515.427553,165.4375 C507.731757,165.4375 499.698427,164.252604 491.327561,161.882812 C482.956696,159.513021 475.395914,156.364583 468.645216,152.4375 L468.645216,152.4375 L453.253624,187.375 C460.409364,191.84375 469.55656,195.398437 480.695212,198.039063 C491.833864,200.679688 503.276297,202 515.022511,202 Z" id="Path"></path>
            </g>
        </g>
    </g>
</svg>