<?xml version="1.0" encoding="UTF-8"?>
<svg width="120px" height="48px" viewBox="0 0 225 48" version="1.1" xmlns="http://www.w3.org/2000/svg" xmlns:xlink="http://www.w3.org/1999/xlink">
    <!-- Generator: Sketch 63.1 (92452) - https://sketch.com -->
    <title>Group</title>
    <desc>Created with Sketch.</desc>
    <defs>
        <linearGradient x1="49.9558279%" y1="38.4182461%" x2="50.1394665%" y2="87.6402184%" id="linearGradient-1">
            <stop stop-color="#FF8A77" offset="2.0955e-11%"></stop>
            <stop stop-color="#FF5F4B" offset="100%"></stop>
        </linearGradient>
        <linearGradient x1="56.3616333%" y1="45.4317715%" x2="28.7693795%" y2="65.2693228%" id="linearGradient-2">
            <stop stop-color="#FF5F4B" offset="0%"></stop>
            <stop stop-color="#FF3C26" offset="81.69%"></stop>
        </linearGradient>
        <linearGradient x1="104.890925%" y1="49.7604526%" x2="4.89049364%" y2="50.1934461%" id="linearGradient-3">
            <stop stop-color="#FF8A77" offset="39.24%"></stop>
            <stop stop-color="#FF5F4B" offset="100%"></stop>
        </linearGradient>
        <linearGradient x1="61.0743695%" y1="70.1275579%" x2="100.978013%" y2="19.0486316%" id="linearGradient-4">
            <stop stop-color="#FF5F4B" offset="0%"></stop>
            <stop stop-color="#FF3C26" offset="100%"></stop>
        </linearGradient>
        <linearGradient x1="57.1103548%" y1="82.7671642%" x2="37.8016646%" y2="-6.43333333%" id="linearGradient-5">
            <stop stop-color="#FF5F4B" offset="0%"></stop>
            <stop stop-color="#E52E20" offset="100%"></stop>
        </linearGradient>
        <linearGradient x1="0.00723043068%" y1="49.9717436%" x2="99.9874253%" y2="49.9717436%" id="linearGradient-6">
            <stop stop-color="#FF8A77" offset="18.2%"></stop>
            <stop stop-color="#FF5F4B" offset="100%"></stop>
        </linearGradient>
        <linearGradient x1="97.1133721%" y1="40.5862909%" x2="-5.23546512%" y2="56.9007659%" id="linearGradient-7">
            <stop stop-color="#FF8A77" offset="15.06%"></stop>
            <stop stop-color="#FF5F4B" offset="61.01%"></stop>
        </linearGradient>
        <linearGradient x1="65.7304258%" y1="40.3908485%" x2="93.0897196%" y2="-5.21550321%" id="linearGradient-8">
            <stop stop-color="#FF5F4B" offset="19.57%"></stop>
            <stop stop-color="#FF3C26" offset="75.6%"></stop>
        </linearGradient>
    </defs>
    <g id="Final-Website" stroke="none" stroke-width="1" fill="none" fill-rule="evenodd">
        <g id="Landing-white" transform="translate(-143.000000, -82.000000)">
            <g id="Group" transform="translate(143.000000, 82.000000)">
                <g transform="translate(0.000000, 2.909091)">
                    <g transform="translate(93.450479, 0.000000)" id="Path">
                        <polyline fill="url(#linearGradient-1)" points="0.0143769968 42.8581818 11.0271565 42.8581818 11.0271565 20.2181818 0.0143769968 30.7709091"></polyline>
                        <path d="M35.0798722,42.8581818 L26.5255591,28.0727273 C30.5223642,25.3236364 33.3690096,20.7418182 33.3690096,15.5490909 C33.3690096,7.14181818 26.5111821,0.327272727 18.0503195,0.327272727 L0.0143769968,0.327272727 L0.0143769968,20.2109091 L11.0271565,20.2109091 L11.0271565,10.88 L17.7915335,10.88 C20.336262,10.88 22.399361,12.9745455 22.399361,15.5490909 C22.399361,18.1236364 20.3290735,20.2109091 17.7915335,20.2109091 L11.0271565,20.2109091 L11.0271565,30.7636364 L15.6421725,30.7636364 L22.6365815,42.8509091 L35.0798722,42.8509091 L35.0798722,42.8581818 Z" fill="url(#linearGradient-2)"></path>
                        <path d="M18.0503195,0.334545455 L0.0143769968,0.334545455 L0.0143769968,20.2181818 L11.0271565,20.2181818 L11.0271565,10.8872727 L17.7915335,10.8872727 C20.336262,10.8872727 26.5039936,0.334545455 18.0503195,0.334545455 Z" fill="#FF5F4B"></path>
                    </g>
                    <g transform="translate(142.332268, 0.000000)" id="Path">
                        <polygon fill="url(#linearGradient-3)" points="33.3474441 10.8872727 0 10.8872727 0 0.334545455 22.3346645 0.334545455"></polygon>
                        <polygon fill="url(#linearGradient-4)" points="33.3474441 10.8872727 19.4017572 10.8872727 0 36.0363636 0 42.8581818 32.3913738 42.8581818 32.3913738 32.3054545 17.0223642 32.3054545"></polygon>
                    </g>
                    <g>
                        <polygon id="Path" fill="#FF5F4B" points="0.0646964856 0.334545455 0.0646964856 17.6872727 11.0846645 17.6872727 11.0846645 10.8872727 29.8969649 10.8872727 29.8969649 0.334545455"></polygon>
                        <rect id="Rectangle" fill="url(#linearGradient-5)" x="0.0646964856" y="28.24" width="11.0127796" height="14.6181818"></rect>
                        <polygon id="Path" fill="url(#linearGradient-6)" points="11.0846645 17.6872727 0.0646964856 28.24 22.9313099 28.24 22.9313099 17.6872727"></polygon>
                    </g>
                    <g transform="translate(189.057508, 0.000000)" id="Path">
                        <path d="M17.956869,10.8872727 L35.2667732,10.8872727 L35.2667732,10.8218182 L24.2539936,0.334545455 L17.956869,0.334545455 C8.39616613,0.334545455 0.646964856,8.32 0.646964856,18.1672727 L0.646964856,24.0654545 L11.6597444,24.0654545 L11.6597444,17.2581818 C11.6597444,13.7454545 14.4848243,10.8872727 17.956869,10.8872727 Z" fill="url(#linearGradient-7)"></path>
                        <path d="M24.2539936,10.8872727 L24.2539936,24.0581818 L11.6669329,24.0581818 C11.39377,18.0581818 0.654153355,19.5418182 0.654153355,24.0581818 C0.654153355,28.5745455 0.654153355,42.8509091 0.654153355,42.8509091 L11.6669329,42.8509091 L11.6669329,34 L24.2539936,34 L24.2539936,42.8509091 L35.2667732,42.8509091 L35.2667732,10.88 L24.2539936,10.88 L24.2539936,10.8872727 Z" fill="url(#linearGradient-8)"></path>
                    </g>
                </g>
                <g transform="translate(35.942492, 0.000000)" id="Path">
                    <path d="M45.0790735,14.8 C43.1597444,10.1890909 38.0990415,3.99272727 34.7060703,3.99272727 C33.1389776,3.99272727 31.7300319,4.99636364 31.2052716,6.48 C30.6517572,8.05818182 31.1908946,9.77454545 32.6214058,10.9454545 C39.1126198,16.2763636 40.557508,22.9672727 38.5087859,29.0181818 C36.3450479,35.4036364 30.4145367,39.6872727 23.7651757,39.6872727 L23.7220447,39.6872727 L23.6789137,39.6872727 C17.0223642,39.6872727 11.0990415,35.3963636 8.93530351,29.0181818 C6.87939297,22.9672727 8.33146965,16.2763636 14.8226837,10.9454545 C16.2460064,9.77454545 16.7923323,8.06545455 16.2388179,6.48 C15.7140575,4.98909091 14.3123003,3.99272727 12.7380192,3.99272727 C9.33785942,3.99272727 4.28434505,10.1890909 2.36501597,14.8 C-0.474440895,21.6072727 -0.0431309904,29.1636364 3.54392971,35.5272727 C7.13817891,41.9054545 13.3634185,46.1454545 20.6238019,47.1490909 C21.6301917,47.2872727 22.64377,47.36 23.7292332,47.36 L23.7364217,47.36 L23.7220447,47.36 C24.807508,47.3527273 25.8210863,47.2872727 26.827476,47.1490909 C34.0878594,46.1454545 40.313099,41.9127273 43.9073482,35.5272727 C47.4872204,29.1636364 47.9185304,21.6072727 45.0790735,14.8 Z" fill="#FF5F4B"></path>
                    <g transform="translate(12.220447, 0.000000)">
                        <polygon fill="#FF5F4B" points="22.8306709 27.1709091 13.2052716 25.8763636 9.71884984 25.8763636 0.0934504792 27.1709091 11.4584665 0.0436363636"></polygon>
                        <g transform="translate(9.345048, 0.000000)">
                            <polygon fill="#A70C00" points="2.10623003 0.0436363636 0.373801917 25.8763636 2.11341853 28.7636364 2.12779553 28.7490909 2.12779553 0.0436363636"></polygon>
                            <polygon fill="#D23317" points="2.12779553 0.0436363636 2.12779553 28.7490909 3.86022364 25.8763636"></polygon>
                        </g>
                    </g>
                </g>
            </g>
        </g>
    </g>
</svg>