<?xml version="1.0" encoding="UTF-8"?>
<svg width="76px" height="76px" viewBox="0 0 76 76" version="1.1" xmlns="http://www.w3.org/2000/svg" xmlns:xlink="http://www.w3.org/1999/xlink">
    <!-- Generator: Sketch 63.1 (92452) - https://sketch.com -->
    <title>Group</title>
    <desc>Created with Sketch.</desc>
    <g id="Final-Website" stroke="none" stroke-width="1" fill="none" fill-rule="evenodd">
        <g id="About-us" transform="translate(-115.000000, -54.000000)">
            <rect id="Rectangle" fill="#FFFFFF" x="0" y="0" width="1920" height="2160"></rect>
            <g id="Group" transform="translate(115.000000, 54.000000)">
                <path d="M72.9792,23.4434876 C69.8478566,16.0215285 61.5856373,6 56.002037,6 C53.436599,6 51.1352503,7.62002153 50.2675286,10.0312164 C49.3620799,12.5931109 50.2298016,15.34338 52.5688774,17.2271259 C63.1701725,25.8170075 65.5469753,36.6297094 62.1892697,46.3875135 C58.642929,56.6727664 48.9470826,63.6049516 38.0816983,63.6049516 L38.0062442,63.6049516 L37.9307901,63.6049516 C27.0654058,63.6049516 17.3695594,56.6727664 13.8232187,46.3875135 C10.4655131,36.6297094 12.8423159,25.8170075 23.443611,17.2271259 C25.7826868,15.34338 26.6504085,12.5931109 25.7449598,10.0312164 C24.8772381,7.62002153 22.5758894,6 20.0104514,6 C14.4645781,6 6.20235881,15.9838536 3.03328838,23.4434876 C-1.60713618,34.444564 -0.89032263,46.613563 4.95736685,56.8988159 C10.8427834,67.1840689 20.9913542,74.0409042 32.8753683,75.6609257 C34.5353575,75.8869752 36.1576198,76 37.9307901,76 L37.9307901,76 L37.9307901,76 C39.7039605,76 41.3639498,75.8869752 42.986212,75.6609257 C54.8702261,74.0409042 65.0187969,67.2217438 70.9042134,56.8988159 C76.902811,46.613563 77.6196246,34.444564 72.9792,23.4434876 Z" id="Path" fill="#FF5F4B"></path>
                <g transform="translate(25.000000, 0.000000)" fill-rule="nonzero" id="Path">
                    <polygon fill="#FF5F4B" points="25.1245791 43.4505242 15.5113636 41.3974496 9.72811448 41.3974496 0.268097643 43.4505242 12.6388889 0.0746572581"></polygon>
                    <g transform="translate(9.574916, 0.000000)">
                        <polygon fill="#A70C00" points="3.0256734 0.0746572581 0.153198653 41.3974496 3.06397306 45.988871 3.06397306 45.988871 3.06397306 0.0746572581"></polygon>
                        <polygon fill="#D23317" points="3.06397306 0.0746572581 3.06397306 45.988871 5.93644781 41.3974496"></polygon>
                    </g>
                </g>
            </g>
        </g>
    </g>
</svg>