
<svg  viewBox="0 0 70 50" version="1.1" xmlns="http://www.w3.org/2000/svg" xmlns:xlink="http://www.w3.org/1999/xlink">
    <g id="Final-Website" stroke="none" stroke-width="1" fill="none" fill-rule="evenodd">
        <g id="What-we-do" transform="translate(-536.000000, -4028.000000)" fill="#FF5F4B" fill-rule="nonzero">
            <path d="M539.288394,4083.99646 L594.562476,4083.99646 C595.718332,4084.05117 596.810704,4083.46845 597.405085,4082.48008 C597.999465,4081.4917 597.999465,4080.25796 597.405085,4079.26958 C596.810704,4078.2812 595.718332,4077.69848 594.562476,4077.7532 L592.124747,4077.7532 L592.124747,4061.28792 C590.460446,4062.30514 588.391131,4062.41138 586.630546,4061.56998 C584.869961,4060.72859 583.659072,4059.05473 583.415536,4057.12574 L581.069931,4057.12574 C576.264353,4057.11796 572.371707,4053.23968 572.367806,4048.45572 L572.367806,4033.41546 C572.368175,4032.27208 572.59702,4031.1402 573.041016,4030.08572 L572.7363,4029.96579 L568.328546,4028.25859 C567.439865,4027.9138 566.453524,4027.9138 565.564842,4028.25859 L543.518987,4036.78047 C542.369331,4037.35857 541.675571,4038.56234 541.754469,4039.84214 L541.754469,4077.7532 L539.288394,4077.7532 C538.132538,4077.69848 537.040166,4078.2812 536.445785,4079.26958 C535.851405,4080.25796 535.851405,4081.4917 536.445785,4082.48008 C537.040166,4083.46845 538.132538,4084.05117 539.288394,4083.99646 L539.288394,4083.99646 Z M546.72205,4043.39057 L564.438101,4036.5124 L564.438101,4041.70453 L546.72205,4047.70089 L546.72205,4043.39057 Z M546.72205,4052.08881 L564.438101,4047.0166 L564.438101,4052.33571 L546.72205,4056.49083 L546.72205,4052.08881 Z M546.72205,4060.86464 L564.438101,4057.63367 L564.438101,4062.95279 L546.72205,4065.25962 L546.72205,4060.86464 Z M546.72205,4069.64048 L564.438101,4068.22958 L564.438101,4073.5487 L546.72205,4074.00724 L546.72205,4069.64048 Z M601.138674,4028.55488 L581.069931,4028.55488 C579.777528,4028.55675 578.538908,4029.07012 577.627036,4029.98186 C576.715164,4030.8936 576.204882,4032.12887 576.208625,4033.41546 L576.208625,4048.45572 C576.212549,4051.12684 578.386736,4053.29125 581.069931,4053.29513 L587.220944,4053.29513 L587.220944,4056.40618 C587.222155,4057.17279 587.686582,4057.86338 588.398106,4058.15658 C589.10963,4058.44979 589.928482,4058.28801 590.473611,4057.74654 L594.945143,4053.29513 L601.138674,4053.29513 C603.821869,4053.29125 605.996056,4051.12684 605.99998,4048.45572 L605.99998,4033.41546 C606.003723,4032.12887 605.493441,4030.8936 604.581569,4029.98186 C603.669697,4029.07012 602.431077,4028.55675 601.138674,4028.55488 Z M585.194228,4043.01668 C584.020111,4043.01668 583.068301,4042.06915 583.068301,4040.90032 C583.068301,4039.73148 584.020111,4038.78396 585.194228,4038.78396 C586.368344,4038.78396 587.320166,4039.73148 587.320166,4040.90032 C587.322037,4041.46283 587.098888,4042.00295 586.699995,4042.40137 C586.301103,4042.79979 585.759288,4043.02373 585.194228,4043.02373 L585.194228,4043.01668 Z M591.104303,4043.01668 C589.930186,4043.01668 588.978376,4042.06915 588.978376,4040.90032 C588.978376,4039.73148 589.930186,4038.78396 591.104303,4038.78396 C592.278419,4038.78396 593.230241,4039.73148 593.230241,4040.90032 C593.232112,4041.46283 593.008963,4042.00295 592.61007,4042.40137 C592.211178,4042.79979 591.669363,4043.02373 591.104303,4043.02373 L591.104303,4043.01668 Z M597.014377,4043.01668 C595.840261,4043.01668 594.888451,4042.06915 594.888451,4040.90032 C594.888451,4039.73148 595.840261,4038.78396 597.014377,4038.78396 C598.188494,4038.78396 599.140315,4039.73148 599.140315,4040.90032 C599.142187,4041.46283 598.919038,4042.00295 598.520145,4042.40137 C598.121252,4042.79979 597.579438,4043.02373 597.014377,4043.02373 L597.014377,4043.01668 Z" id="Shape"></path>
        </g>
    </g>
</svg>