
<svg viewBox="0 0 48 70" version="1.1" xmlns="http://www.w3.org/2000/svg" xmlns:xlink="http://www.w3.org/1999/xlink">
    <g id="Final-Website" stroke="none" stroke-width="1" fill="none" fill-rule="evenodd">
        <g id="What-we-do" transform="translate(-555.000000, -4121.000000)" fill="#FF5F4B" fill-rule="nonzero">
            <path d="M592.8,4154.88 L592.8,4177.98 L561.72,4177.98 L561.72,4131.64 L583.42,4131.64 L566.62,4138.92 C564.94,4139.62 563.96,4141.3 564.1,4142.98 C564.24,4144.8 565.36,4146.2 567.18,4146.76 L573.62,4148.58 L574.6,4156.56 C574.74,4158.24 576,4159.64 577.54,4160.06 C577.96,4160.2 578.38,4160.2 578.8,4160.2 C580.06,4160.2 581.32,4159.64 582.02,4158.66 L585.8,4153.9 L588.6,4155.3 C589.16,4155.58 589.72,4155.72 590.42,4155.72 C591.26,4155.72 592.1,4155.44 592.8,4154.88 Z M595.6,4149.98 L599.66,4141.44 L599.66,4185.68 C599.66,4188.62 597.28,4191 594.34,4191 L560.18,4191 C557.38,4191 555,4188.62 555,4185.68 L555,4126.18 C555,4123.38 557.24,4121 560.18,4121 L594.34,4121 C596.58,4121 598.68,4122.54 599.38,4124.64 C599.24,4124.78 599.24,4124.78 599.1,4124.78 L589.86,4128.84 L560.32,4128.84 C559.48,4128.84 558.92,4129.4 558.92,4130.24 L558.92,4179.24 C558.92,4180.08 559.48,4180.64 560.32,4180.64 L594.2,4180.64 C595.04,4180.64 595.6,4180.08 595.6,4179.24 L595.6,4149.98 Z M573.62,4124.08 C572.78,4124.08 572.22,4124.78 572.22,4125.48 C572.22,4126.18 572.78,4126.88 573.62,4126.88 L580.9,4126.88 C581.74,4126.88 582.3,4126.18 582.3,4125.48 C582.3,4124.64 581.74,4124.08 580.9,4124.08 L573.62,4124.08 Z M579.08,4187.5 C579.78,4187.5 580.48,4186.8 580.48,4186.1 C580.48,4185.4 579.92,4184.7 579.08,4184.7 L575.44,4184.7 C574.6,4184.7 574.04,4185.4 574.04,4186.1 C574.04,4186.8 574.6,4187.5 575.44,4187.5 L579.08,4187.5 Z M602.04,4129.26 L591.54,4152.08 C591.12,4152.78 590.28,4153.06 589.58,4152.78 L584.96,4150.4 L579.78,4156.84 C579.36,4157.4 578.8,4157.4 578.24,4157.26 C577.68,4157.12 577.26,4156.7 577.26,4156.14 L576.14,4146.34 L568.02,4143.96 C566.76,4143.54 566.62,4141.86 567.88,4141.3 L600.22,4127.3 C601.34,4126.88 602.6,4128.14 602.04,4129.26 Z" id="Combined-Shape"></path>
        </g>
    </g>
</svg>