
<svg viewBox="0 0 578 146" version="1.1" xmlns="http://www.w3.org/2000/svg" xmlns:xlink="http://www.w3.org/1999/xlink">
    <g id="Final-Website" stroke="none" stroke-width="1" fill="none" fill-rule="evenodd">
        <g id="Landing-white-Copy" transform="translate(-1278.000000, -2577.000000)" fill-rule="nonzero" stroke="#FF5F4B" stroke-width="2.7">
            <g id="Group-5" transform="translate(350.000000, 2321.000000)">
                <polygon id="Path" points="1019.31173 400.1875 1019.31173 295.171875 1060.82853 295.171875 1060.82853 258 930 258 930 295.171875 971.516793 295.171875 971.516793 400.1875"></polygon>
                <polygon id="Path" points="1099.51297 400.1875 1109.03145 375.40625 1162.90202 375.40625 1172.42051 400.1875 1221.83562 400.1875 1159.86421 258 1112.87935 258 1050.90794 400.1875"></polygon>
                <polygon id="Path" points="1149.73816 340.875 1122.19531 340.875 1135.96674 305.125"></polygon>
                <polygon id="Path" points="1341.52843 400.1875 1341.52843 363.015625 1277.53181 363.015625 1277.53181 258 1229.73687 258 1229.73687 400.1875"></polygon>
                <polygon id="Path" points="1401.88261 400.1875 1401.88261 365.046875 1412.61622 353.0625 1448.05739 400.1875 1503.3456 400.1875 1443.80445 320.5625 1500.51031 258 1448.46243 258 1401.88261 309.59375 1401.88261 258 1354.89775 258 1354.89775 400.1875"></polygon>
            </g>
        </g>
    </g>
</svg>