
<svg width="712px" height="612px" viewBox="0 0 712 612" version="1.1" xmlns="http://www.w3.org/2000/svg" xmlns:xlink="http://www.w3.org/1999/xlink">
    <defs>
        <path d="M565.148711,111.928911 C563.548591,112.079214 561.974373,112.146181 560.975737,110.463081 C560.387204,108.05674 558.900762,105.590872 561.408863,103.386919 L561.384401,103.418171 C561.873646,103.279773 562.361452,103.141374 562.850697,103 C564.878187,105.071507 565.522839,107.678749 565.586153,110.513679 C566.258146,111.254778 566.111372,111.726522 565.148711,111.928911" id="path-1"></path>
        <filter x="-274.9%" y="-119.4%" width="516.8%" height="380.3%" filterUnits="objectBoundingBox" id="filter-2">
            <feMorphology radius="1" operator="dilate" in="SourceAlpha" result="shadowSpreadOuter1"></feMorphology>
            <feOffset dx="-4" dy="2" in="shadowSpreadOuter1" result="shadowOffsetOuter1"></feOffset>
            <feGaussianBlur stdDeviation="2.5" in="shadowOffsetOuter1" result="shadowBlurOuter1"></feGaussianBlur>
            <feColorMatrix values="0 0 0 0 0   0 0 0 0 0   0 0 0 0 0  0 0 0 0.5 0" type="matrix" in="shadowBlurOuter1"></feColorMatrix>
        </filter>
    </defs>
    <g id="Final-Website" stroke="none" stroke-width="1" fill="none" fill-rule="evenodd">
        <g id="About-us" transform="translate(-201.000000, -2463.000000)">
            <g id="Group-11" transform="translate(201.000000, 2407.000000)">
                <g id="Group-4-Copy" transform="translate(0.000000, 56.000000)">
                    <path d="M180.900361,440.713179 C191.587365,424.622296 197.933709,406.372724 206.080915,389.026974 C214.800048,370.462892 223.391561,351.838449 231.833396,333.140938 C232.800789,330.996546 233.683101,328.728255 236.049587,327.649705 C239.630829,319.702747 245.723508,315.247176 254.129105,313.059896 C261.370366,311.171243 268.316997,308.134148 275.3944,305.605354 C277.899536,302.379235 280.715056,301.268916 284.145044,304.291715 C287.015709,317.720375 285.920697,331.225281 284.874527,344.723832 C281.880968,349.895788 279.282875,345.454514 276.557161,344.36008 C275.304593,343.540445 274.156012,342.522256 272.747464,341.921826 C273.65656,342.393593 274.50421,342.968608 275.358162,343.545211 C278.077573,346.134366 282.090517,346.934939 284.334111,350.183296 C284.688611,350.915566 284.921794,351.678017 285.06832,352.475413 C286.253139,361.051393 285.550441,368.852215 276.620183,373.229952 C272.840422,377.868193 267.78761,381.032363 262.25898,385.61342 C267.831726,381.286513 272.604088,378.00321 276.438994,373.606412 C279.334868,370.785345 283.425014,369.184199 285.032083,365.044728 C286.401242,362.274491 288.731491,360.180929 290.232997,357.501233 C291.4446,355.803192 292.946106,354.356124 294.236487,352.716855 C294.646132,352.121191 295.085713,351.558884 295.522142,350.983869 C309.103444,334.354505 322.654811,317.706079 336.3401,301.170433 C339.916615,296.848292 343.371812,291.825649 349.749667,291.006014 C351.309468,290.956773 352.790492,291.196627 354.049362,292.219582 C355.193217,295.712558 352.067311,296.035011 350.272752,296.970602 C345.153767,299.639178 342.330368,304.428321 339.108354,308.807646 C336.078558,312.928056 338.382022,316.139879 341.47169,319.022895 C347.07122,324.252035 353.720071,327.705301 360.701364,330.61532 C361.832614,334.195661 359.505517,336.678391 357.803915,339.224658 C345.249876,358.028594 333.644322,377.459964 320.812985,396.079642 C316.762227,401.958453 313.656804,408.204194 311.980412,415.301338 C306.417119,438.834056 296.681752,460.111191 278.094905,476.352977 C276.519347,477.730153 275.145462,479.347183 273.976398,481.11035 C269.687732,486.48245 263.335086,488.663376 257.433049,491.149282 C250.758989,493.95923 245.058623,497.714299 240.390247,503.189647 C236.980742,506.145732 234.30387,510.162893 229.408614,511 C221.270862,506.633382 217.092484,498.394151 211.366909,491.751301 C200.761834,479.445667 190.413575,466.89859 180.219721,454.235557 C178.157316,451.670229 175.324465,449.30822 176.14533,445.333947 C177.730341,443.793161 179.315351,442.253964 180.900361,440.713179 Z" id="Fill-132" fill="#F7F5F5"></path>
                    <path d="M41.2540621,549.874355 C41.8264453,549.406119 42.3988285,548.937883 42.9712117,548.469647 C70.5139743,525.99589 98.0662766,503.531593 125.59632,481.043647 C137.431933,471.373074 149.221437,461.648898 161.034791,451.951523 C162.629514,450.641408 163.949175,448.829949 166.380214,449.012829 C172.619191,451.469098 175.670312,457.311802 179.556158,461.989433 C191.767,476.681326 204.070059,491.295968 216.400148,505.886962 C218.764408,508.683766 221.184317,511.471111 221.993604,515.201235 C222.157369,519.45162 219.147587,521.693478 216.282491,524.01101 C198.762795,538.187371 181.371885,552.521387 164.011183,566.886933 C160.292282,569.964364 156.401667,572.415903 151.641346,573.424897 C130.758898,576.718315 113.870413,586.403077 101.877395,603.937495 C99.6848492,607.142626 96.655988,608.020766 92.9005181,607.500504 C84.2972803,606.307053 75.9563848,607.888336 67.9986681,610.894821 C62.6198557,612.928574 58.2474839,612.154487 54.0706764,608.580442 C41.8916334,598.168889 27.7410482,594.796643 11.954401,596.565535 C4.28287588,597.424756 -1.47116544,590.442205 0.333431655,583.09547 C14.7924678,573.014993 27.9954407,561.408413 41.2540621,549.874355" id="Fill-134" fill="#4A4A47"></path>
                    <path d="M671.532912,121.483704 C673.884563,120.543701 676.238362,119.609873 678.589261,118.670609 C683.249788,116.809377 687.154939,112.326647 692.99208,114.003333 C696.018334,116.14375 698.03267,114.571166 700.294048,112.42444 C702.92757,109.924396 705.388481,106.662508 709.855809,107.591547 C710.570011,106.586797 711.284214,105.582047 712,104.577297 C711.483747,104.384865 710.967494,104.192432 710.451242,104 C696.727786,107.345486 683.002747,110.689394 669.277708,114.033302 C662.651936,113.090067 656.760953,116.3141 650.481989,117.342509 C646.746283,118.637485 642.999491,119.888296 639.035747,120.27947 C636.687272,120.904087 634.337213,121.539745 632.018827,122.26531 C611.142261,128.200747 590.126339,133.642484 569.199099,139.391798 C564.723852,141.148927 559.307949,140.505383 555.762274,144.628485 C553.784361,150.9409 553.907882,157.267511 555.65459,163.605164 C559.759274,168.1778 564.025486,165.059448 567.898965,163.526298 C594.771031,152.899925 621.782453,142.61583 648.440732,131.438975 C655.992696,127.772452 663.751048,124.594272 671.532912,121.483704 C675.180222,119.672557 678.817163,117.840292 682.446271,115.99217 C685.512115,114.42905 688.501947,112.870663 691.992196,112.586746 C695.628136,113.376981 698.142889,111.452657 700.999699,109.536219 C703.449524,107.892656 705.964277,103.728544 709.855176,107.591389 C710.075296,108.014109 710.213069,108.462067 710.270078,108.933684 C702.341006,112.905364 697.420768,120.194137 691.220984,126.071214 C683.364757,132.509814 675.980442,139.442115 669.20898,147.013227 C662.854003,152.126883 657.05962,157.820991 651.60571,163.869995 C646.281655,168.242313 640.33208,172.010519 637.261484,178.567418 C637.212393,179.48857 636.724645,179.972806 635.799824,180.018548 L635.836247,180.002775 C630.431428,186.815199 623.88642,192.496688 617.501355,198.339064 C605.000437,208.500128 594.841659,221.088681 582.716053,231.640919 C572.012518,239.773556 563.540272,250.220115 553.763141,259.313337 C551.300647,261.602021 549.273642,264.538982 545.511015,264.944352 C537.917665,270.510697 531.519931,277.343627 525.055686,284.104 C524.246468,285.499924 523.788808,287.089857 522.691375,288.326472 C521.034932,289.856468 519.690458,291.899091 517.037932,291.834421 C505.558434,301.965517 494.354482,312.382106 483.818808,323.494292 C478.109939,325.082648 472.974333,322.54948 467.73896,321.120432 C447.535423,315.610871 427.380978,309.926227 407.186943,304.383541 C404.947737,303.768388 402.575508,303.631162 400.265039,303.273111 C389.148185,302.878782 379.274455,297.189406 368.380888,295.85342 C364.049749,294.913341 360.090755,292.810779 355.753281,291.883318 C351.567833,289.3675 346.147179,290.627775 342.153346,287.507846 C337.41839,283.291682 340.838961,281.619728 344.478067,279.801084 C365.126595,269.471247 385.746617,259.081471 406.691277,249.360478 C421.686362,242.401363 436.060676,234.169355 451.377231,227.886909 C453.945826,227.208664 456.416238,226.301707 458.581015,224.696 C475.991086,215.751046 493.415409,206.839215 511.511177,199.326463 C515.071104,198.257043 518.421996,196.785408 521.237633,194.280632 C529.91258,189.288429 539.057855,185.201605 547.886411,180.498052 C552.825651,179.297715 557.768059,178.111574 562.895747,178.155738 C565.532437,178.261419 567.456508,177.796111 565.891914,174.463244 C567.06536,171.019965 570.3054,170.05938 573.086197,168.739167 C596.62479,157.567043 619.819742,145.680396 643.496108,134.790612 C652.9363,130.548739 662.268057,126.084357 671.532912,121.483704 Z M181.644025,251.531652 C179.121354,250.935427 176.421321,250.793469 174,248.359672 C197.632025,241.938421 220.950498,235.648088 244.240465,229.256807 C262.966505,224.119492 281.65929,218.859146 300.364743,213.652428 C308.509185,208.524576 318.189716,207.970939 326.980266,204.768989 C327.70397,204.469299 328.453011,204.24532 329.209971,204.056043 C331.490351,203.58758 333.775482,203.13489 335.986184,202.369893 C343.779068,200.6033 351.381919,198.14742 359.097206,196.095333 C371.034363,193.005372 382.90501,189.689856 394.750319,186.281278 C402.235984,184.058841 409.899012,182.514649 417.413182,180.399469 C425.041371,178.856855 432.249907,175.864688 439.764077,173.918281 C455.601635,170.290456 471.198487,165.755675 486.868183,161.51112 C494.832095,159.862826 502.591723,157.443224 510.416278,155.272838 C513.166987,154.49049 515.887607,153.607194 518.677906,152.955762 C522.275839,152.692351 525.840517,149.167051 529.485958,152.829577 C531.452786,158.99688 530.171656,165.336109 530.49471,171.588587 C530.467789,173.35518 530.265088,175.093381 529.53505,176.725902 C523.753336,184.033604 514.631814,185.352239 506.800925,188.6299 C475.947695,201.543379 444.708068,213.532552 413.70123,226.091136 C372.210976,242.894274 330.58295,259.363022 289.227302,276.497397 C286.535186,277.612559 283.789228,278.52267 280.812065,278.467464 C261.126365,274.998948 242.197625,268.492523 222.72571,264.151751 C212.989753,261.981365 203.361481,259.333053 193.661946,256.995472 C189.273798,255.938671 185.129523,254.492273 181.644025,251.531652 Z M545.849746,151.833345 C545.756314,158.155224 545.664465,164.477103 545.569449,170.798983 C544.492603,171.387321 543.415757,171.97566 542.33891,172.565576 C540.862998,171.959887 539.388668,171.354198 537.912756,170.748509 C537.984017,163.831982 538.056863,156.917032 538.129708,150.000505 C540.356246,147.710243 542.802905,146.453123 545.921008,148.361674 C546.584535,149.532042 546.67005,150.691369 545.849746,151.833345 Z" id="Combined-Shape" fill="#E2392C"></path>
                    <path d="M219.638496,514.860425 C201.758997,492.885764 183.881063,470.909522 166,448.9317 C168.542368,445.926538 169.978611,440.614572 175.679774,444.198016 C189.987441,463.813735 206.427568,481.663013 221.530018,500.619871 C223.792335,503.460714 226.250218,506.141977 228.615794,508.897499 C234.412394,510.575461 237.280185,515.761026 239.343806,520.376211 C241.786044,525.836696 236.957891,528.426318 232.319047,530 C225.943569,526.794177 222.257526,521.283131 219.638496,514.860425" id="Fill-146" fill="#FCFCFC"></path>
                    <path d="M571,16.8430407 C579.652534,12.2200709 589.987246,11.74253 598.13466,5.87826477 C604.303683,3.91832468 610.472706,1.95994009 616.641729,0 C619.048849,0.186660961 620.515882,1.1448539 619.831474,3.86699291 C614.141069,9.47304378 606.093432,9.27549426 599.296126,12.1640726 C591.638243,13.5795849 584.365437,16.4666078 576.755884,18.0547815 C574.755668,18.4716576 572.211355,20.5218172 571,16.8430407" id="Fill-198" fill="#E2392C"></path>
                    <path d="M600.44878,12.4199851 C606.267655,7.84951067 613.932328,7.82098977 620.614114,5.37817459 C621.286292,4.78493985 621.727745,4.87478069 621.901558,5.75322444 C622.824457,11.5700622 617.020962,9.59498982 614.406083,11.3119481 C609.688533,11.6670333 605.557023,14.8442617 600.547222,13.7847102 C600.084235,13.5080575 599.915037,13.2142922 600.039628,12.9019883 C600.167296,12.5811282 600.304192,12.4199851 600.44878,12.4199851" id="Fill-200" fill="#4B1B1A"></path>
                    <path d="M621.903214,5 C621.360285,4.91426585 620.837949,4.7719148 620.336207,4.57456449 C620.362418,2.51047431 619.345829,1.07725809 617,0.448001756 C622.58094,-1.20359391 622.082942,2.02680427 621.903214,5" id="Fill-204" fill="#C3CDCB"></path>
                    <path d="M550.734144,14 C555.864609,15.7475153 553.670618,19.2573276 552.650898,22.4830044 C553.25317,31.4899349 548.527407,36.0065394 539.740292,34.810871 C533.539121,30.7245758 534.60664,24.9827397 536.35291,19.0881602 C539.569807,12.6598003 545.5511,14.5272109 550.734144,14" id="Fill-306" fill="#4A4A47"></path>
                    <path d="M649.055756,129.968969 C662.918155,121.696504 678.706064,117.979359 693.23293,111.27277 C693.823132,111 695.505129,110.491294 694.851634,112.388711 C694.617452,113.065568 693.856361,113.558548 693.334198,114.133955 C679.394034,118.727702 667.145361,126.943502 653.768501,132.765736 C650.650575,134.122267 647.638609,135.583363 644.324684,136.353901 C644.324034,136.354366 644.323384,136.35483 644.322734,136.355294 C628.510696,144.206512 612.573655,151.812032 596.938836,159.9993 C586.906982,165.252467 575.927323,168.70491 566.832197,175.747704 C563.934984,178.574016 561.091571,176.925466 558.232334,175.652596 C557.037689,174.87112 556.240204,173.793222 555.801904,172.437924 C555.237019,169.640145 554.993343,166.910527 557.53137,164.821308 C573.710504,161.069272 588.359544,153.208544 603.809232,147.4941 C618.975687,141.884276 633.979164,135.829026 649.055428,129.96875 Z M547.782433,182.388031 C540.48956,189.164521 530.532074,191.166557 522.468615,196.563972 C519.210635,197.963654 515.786514,199.028871 512.977911,201.325744 C495.051905,209.790413 477.124316,218.255081 459.19831,226.718164 C457.405551,228.412683 454.886511,228.645699 452.864317,229.875771 C435.51269,238.380067 418.162645,246.885949 400.809436,255.388661 C381.546377,264.828193 362.270659,274.240777 343.031334,283.727863 C340.10564,285.170344 343.888947,285.828179 343.588308,287.018622 C339.192647,289.586555 336.023277,293.237141 333.129229,297.453624 C321.209677,314.818875 310.804397,333.211299 297.755075,349.80617 C296.929108,350.855536 297.199684,352.389955 296.131623,353.312508 L296.101559,353.459927 C294.193292,354.897652 292.145781,356.222833 291.6521,358.836735 C289.984343,361.223962 288.316587,363.611188 286.648831,366 C282.558556,365.72577 284.805438,362.571334 284.454165,360.772196 C283.867127,357.774688 284.974745,354.590134 283.732631,351.595798 C283.876621,351.159883 283.829152,350.746161 283.588641,350.35463 C282.65033,349.292584 282.575961,348.187738 283.425663,347.036924 C283.340218,332.816598 283.257938,318.597858 283.172493,304.375947 C283.30066,295.367574 284.205742,286.330669 282,277.428501 C293.618913,275.023838 303.747288,268.737158 314.794987,264.798075 C331.570652,258.815742 348.056755,251.931462 364.44159,245.031331 C393.181113,232.925587 422.178552,221.469753 450.95605,209.470214 C468.375716,202.207084 486.029565,195.509851 503.515688,188.406822 C511.988966,184.963889 520.318253,181.17064 528.710833,177.535905 C534.169808,177.86403 539.385106,177.543831 542.720619,172.230429 C543.878871,171.157286 545.07668,170.245829 546.714373,171.344333 C548.590994,174.066025 548.113136,177.294963 548.655869,180.308322 C548.605235,181.100894 548.322001,181.798357 547.782433,182.388031 Z" id="Combined-Shape" fill="#4B1B1A"></path>
                    <path d="M360.48163,331 C349.707134,330.988922 343.193239,323.485616 336.453858,316.759387 C334.134337,314.445565 334.783992,310.921021 337.037286,308.145067 C341.922312,302.126279 346.342174,295.580472 354.330407,293.179604 C364.007427,291.79954 373.236627,298.527351 372.995372,308.042195 C372.754116,317.430427 368.996525,325.736133 360.48163,331" id="Fill-340" fill="#DBD8D8"></path>
                    <path d="M359.716299,329.436314 C362.577535,324.799429 365.925857,320.392015 368.204162,315.481349 C373.921921,303.15325 367.341549,292.681487 353.586874,291.61801 C351.95278,291.576864 350.318685,291.5373 348.684591,291.496154 C349.699615,287.289724 352.658268,289.680964 354.900434,289.6414 C359.397336,289.536951 363.196606,291.833238 367.245703,293.27178 C376.354208,298.839206 378.626227,308.518109 372.779626,316.842346 C372.213978,318.342607 371.64833,319.844451 371.081111,321.346296 C366.753903,332.036451 359.293634,340.79589 353.399896,350.520687 C352.131901,352.30106 350.98175,354.165309 349.795461,356.004238 C341.94238,368.824511 333.297393,381.111464 325.065643,393.680111 C322.012714,397.308908 321.296227,402.562989 317.072721,405.376771 C312.685807,419.760608 309.075087,434.392906 301.36499,447.575585 C295.7855,457.119971 288.617482,465.265378 281.1525,473.236705 C279.105168,475.089876 277.145826,477.063322 274.570556,478.209091 C274.110181,478.286636 273.671804,478.433814 273.258567,478.652206 C272.821761,479.141216 272.402239,479.103234 272,478.609477 C272.562506,476.102711 274.553272,474.654674 276.28007,473.130674 C292.26277,459.022201 302.639269,441.292844 307.208448,420.670577 C310.614906,405.302391 319.006924,393.026516 327.232389,380.35342 C338.19182,363.469147 348.899851,346.41554 359.716299,329.436314" id="Fill-342" fill-opacity="0.5" fill="#000000"></path>
                    <path d="M256,332.159645 C258.65228,331.525422 260.004525,332.844318 261,334.992029 C259.050818,335.053289 257.230421,334.820861 256,332.159645" id="Fill-358" fill="#E5C5AB"></path>
                    <path d="M233.493417,530.238315 C241.166737,541.030254 241.187419,541.052265 231.229446,550.36157 C227.646549,553.71204 223.934781,556.927295 220.283472,560.202296 C210.575283,566.609224 202.014195,574.402878 193.290825,582 C187.092349,578.737577 179.988603,577.328839 174.319924,572.989423 C170.043357,569.717566 165.730198,573.421792 161.409083,572.88251 C158.313027,572.495736 155.139013,572.711134 152,572.656106 C163.408951,568.050979 171.187275,558.608033 180.661589,551.44328 C192.516016,542.47987 203.810416,532.79637 215.318008,523.388013 C217.733123,521.414836 220.418705,519.565868 220.593714,516 L233.493417,530.238315 Z" id="Fill-362" fill="#30302F"></path>
                    <path d="M531.012335,170.449314 C530.327585,171.653115 529.16036,171.957233 527.852207,172 C527.56869,165.252376 527.285174,158.504752 527,151.76188 C527.306728,148.511616 527.613456,145.2566 527.920184,142 C531.333985,142.321542 531.44507,145.058606 531.524654,147.206441 C531.811486,154.955121 532.662034,162.733897 531.012335,170.449314" id="Fill-374" fill="#30302F"></path>
                    <path d="M353,350.787492 C358.922018,340.947232 364.250295,330.700115 371.833554,322 C372.73647,322.678095 373.636309,323.35619 374.537686,324.035862 C376.10356,332.851095 377.391022,341.699444 377.647899,350.675528 C377.221821,357.260933 381.931748,362.944314 380.833483,369.649568 C380.811948,371.921974 379.63985,373.404321 377.735576,374.383616 C371.887391,377.567508 366.514506,375.774499 362.530603,371.390537 C357.356144,365.697694 353.31379,359.039749 353,350.787492" id="Fill-396" fill="#F7F5F5"></path>
                    <path d="M324,393.918794 C332.700353,381.27867 341.399073,368.638545 350.099426,356 C355.514285,357.72631 355.445702,362.170807 355.669416,366.481053 C355.192594,372.51445 357.865732,378.964815 353.151408,384.442254 C350.12392,386.83666 347.331577,389.554848 343.570895,390.938422 C341.180258,394.763786 337.122379,395.321322 333.093894,395.951512 C329.906377,395.930979 326.562097,396.545375 324,393.918794" id="Fill-398" fill="#F7F5F5"></path>
                    <path d="M566.684806,27.1253702 C567.353295,28.1042739 568.018667,29.0831776 568.685599,30.0620813 C566.409471,36.3287822 564.133344,42.5954831 561.858779,48.8637617 C561.858163,48.8637018 561.857547,48.8636418 561.856931,48.8635817 C561.857443,48.8637995 561.857955,48.8640173 561.858466,48.864235 C561.326953,52.5592535 561.286308,56.2400726 562.20395,59.8893372 C565.352385,73.7748444 569.645137,87.5814657 565.096008,101.995509 C564.495711,102.606086 563.751592,102.975272 562.908987,103.098335 C558.638121,100.296305 558.811644,95.4763728 558.267625,91.3175049 C557.020132,81.7659925 554.650208,72.4716483 552.857132,63.0479312 C554.659587,72.9828294 557.199908,82.763111 558.416136,92.8305376 C558.799138,95.9985979 558.753803,99.6478625 561.481717,102.184835 C563.659359,104.948999 562.787052,108.074461 562.543181,111.133659 C560.731346,115.365102 557.224921,115.701156 553.35738,115.219952 C551.379838,114.763991 549.815,113.76845 549.044305,111.778946 C548.21577,109.649025 546.863538,107.732096 546.399245,105.430204 C546.192893,104.41573 544.837534,106.485698 545.706714,105.905097 C547.085523,108.909075 547.091776,112.119733 547.107408,115.341436 C546.472719,117.958872 545.218973,120.413803 545.179891,123.185856 C543.407138,132.382382 539.714683,141.257053 540.788653,150.914272 C540.380638,157.422364 542.663019,164.234956 538.606322,170.315486 C536.500591,170.345463 534.396424,170.377017 532.292256,170.408571 C529.059404,165.47031 531.443398,159.956181 530.711786,154.760752 C530.116178,150.546664 532.071834,146.05963 529.376749,142.071156 C529.850421,131.094963 531.404316,120.031995 530.563274,109.159932 C529.045335,89.5693919 534.691882,69.8242354 529,50.404089 L529.80196,45.9896306 C530.596103,45.2985895 531.388683,44.6075485 532.182827,43.9180852 C534.874786,41.8134077 537.569871,39.7087302 540.264956,37.6056304 C543.763564,37.7791795 547.262173,37.9543064 550.759218,38.1278555 C552.236512,40.6790275 554.475121,41.4079338 557.235864,40.8920196 C558.738483,35.9201529 560.550318,31.0907543 563.594014,26.8293346 C563.59437,26.8293684 563.594726,26.8294023 563.595082,26.8294362 C562.571199,25.6193971 561.547315,24.410935 560.524993,23.1977404 C561.838144,18.9931185 565.244519,18.9520978 568.699356,19.0104735 C568.075609,20.7459646 569.12144,21.9529199 570,23.2103621 C569.432531,24.97583 568.317917,26.2742929 566.685858,27.1246836 C566.685507,27.1249126 566.685157,27.1251414 566.684806,27.1253702 Z M557.243524,171.989919 C554.209208,174.807726 547.571545,173.288382 547.768517,180 C545.55961,177.073331 546.485069,173.613392 546.163034,170.366446 C542.361151,164.429489 544.193308,158.011327 544.570058,151.713071 C546.703927,144.668555 545.30636,137.423668 545.731571,130.281333 C545.941049,126.763019 545.045293,123.011203 547.760701,120.000914 C552.947646,120.299103 553.005487,124.958108 554.021615,128.253964 C555.053376,131.587685 555.925683,134.692636 558.970942,136.691606 C560.742132,139.288532 559.424292,141.431075 557.978263,143.553107 C557.826625,150.370432 557.674988,157.187757 557.526477,164.003504 C557.43268,166.665117 557.338884,169.328307 557.243524,171.989919 Z" id="Combined-Shape" fill="#4A4A47"></path>
                    <path d="M215,549.332809 C214.237905,554.683132 211.4262,558.14651 206.271408,557.995236 C201.299645,557.851924 197.874161,554.823259 198.003544,549.38058 C198.131349,544.063697 201.291755,541.003185 206.476527,541 C211.792258,540.998408 214.250528,544.579621 215,549.332809" id="Fill-490" fill="#F1F1F1"></path>
                    <path d="M196,564.829704 C195.33939,570.180677 192.638192,573.079375 187.262793,572.998346 C181.811169,572.915788 178.913059,569.619589 179.001987,564.826646 C179.092503,559.987838 182.246283,556.910265 187.634386,557.001996 C193.066953,557.090669 195.44261,560.293608 196,564.829704" id="Fill-492" fill="#F4F4F4"></path>
                    <path d="M572.75713,109 C577.747188,110.739547 575.434267,114.834077 575.644391,118.115352 C570.258989,125.282349 561.891381,124.812923 554.625758,124.998181 C549.862946,125.11907 551.073883,119.186084 551.312023,115.388283 C551.704255,114.549909 552.291046,113.884234 553.069283,113.389687 C556.471737,113.501157 559.66251,113.05842 561.822896,109.949843 C563.460308,109.701785 565.027678,109.902743 566.501659,110.697157 C568.948437,111.485292 570.70881,109.698645 572.75713,109" id="Fill-502" fill="#947C64"></path>
                    <path d="M562,102.966888 C558.665404,102.607387 558.25764,99.5910494 557.786447,97.2148752 C555.457667,85.4979871 553.316155,73.7385266 551.306034,61.9569914 C550.999456,60.1610641 550.3123,57.8022343 553.065456,56 C556.073842,71.873222 559.023329,87.4358226 561.974326,103 L562,102.966888 Z" id="Fill-506" fill="#30302F"></path>
                    <g id="Fill-510">
                        <use fill="black" fill-opacity="1" filter="url(#filter-2)" xlink:href="#path-1"></use>
                        <use fill="#D9CEC1" fill-rule="evenodd" xlink:href="#path-1"></use>
                    </g>
                    <path d="M549.142263,116 C550.160325,116.014009 551.178386,116.028018 552.197999,116.042028 C552.485104,125.656991 552.407508,125.367468 561.341926,122.917419 C565.90613,121.665933 571.052304,122.688603 575.18197,119.497624 C575.337162,121.496266 575.293708,123.53538 575.686345,125.484212 C576.98996,131.917536 574.196499,134.887481 567.931388,135.120967 C564.742188,136.068922 561.549883,137.013763 558.357579,137.96016 C554.519675,138.210769 551.463939,137.379558 552.270939,132.563515 C553.020518,128.089918 548.873781,125.074832 549.108121,120.822269 C548.807048,119.211214 546.752303,117.589263 549.142263,116" id="Fill-516" fill="#735A42"></path>
                </g>
            </g>
        </g>
    </g>
</svg>