<?xml version="1.0" encoding="UTF-8"?>
<svg width="729px" height="363px" viewBox="0 0 729 363" version="1.1" xmlns="http://www.w3.org/2000/svg" xmlns:xlink="http://www.w3.org/1999/xlink">
    <!-- Generator: Sketch 63.1 (92452) - https://sketch.com -->
    <title>Final Website</title>
    <desc>Created with Sketch.</desc>
    <g id="Final-Website" stroke="none" stroke-width="1" fill="none" fill-rule="evenodd">
        <path d="M128.559763,235.201611 C86.5687629,235.231611 44.5777629,235.183611 2.58776287,235.148611 C-1.31923713,231.877611 -0.724237132,225.756611 3.84576287,222.211611 C5.09476287,221.561611 6.34276287,220.910611 7.59176287,220.260611 C10.4957629,220.905611 13.5597629,220.789611 16.3497629,221.913611 C18.6837629,222.853611 20.1337629,221.926611 21.3057629,220.033611 C24.1067629,219.035611 27.1087629,219.127611 29.9737629,218.440611 C31.1667629,218.153611 32.2087629,217.909611 32.4377629,216.498611 C33.6987629,213.153611 34.6437629,209.603611 38.1577629,207.735611 C41.3507629,208.079611 43.6177629,205.655611 46.5027629,204.944611 C55.3707629,202.759611 63.1597629,204.211611 69.6677629,210.915611 C71.1007629,212.375611 71.8087629,214.209611 72.3637629,216.123611 C72.0037629,217.929611 73.1667629,218.980611 74.5417629,218.470611 C79.0247629,216.806611 82.8377629,219.041611 85.3597629,221.594611 C89.6877629,225.974611 94.5557629,225.134611 99.5667629,225.058611 C100.226763,225.422611 100.885763,225.787611 101.544763,226.152611 C103.563763,230.297611 102.933763,232.340611 99.1257629,232.395611 C70.5247629,232.808611 41.9237629,232.500611 13.3047629,232.623611 C14.8267629,232.611611 16.3627629,232.620611 17.8997629,232.620611 C42.7107629,232.619611 67.5257629,232.887611 92.3297629,232.493611 C102.766763,232.327611 113.221763,231.796611 123.653763,231.367611 C127.408763,229.707611 130.623763,229.870611 132.604763,234.089611 C131.775763,236.283611 129.898763,235.200611 128.559763,235.201611 Z" id="Fill-140-Copy-2" fill="#F6F6F6"></path>
        <path d="M695.111456,-5.68434189e-14 C698.411456,1.086 702.046456,1.549 704.148456,4.861 C704.455456,5.105 704.554456,5.345 704.444456,5.579 C704.336456,5.812 704.229456,5.928 704.124456,5.928 L704.061074,5.8783918 C704.834683,6.93611601 705.302711,8.24437337 706.508224,8.94580639 C706.877224,9.04180639 707.211224,9.21080639 707.522224,9.42880639 L707.440224,9.68080639 C707.937505,9.75818644 708.425592,9.87570876 708.907569,10.0205447 C711.161987,9.92148078 713.331255,10.1274644 715.092104,12.104785 C715.276026,12.311418 715.463658,12.454949 715.654188,12.5499289 C715.915933,12.6112402 716.17963,12.6636811 716.446162,12.7048616 C717.212708,12.6647328 718.006169,12.1896831 718.779104,12.136785 C720.861084,11.9958086 723.0842,11.4801934 724.713532,13.0462401 C725.025984,13.2027973 725.328154,13.3724894 725.613224,13.5488064 C727.686224,15.1438064 728.884224,17.0638064 727.870224,19.7698064 C726.842224,22.5138064 724.362224,21.3688064 722.459224,21.7658064 C721.141224,22.6878064 719.623224,22.5858064 718.136224,22.5838064 C693.586224,22.5528064 669.035224,22.6938064 644.486224,22.5178064 C641.829224,21.9248064 641.087224,20.7488064 643.317224,18.6698064 C643.373224,18.3278064 643.428224,17.9858064 643.484224,17.6438064 C644.397224,16.3798064 645.845224,16.6118064 647.114224,16.3428064 C648.404224,16.0458064 649.477224,15.3118064 650.569224,14.6138064 C654.434224,13.4728064 658.293224,12.2228064 661.680224,15.7998064 C662.621224,16.7938064 663.497224,15.7918064 664.373224,15.4688064 C666.333224,14.1508064 669.266224,15.6578064 670.837224,13.2288064 C671.200224,12.3618064 671.958224,11.9738064 672.757224,11.6348064 C673.017224,11.6898064 673.281224,11.7258064 673.547224,11.7438064 C675.922224,11.2328064 678.415224,11.0328064 680.284224,9.19180639 C681.436224,7.61280639 682.158224,5.63980639 684.218224,4.89180639 C684.549331,4.76770751 684.86897,4.62282684 685.180879,4.46404236 C685.612866,3.49327928 686.724523,2.90761863 687.166456,1.944 C689.814456,1.296 692.463456,0.647 695.111456,-5.68434189e-14 Z" id="Combined-Shape-Copy-8" fill="#F6F6F6"></path>
        <path d="M624.064,327.816707 C629.662,330.584707 634.745,333.795707 635.311,340.893707 L634.978552,340.618198 C635.107826,340.84112 635.241311,341.061854 635.380683,341.279506 C636.661466,342.681809 635.989854,344.42827 636.217676,346.015624 C639.948642,345.915239 643.555021,346.209297 646.007578,349.730964 C646.924578,351.047964 647.670578,350.599964 648.867578,350.009964 C656.419578,346.285964 659.647578,347.156964 665.209578,354.173964 C665.209578,354.174964 665.202578,354.161964 665.202578,354.161964 C665.687431,354.819695 665.822615,355.485323 665.68485,356.156815 C666.027505,356.631243 666.370828,357.133249 666.715683,357.661506 C667.015683,358.927506 666.711683,360.108506 666.232683,361.267506 C665.464683,362.390506 664.284683,362.409506 663.113683,362.405808 C633.856683,362.313506 604.599683,362.218506 575.342683,362.123506 C575.167683,359.771506 574.362683,357.353506 576.068683,355.199506 L576.077676,355.19253 C576.048801,355.069818 576.023182,354.942046 576,354.812707 C576.367,353.868707 576.734,352.924707 577.103,351.980707 C578.406,350.952707 579.71,349.925707 581.014,348.896707 C583.886,346.143707 588.566,345.649707 590.286,341.457707 C591.639,340.105707 593.197,339.042707 594.881,338.154707 C598.34,336.690707 602.543,336.463707 604.431,332.385707 C606.809,329.958707 609.253,327.650707 613,327.769707 C616.693,326.737707 620.381,326.733707 624.064,327.816707 Z" id="Combined-Shape-Copy-9" fill="#F6F6F6"></path>
        <path d="M248.632271,50.8912081 C249.244271,51.9012081 249.960271,52.5742081 251.246271,52.9252081 C257.008271,54.4962081 261.106271,58.6662081 265.436271,62.4312081 C265.740271,62.6962081 265.693271,63.3662081 265.809271,63.8482081 C265.557541,63.8598544 265.310588,63.86115 265.068066,63.8528404 C265.400914,63.9087224 265.767638,63.9443148 266.064,64.0248428 L266.984,65.0278428 C269.58,66.3628428 272.382,67.2928428 275.127,66.0388428 C279.031,64.2548428 282.105,65.3338428 284.996,67.9898428 C286.134,68.7378428 285.909,69.9548428 286.047,71.0468428 C284.295,74.8238428 280.837,71.4248428 278.522,72.8398428 C277.268,73.3888428 275.935,73.4408428 274.602,73.4428428 C254.47,73.4808428 234.339,73.5078428 214.208,73.3978428 C212.279,73.3868428 209.663,74.1668428 209,71.0428428 C209.083472,70.8594874 209.168753,70.6812618 209.256043,70.5081069 C209.088557,70.4497222 208.904388,70.3589685 208.702445,70.2321694 C207.955445,69.0881694 207.869445,67.8471694 208.141445,66.5501694 C208.406445,65.8071694 208.672445,65.0641694 209.268445,64.5041694 L211.145445,63.4101694 C212.505445,63.0511694 213.865445,62.6921694 215.224445,62.3341694 C216.524445,61.8611694 217.850445,61.5281694 219.245445,61.5411694 L221.263445,59.5611694 L221.263445,59.5611694 C222.726445,58.9371694 224.142445,58.1381694 225.825445,58.3331694 C225.931566,58.3008304 226.04029,58.2640971 226.150261,58.2271241 L225.641,58.9098428 C226.104757,58.2875113 226.570503,57.6661744 227.036254,57.0448402 C226.807077,56.9745799 226.565213,56.876793 226.309271,56.7502081 C225.361271,53.4142081 226.618271,51.1782081 229.728271,49.8632081 C237.252271,44.4382081 241.654271,44.6782081 248.632271,50.8912081 Z" id="Combined-Shape-Copy-10" fill="#F6F6F6"></path>
    </g>
</svg>