<?xml version="1.0" encoding="UTF-8"?>
<svg width="712px" height="615px" viewBox="0 0 712 615" version="1.1" xmlns="http://www.w3.org/2000/svg" xmlns:xlink="http://www.w3.org/1999/xlink">
    <!-- Generator: Sketch 63.1 (92452) - https://sketch.com -->
    <title>Final Website</title>
    <desc>Created with Sketch.</desc>
    <defs>
        <path d="M571,19.8430407 C579.652534,15.2200709 589.987246,14.74253 598.13466,8.87826477 C604.303683,6.91832468 610.472706,4.95994009 616.641729,3 C619.048849,3.18666096 620.515882,4.1448539 619.831474,6.86699291 C614.141069,12.4730438 606.093432,12.2754943 599.296126,15.1640726 C591.638243,16.5795849 584.365437,19.4666078 576.755884,21.0547815 C574.755668,21.4716576 572.211355,23.5218172 571,19.8430407" id="path-1"></path>
        <filter x="-34.2%" y="-54.8%" width="151.5%" height="231.0%" filterUnits="objectBoundingBox" id="filter-2">
            <feMorphology radius="1" operator="dilate" in="SourceAlpha" result="shadowSpreadOuter1"></feMorphology>
            <feOffset dx="-4" dy="2" in="shadowSpreadOuter1" result="shadowOffsetOuter1"></feOffset>
            <feGaussianBlur stdDeviation="2.5" in="shadowOffsetOuter1" result="shadowBlurOuter1"></feGaussianBlur>
            <feColorMatrix values="0 0 0 0 0   0 0 0 0 0   0 0 0 0 0  0 0 0 0.5 0" type="matrix" in="shadowBlurOuter1"></feColorMatrix>
        </filter>
        <path d="M600.44878,15.4199851 C606.267655,10.8495107 613.932328,10.8209898 620.614114,8.37817459 C621.286292,7.78493985 621.727745,7.87478069 621.901558,8.75322444 C622.824457,14.5700622 617.020962,12.5949898 614.406083,14.3119481 C609.688533,14.6670333 605.557023,17.8442617 600.547222,16.7847102 C600.084235,16.5080575 599.915037,16.2142922 600.039628,15.9019883 C600.167296,15.5811282 600.304192,15.4199851 600.44878,15.4199851" id="path-3"></path>
        <filter x="-77.0%" y="-116.8%" width="215.7%" height="377.8%" filterUnits="objectBoundingBox" id="filter-4">
            <feMorphology radius="1" operator="dilate" in="SourceAlpha" result="shadowSpreadOuter1"></feMorphology>
            <feOffset dx="-4" dy="2" in="shadowSpreadOuter1" result="shadowOffsetOuter1"></feOffset>
            <feGaussianBlur stdDeviation="2.5" in="shadowOffsetOuter1" result="shadowBlurOuter1"></feGaussianBlur>
            <feColorMatrix values="0 0 0 0 0   0 0 0 0 0   0 0 0 0 0  0 0 0 0.5 0" type="matrix" in="shadowBlurOuter1"></feColorMatrix>
        </filter>
        <path d="M360.48163,334 C349.707134,333.988922 343.193239,326.485616 336.453858,319.759387 C334.134337,317.445565 334.783992,313.921021 337.037286,311.145067 C341.922312,305.126279 346.342174,298.580472 354.330407,296.179604 C364.007427,294.79954 373.236627,301.527351 372.995372,311.042195 C372.754116,320.430427 368.996525,328.736133 360.48163,334" id="path-5"></path>
        <filter x="-23.7%" y="-26.3%" width="178.9%" height="178.5%" filterUnits="objectBoundingBox" id="filter-6">
            <feMorphology radius="0.5" operator="dilate" in="SourceAlpha" result="shadowSpreadOuter1"></feMorphology>
            <feOffset dx="6" dy="5" in="shadowSpreadOuter1" result="shadowOffsetOuter1"></feOffset>
            <feGaussianBlur stdDeviation="3.5" in="shadowOffsetOuter1" result="shadowBlurOuter1"></feGaussianBlur>
            <feColorMatrix values="0 0 0 0 0   0 0 0 0 0   0 0 0 0 0  0 0 0 0.5 0" type="matrix" in="shadowBlurOuter1"></feColorMatrix>
        </filter>
        <path d="M371.833554,325 C372.73647,325.678095 373.636309,326.35619 374.537686,327.035862 C376.10356,335.851095 377.391022,344.699444 377.647899,353.675528 C377.221821,360.260933 381.931748,365.944314 380.833483,372.649568 C380.811948,374.921974 379.63985,376.404321 377.735576,377.383616 C371.887391,380.567508 366.514506,378.774499 362.530603,374.390537 C357.356144,368.697694 353.31379,362.039749 353,353.787492 C358.922018,343.947232 364.250295,333.700115 371.833554,325 Z" id="path-7"></path>
        <filter x="-32.1%" y="-19.2%" width="207.1%" height="156.2%" filterUnits="objectBoundingBox" id="filter-8">
            <feMorphology radius="0.5" operator="dilate" in="SourceAlpha" result="shadowSpreadOuter1"></feMorphology>
            <feOffset dx="6" dy="5" in="shadowSpreadOuter1" result="shadowOffsetOuter1"></feOffset>
            <feGaussianBlur stdDeviation="3.5" in="shadowOffsetOuter1" result="shadowBlurOuter1"></feGaussianBlur>
            <feColorMatrix values="0 0 0 0 0.708191803   0 0 0 0 0.708191803   0 0 0 0 0.708191803  0 0 0 0.5 0" type="matrix" in="shadowBlurOuter1"></feColorMatrix>
        </filter>
        <path d="M350.099426,359 C355.514285,360.72631 355.445702,365.170807 355.669416,369.481053 C355.192594,375.51445 357.865732,381.964815 353.151408,387.442254 C350.12392,389.83666 347.331577,392.554848 343.570895,393.938422 C341.180258,397.763786 337.122379,398.321322 333.093894,398.951512 C329.906377,398.930979 326.562097,399.545375 324,396.918794 C332.700353,384.27867 341.399073,371.638545 350.099426,359 Z" id="path-9"></path>
        <filter x="-29.0%" y="-25.4%" width="194.6%" height="175.4%" filterUnits="objectBoundingBox" id="filter-10">
            <feMorphology radius="0.5" operator="dilate" in="SourceAlpha" result="shadowSpreadOuter1"></feMorphology>
            <feOffset dx="6" dy="5" in="shadowSpreadOuter1" result="shadowOffsetOuter1"></feOffset>
            <feGaussianBlur stdDeviation="3.5" in="shadowOffsetOuter1" result="shadowBlurOuter1"></feGaussianBlur>
            <feColorMatrix values="0 0 0 0 0.709803922   0 0 0 0 0.709803922   0 0 0 0 0.709803922  0 0 0 1 0" type="matrix" in="shadowBlurOuter1"></feColorMatrix>
        </filter>
        <path d="M547.760701,123.000914 C552.947646,123.299103 553.005487,127.958108 554.021615,131.253964 C555.053376,134.587685 555.925683,137.692636 558.970942,139.691606 C560.742132,142.288532 559.424292,144.431075 557.978263,146.553107 C557.826625,153.370432 557.674988,160.187757 557.526477,167.003504 C557.43268,169.665117 557.338884,172.328307 557.243524,174.989919 C554.209208,177.807726 547.571545,176.288382 547.768517,183 C545.55961,180.073331 546.485069,176.613392 546.163034,173.366446 C542.361151,167.429489 544.193308,161.011327 544.570058,154.713071 C546.703927,147.668555 545.30636,140.423668 545.731571,133.281333 C545.941049,129.763019 545.045293,126.011203 547.760701,123.000914 Z M568.699356,22.0104735 C568.075609,23.7459646 569.12144,24.9529199 570,26.2103621 C569.432531,27.97583 568.317917,29.2742929 566.685858,30.1246836 L568.685599,33.0620813 L568.685599,33.0620813 L565.271603,42.4623299 L561.858466,51.864235 C561.326953,55.5592535 561.286308,59.2400726 562.20395,62.8893372 C565.352385,76.7748444 569.645137,90.5814657 565.096008,104.995509 C564.495711,105.606086 563.751592,105.975272 562.908987,106.098335 C558.638121,103.296305 558.811644,98.4763728 558.267625,94.3175049 C557.020132,84.7659925 554.650208,75.4716483 552.857132,66.0479312 C554.659587,75.9828294 557.199908,85.763111 558.416136,95.8305376 C558.799138,98.9985979 558.753803,102.647863 561.481717,105.184835 C563.659359,107.948999 562.787052,111.074461 562.543181,114.133659 C560.731346,118.365102 557.224921,118.701156 553.35738,118.219952 C551.379838,117.763991 549.815,116.76845 549.044305,114.778946 C548.21577,112.649025 546.863538,110.732096 546.399245,108.430204 C546.192893,107.41573 544.837534,109.485698 545.706714,108.905097 C547.085523,111.909075 547.091776,115.119733 547.107408,118.341436 C546.472719,120.958872 545.218973,123.413803 545.179891,126.185856 C543.407138,135.382382 539.714683,144.257053 540.788653,153.914272 C540.380638,160.422364 542.663019,167.234956 538.606322,173.315486 C536.500591,173.345463 534.396424,173.377017 532.292256,173.408571 C529.059404,168.47031 531.443398,162.956181 530.711786,157.760752 C530.116178,153.546664 532.071834,149.05963 529.376749,145.071156 C529.850421,134.094963 531.404316,123.031995 530.563274,112.159932 C529.045335,92.5693919 534.691882,72.8242354 529,53.404089 L529.80196,48.9896306 C530.596103,48.2985895 531.388683,47.6075485 532.182827,46.9180852 C534.874786,44.8134077 537.569871,42.7087302 540.264956,40.6056304 C543.763564,40.7791795 547.262173,40.9543064 550.759218,41.1278555 C552.236512,43.6790275 554.475121,44.4079338 557.235864,43.8920196 L557.236176,43.8915463 C558.738483,38.9201529 560.550318,34.0907543 563.594014,29.8293346 L563.595264,29.8296501 C562.57132,28.6195394 561.547375,27.4110065 560.524993,26.1977404 C561.838144,21.9931185 565.244519,21.9520978 568.699356,22.0104735 Z" id="path-11"></path>
        <filter x="-40.4%" y="-6.5%" width="160.7%" height="118.1%" filterUnits="objectBoundingBox" id="filter-12">
            <feMorphology radius="1" operator="dilate" in="SourceAlpha" result="shadowSpreadOuter1"></feMorphology>
            <feOffset dx="-4" dy="2" in="shadowSpreadOuter1" result="shadowOffsetOuter1"></feOffset>
            <feGaussianBlur stdDeviation="2.5" in="shadowOffsetOuter1" result="shadowBlurOuter1"></feGaussianBlur>
            <feColorMatrix values="0 0 0 0 0   0 0 0 0 0   0 0 0 0 0  0 0 0 0.5 0" type="matrix" in="shadowBlurOuter1"></feColorMatrix>
        </filter>
        <path d="M572.75713,112 C577.747188,113.739547 575.434267,117.834077 575.644391,121.115352 C570.258989,128.282349 561.891381,127.812923 554.625758,127.998181 C549.862946,128.11907 551.073883,122.186084 551.312023,118.388283 C551.704255,117.549909 552.291046,116.884234 553.069283,116.389687 C556.471737,116.501157 559.66251,116.05842 561.822896,112.949843 C563.460308,112.701785 565.027678,112.902743 566.501659,113.697157 C568.948437,114.485292 570.70881,112.698645 572.75713,112" id="path-13"></path>
        <filter x="-65.9%" y="-66.2%" width="199.8%" height="256.8%" filterUnits="objectBoundingBox" id="filter-14">
            <feMorphology radius="1" operator="dilate" in="SourceAlpha" result="shadowSpreadOuter1"></feMorphology>
            <feOffset dx="-4" dy="2" in="shadowSpreadOuter1" result="shadowOffsetOuter1"></feOffset>
            <feGaussianBlur stdDeviation="2.5" in="shadowOffsetOuter1" result="shadowBlurOuter1"></feGaussianBlur>
            <feColorMatrix values="0 0 0 0 0   0 0 0 0 0   0 0 0 0 0  0 0 0 0.5 0" type="matrix" in="shadowBlurOuter1"></feColorMatrix>
        </filter>
        <path d="M565.148711,114.928911 C563.548591,115.079214 561.974373,115.146181 560.975737,113.463081 C560.387204,111.05674 558.900762,108.590872 561.408863,106.386919 L561.384401,106.418171 C561.873646,106.279773 562.361452,106.141374 562.850697,106 C564.878187,108.071507 565.522839,110.678749 565.586153,113.513679 C566.258146,114.254778 566.111372,114.726522 565.148711,114.928911" id="path-15"></path>
        <filter x="-274.9%" y="-119.4%" width="516.8%" height="380.3%" filterUnits="objectBoundingBox" id="filter-16">
            <feMorphology radius="1" operator="dilate" in="SourceAlpha" result="shadowSpreadOuter1"></feMorphology>
            <feOffset dx="-4" dy="2" in="shadowSpreadOuter1" result="shadowOffsetOuter1"></feOffset>
            <feGaussianBlur stdDeviation="2.5" in="shadowOffsetOuter1" result="shadowBlurOuter1"></feGaussianBlur>
            <feColorMatrix values="0 0 0 0 0   0 0 0 0 0   0 0 0 0 0  0 0 0 0.5 0" type="matrix" in="shadowBlurOuter1"></feColorMatrix>
        </filter>
        <path d="M549.142263,119 C550.160325,119.014009 551.178386,119.028018 552.197999,119.042028 C552.485104,128.656991 552.407508,128.367468 561.341926,125.917419 C565.90613,124.665933 571.052304,125.688603 575.18197,122.497624 C575.337162,124.496266 575.293708,126.53538 575.686345,128.484212 C576.98996,134.917536 574.196499,137.887481 567.931388,138.120967 C564.742188,139.068922 561.549883,140.013763 558.357579,140.96016 C554.519675,141.210769 551.463939,140.379558 552.270939,135.563515 C553.020518,131.089918 548.873781,128.074832 549.108121,123.822269 C548.807048,122.211214 546.752303,120.589263 549.142263,119" id="path-17"></path>
        <filter x="-58.9%" y="-47.8%" width="189.3%" height="213.4%" filterUnits="objectBoundingBox" id="filter-18">
            <feMorphology radius="1" operator="dilate" in="SourceAlpha" result="shadowSpreadOuter1"></feMorphology>
            <feOffset dx="-4" dy="2" in="shadowSpreadOuter1" result="shadowOffsetOuter1"></feOffset>
            <feGaussianBlur stdDeviation="2.5" in="shadowOffsetOuter1" result="shadowBlurOuter1"></feGaussianBlur>
            <feColorMatrix values="0 0 0 0 0   0 0 0 0 0   0 0 0 0 0  0 0 0 0.5 0" type="matrix" in="shadowBlurOuter1"></feColorMatrix>
        </filter>
    </defs>
    <g id="Final-Website" stroke="none" stroke-width="1" fill="none" fill-rule="evenodd">
        <path d="M176.14533,448.333947 C177.730341,446.793161 179.315351,445.253964 180.900361,443.713179 C191.587365,427.622296 197.933709,409.372724 206.080915,392.026974 C214.800048,373.462892 223.391561,354.838449 231.833396,336.140938 C232.800789,333.996546 233.683101,331.728255 236.049587,330.649705 C239.630829,322.702747 245.723508,318.247176 254.129105,316.059896 C261.370366,314.171243 268.316997,311.134148 275.3944,308.605354 C277.899536,305.379235 280.715056,304.268916 284.145044,307.291715 C287.015709,320.720375 285.920697,334.225281 284.874527,347.723832 C281.880968,352.895788 279.282875,348.454514 276.557161,347.36008 C275.304593,346.540445 274.156012,345.522256 272.747464,344.921826 C273.65656,345.393593 274.50421,345.968608 275.358162,346.545211 C278.077573,349.134366 282.090517,349.934939 284.334111,353.183296 C284.688611,353.915566 284.921794,354.678017 285.06832,355.475413 C286.253139,364.051393 285.550441,371.852215 276.620183,376.229952 C272.840422,380.868193 267.78761,384.032363 262.25898,388.61342 C267.831726,384.286513 272.604088,381.00321 276.438994,376.606412 C279.334868,373.785345 283.425014,372.184199 285.032083,368.044728 C286.401242,365.274491 288.731491,363.180929 290.232997,360.501233 C291.4446,358.803192 292.946106,357.356124 294.236487,355.716855 C294.646132,355.121191 295.085713,354.558884 295.522142,353.983869 C309.103444,337.354505 322.654811,320.706079 336.3401,304.170433 C339.916615,299.848292 343.371812,294.825649 349.749667,294.006014 C351.309468,293.956773 352.790492,294.196627 354.049362,295.219582 C355.193217,298.712558 352.067311,299.035011 350.272752,299.970602 C345.153767,302.639178 342.330368,307.428321 339.108354,311.807646 C336.078558,315.928056 338.382022,319.139879 341.47169,322.022895 C347.07122,327.252035 353.720071,330.705301 360.701364,333.61532 C361.832614,337.195661 359.505517,339.678391 357.803915,342.224658 C345.249876,361.028594 333.644322,380.459964 320.812985,399.079642 C316.762227,404.958453 313.656804,411.204194 311.980412,418.301338 C306.417119,441.834056 296.681752,463.111191 278.094905,479.352977 C276.519347,480.730153 275.145462,482.347183 273.976398,484.11035 C269.687732,489.48245 263.335086,491.663376 257.433049,494.149282 C250.758989,496.95923 245.058623,500.714299 240.390247,506.189647 C236.980742,509.145732 234.30387,513.162893 229.408614,514 C221.270862,509.633382 217.092484,501.394151 211.366909,494.751301 C200.761834,482.445667 190.413575,469.89859 180.219721,457.235557 C178.157316,454.670229 175.324465,452.30822 176.14533,448.333947" id="Fill-132-Copy" fill="#F6F6F6"></path>
        <path d="M41.2540621,552.874355 C41.8264453,552.406119 42.3988285,551.937883 42.9712117,551.469647 C70.5139743,528.99589 98.0662766,506.531593 125.59632,484.043647 C137.431933,474.373074 149.221437,464.648898 161.034791,454.951523 C162.629514,453.641408 163.949175,451.829949 166.380214,452.012829 C172.619191,454.469098 175.670312,460.311802 179.556158,464.989433 C191.767,479.681326 204.070059,494.295968 216.400148,508.886962 C218.764408,511.683766 221.184317,514.471111 221.993604,518.201235 C222.157369,522.45162 219.147587,524.693478 216.282491,527.01101 C198.762795,541.187371 181.371885,555.521387 164.011183,569.886933 C160.292282,572.964364 156.401667,575.415903 151.641346,576.424897 C130.758898,579.718315 113.870413,589.403077 101.877395,606.937495 C99.6848492,610.142626 96.655988,611.020766 92.9005181,610.500504 C84.2972803,609.307053 75.9563848,610.888336 67.9986681,613.894821 C62.6198557,615.928574 58.2474839,615.154487 54.0706764,611.580442 C41.8916334,601.168889 27.7410482,597.796643 11.954401,599.565535 C4.28287588,600.424756 -1.47116544,593.442205 0.333431655,586.09547 C14.7924678,576.014993 27.9954407,564.408413 41.2540621,552.874355" id="Fill-134-Copy" fill="#4A4A47"></path>
        <path d="M710.451242,107 C710.967494,107.192432 711.483747,107.384865 712,107.577297 L710.927311,109.084422 L710.927311,109.084422 L709.855176,110.591389 L709.855176,110.591389 C710.075296,111.014109 710.213069,111.462067 710.270078,111.933684 C702.341006,115.905364 697.420768,123.194137 691.220984,129.071214 C683.364757,135.509814 675.980442,142.442115 669.20898,150.013227 C662.854003,155.126883 657.05962,160.820991 651.60571,166.869995 C646.281655,171.242313 640.33208,175.010519 637.261484,181.567418 C637.215461,182.430998 636.7839,182.910569 635.968105,183.004833 L635.825,183.016 L635.124911,183.885044 C629.8626,190.309546 623.608809,195.750704 617.501355,201.339064 C605.000437,211.500128 594.841659,224.088681 582.716053,234.640919 C572.012518,242.773556 563.540272,253.220115 553.763141,262.313337 C551.300647,264.602021 549.273642,267.538982 545.511015,267.944352 C537.917665,273.510697 531.519931,280.343627 525.055686,287.104 C524.246468,288.499924 523.788808,290.089857 522.691375,291.326472 C521.034932,292.856468 519.690458,294.899091 517.037932,294.834421 C505.558434,304.965517 494.354482,315.382106 483.818808,326.494292 C478.109939,328.082648 472.974333,325.54948 467.73896,324.120432 C447.535423,318.610871 427.380978,312.926227 407.186943,307.383541 C404.947737,306.768388 402.575508,306.631162 400.265039,306.273111 C389.148185,305.878782 379.274455,300.189406 368.380888,298.85342 C364.049749,297.913341 360.090755,295.810779 355.753281,294.883318 C351.567833,292.3675 346.147179,293.627775 342.153346,290.507846 C337.41839,286.291682 340.838961,284.619728 344.478067,282.801084 C365.126595,272.471247 385.746617,262.081471 406.691277,252.360478 C421.686362,245.401363 436.060676,237.169355 451.377231,230.886909 C453.945826,230.208664 456.416238,229.301707 458.581015,227.696 C475.991086,218.751046 493.415409,209.839215 511.511177,202.326463 C515.071104,201.257043 518.421996,199.785408 521.237633,197.280632 C529.91258,192.288429 539.057855,188.201605 547.886411,183.498052 C552.825651,182.297715 557.768059,181.111574 562.895747,181.155738 C565.532437,181.261419 567.456508,180.796111 565.891914,177.463244 C567.06536,174.019965 570.3054,173.05938 573.086197,171.739167 C596.62479,160.567043 619.819742,148.680396 643.496108,137.790612 C652.932987,133.550228 662.261506,129.087491 671.523156,124.488548 C663.744286,127.597042 655.989405,130.77405 648.440732,134.438975 C621.782453,145.61583 594.771031,155.899925 567.898965,166.526298 C564.025486,168.059448 559.759274,171.1778 555.65459,166.605164 C553.907882,160.267511 553.784361,153.9409 555.762274,147.628485 C559.307949,143.505383 564.723852,144.148927 569.199099,142.391798 C590.126339,136.642484 611.142261,131.200747 632.018827,125.26531 C634.337213,124.539745 636.687272,123.904087 639.035747,123.27947 C642.999491,122.888296 646.746283,121.637485 650.481989,120.342509 C656.760953,119.3141 662.651936,116.090067 669.277708,117.033302 C683.002747,113.689394 696.727786,110.345486 710.451242,107 Z M529.485958,155.829577 C531.452786,161.99688 530.171656,168.336109 530.49471,174.588587 C530.467789,176.35518 530.265088,178.093381 529.53505,179.725902 C523.753336,187.033604 514.631814,188.352239 506.800925,191.6299 C475.947695,204.543379 444.708068,216.532552 413.70123,229.091136 C372.210976,245.894274 330.58295,262.363022 289.227302,279.497397 C286.535186,280.612559 283.789228,281.52267 280.812065,281.467464 C261.126365,277.998948 242.197625,271.492523 222.72571,267.151751 C212.989753,264.981365 203.361481,262.333053 193.661946,259.995472 C189.273798,258.938671 185.129523,257.492273 181.644025,254.531652 C179.121354,253.935427 176.421321,253.793469 174,251.359672 C197.632025,244.938421 220.950498,238.648088 244.240465,232.256807 C262.966505,227.119492 281.65929,221.859146 300.364743,216.652428 C308.509185,211.524576 318.189716,210.970939 326.980266,207.768989 C327.70397,207.469299 328.453011,207.24532 329.209971,207.056043 C331.490351,206.58758 333.775482,206.13489 335.986184,205.369893 C343.779068,203.6033 351.381919,201.14742 359.097206,199.095333 C371.034363,196.005372 382.90501,192.689856 394.750319,189.281278 C402.235984,187.058841 409.899012,185.514649 417.413182,183.399469 C425.041371,181.856855 432.249907,178.864688 439.764077,176.918281 C455.601635,173.290456 471.198487,168.755675 486.868183,164.51112 C494.832095,162.862826 502.591723,160.443224 510.416278,158.272838 C513.166987,157.49049 515.887607,156.607194 518.677906,155.955762 C522.275839,155.692351 525.840517,152.167051 529.485958,155.829577 Z M545.921008,151.361674 C546.584535,152.532042 546.67005,153.691369 545.849746,154.833345 C545.756314,161.155224 545.664465,167.477103 545.569449,173.798983 C544.492603,174.387321 543.415757,174.97566 542.33891,175.565576 C540.862998,174.959887 539.388668,174.354198 537.912756,173.748509 C537.984017,166.831982 538.056863,159.917032 538.129708,153.000505 C540.356246,150.710243 542.802905,149.453123 545.921008,151.361674 Z" id="Combined-Shape-Copy-8" fill="#E2392C"></path>
        <path d="M219.638496,517.860425 C201.758997,495.885764 183.881063,473.909522 166,451.9317 C168.542368,448.926538 169.978611,443.614572 175.679774,447.198016 C189.987441,466.813735 206.427568,484.663013 221.530018,503.619871 C223.792335,506.460714 226.250218,509.141977 228.615794,511.897499 C234.412394,513.575461 237.280185,518.761026 239.343806,523.376211 C241.786044,528.836696 236.957891,531.426318 232.319047,533 C225.943569,529.794177 222.257526,524.283131 219.638496,517.860425" id="Fill-146-Copy" fill="#FCFCFC"></path>
        <g id="Fill-198-Copy">
            <use fill="black" fill-opacity="1" filter="url(#filter-2)" xlink:href="#path-1"></use>
            <use fill="#E2392C" fill-rule="evenodd" xlink:href="#path-1"></use>
        </g>
        <g id="Fill-200-Copy">
            <use fill="black" fill-opacity="1" filter="url(#filter-4)" xlink:href="#path-3"></use>
            <use fill="#4B1B1A" fill-rule="evenodd" xlink:href="#path-3"></use>
        </g>
        <path d="M550.734144,17 C555.864609,18.7475153 553.670618,22.2573276 552.650898,25.4830044 C553.25317,34.4899349 548.527407,39.0065394 539.740292,37.810871 C533.539121,33.7245758 534.60664,27.9827397 536.35291,22.0881602 C539.569807,15.6598003 545.5511,17.5272109 550.734144,17" id="Fill-306-Copy" fill="#4A4A47"></path>
        <path d="M546.714373,174.344333 C548.590994,177.066025 548.113136,180.294963 548.655869,183.308322 C548.605235,184.100894 548.322001,184.798357 547.782433,185.388031 C540.48956,192.164521 530.532074,194.166557 522.468615,199.563972 C519.210635,200.963654 515.786514,202.028871 512.977911,204.325744 C495.051905,212.790413 477.124316,221.255081 459.19831,229.718164 C457.405551,231.412683 454.886511,231.645699 452.864317,232.875771 C435.51269,241.380067 418.162645,249.885949 400.809436,258.388661 L371.911484,272.540429 C362.279757,277.259402 352.650996,281.98432 343.031334,286.727863 C340.10564,288.170344 343.888947,288.828179 343.588308,290.018622 C339.192647,292.586555 336.023277,296.237141 333.129229,300.453624 C321.209677,317.818875 310.804397,336.211299 297.755075,352.80617 C296.929108,353.855536 297.199684,355.389955 296.131623,356.312508 L296.101559,356.459927 C294.193292,357.897652 292.145781,359.222833 291.6521,361.836735 C289.984343,364.223962 288.316587,366.611188 286.648831,369 C282.558556,368.72577 284.805438,365.571334 284.454165,363.772196 C283.867127,360.774688 284.974745,357.590134 283.732631,354.595798 C283.876621,354.159883 283.829152,353.746161 283.588641,353.35463 C282.65033,352.292584 282.575961,351.187738 283.425663,350.036924 C283.340218,335.816598 283.257938,321.597858 283.172493,307.375947 C283.30066,298.367574 284.205742,289.330669 282,280.428501 C293.618913,278.023838 303.747288,271.737158 314.794987,267.798075 C331.570652,261.815742 348.056755,254.931462 364.44159,248.031331 C393.181113,235.925587 422.178552,224.469753 450.95605,212.470214 C468.375716,205.207084 486.029565,198.509851 503.515688,191.406822 C511.988966,187.963889 520.318253,184.17064 528.710833,180.535905 C534.169808,180.86403 539.385106,180.543831 542.720619,175.230429 C543.878871,174.157286 545.07668,173.245829 546.714373,174.344333 Z M693.23293,114.27277 C693.823132,114 695.505129,113.491294 694.851634,115.388711 C694.617452,116.065568 693.856361,116.558548 693.334198,117.133955 C679.394034,121.727702 667.145361,129.943502 653.768501,135.765736 C650.650397,137.122344 647.638265,138.583529 644.324116,139.354033 C644.324063,139.354345 644.323399,139.35482 644.322734,139.355294 C628.510696,147.206512 612.573655,154.812032 596.938836,162.9993 C586.906982,168.252467 575.927323,171.70491 566.832197,178.747704 C563.934984,181.574016 561.091571,179.925466 558.232334,178.652596 C557.037689,177.87112 556.240204,176.793222 555.801904,175.437924 C555.237019,172.640145 554.993343,169.910527 557.53137,167.821308 C573.710504,164.069272 588.359544,156.208544 603.809232,150.4941 C618.975687,144.884276 633.979164,138.829026 649.055428,132.96875 C662.917425,124.696676 678.705729,120.979514 693.23293,114.27277 Z" id="Combined-Shape-Copy-9" fill="#4B1B1A"></path>
        <g id="Fill-340-Copy">
            <use fill="black" fill-opacity="1" filter="url(#filter-6)" xlink:href="#path-5"></use>
            <use fill="#F1F0F0" fill-rule="evenodd" xlink:href="#path-5"></use>
        </g>
        <path d="M359.716299,332.436314 C362.577535,327.799429 365.925857,323.392015 368.204162,318.481349 C373.921921,306.15325 367.341549,295.681487 353.586874,294.61801 C351.95278,294.576864 350.318685,294.5373 348.684591,294.496154 C349.699615,290.289724 352.658268,292.680964 354.900434,292.6414 C359.397336,292.536951 363.196606,294.833238 367.245703,296.27178 C376.354208,301.839206 378.626227,311.518109 372.779626,319.842346 C372.213978,321.342607 371.64833,322.844451 371.081111,324.346296 C366.753903,335.036451 359.293634,343.79589 353.399896,353.520687 C352.131901,355.30106 350.98175,357.165309 349.795461,359.004238 C341.94238,371.824511 333.297393,384.111464 325.065643,396.680111 C322.012714,400.308908 321.296227,405.562989 317.072721,408.376771 C312.685807,422.760608 309.075087,437.392906 301.36499,450.575585 C295.7855,460.119971 288.617482,468.265378 281.1525,476.236705 C279.105168,478.089876 277.145826,480.063322 274.570556,481.209091 C274.110181,481.286636 273.671804,481.433814 273.258567,481.652206 C272.821761,482.141216 272.402239,482.103234 272,481.609477 C272.562506,479.102711 274.553272,477.654674 276.28007,476.130674 C292.26277,462.022201 302.639269,444.292844 307.208448,423.670577 C310.614906,408.302391 319.006924,396.026516 327.232389,383.35342 C338.19182,366.469147 348.899851,349.41554 359.716299,332.436314" id="Fill-342-Copy" fill-opacity="0.5" fill="#000000"></path>
        <path d="M233.493417,533.238315 C241.166737,544.030254 241.187419,544.052265 231.229446,553.36157 C227.646549,556.71204 223.934781,559.927295 220.283472,563.202296 C210.575283,569.609224 202.014195,577.402878 193.290825,585 C187.092349,581.737577 179.988603,580.328839 174.319924,575.989423 C170.043357,572.717566 165.730198,576.421792 161.409083,575.88251 C158.313027,575.495736 155.139013,575.711134 152,575.656106 C163.408951,571.050979 171.187275,561.608033 180.661589,554.44328 C192.516016,545.47987 203.810416,535.79637 215.318008,526.388013 C217.733123,524.414836 220.418705,522.565868 220.593714,519 L233.493417,533.238315 Z" id="Fill-362-Copy" fill="#30302F"></path>
        <path d="M531.012335,173.449314 C530.327585,174.653115 529.16036,174.957233 527.852207,175 C527.56869,168.252376 527.285174,161.504752 527,154.76188 C527.306728,151.511616 527.613456,148.2566 527.920184,145 C531.333985,145.321542 531.44507,148.058606 531.524654,150.206441 C531.811486,157.955121 532.662034,165.733897 531.012335,173.449314" id="Fill-374-Copy" fill="#30302F"></path>
        <g id="Fill-396-Copy">
            <use fill="black" fill-opacity="1" filter="url(#filter-8)" xlink:href="#path-7"></use>
            <use fill="#F6F6F6" fill-rule="evenodd" xlink:href="#path-7"></use>
        </g>
        <g id="Fill-398-Copy">
            <use fill="black" fill-opacity="1" filter="url(#filter-10)" xlink:href="#path-9"></use>
            <use fill="#F6F6F6" fill-rule="evenodd" xlink:href="#path-9"></use>
        </g>
        <g id="Combined-Shape-Copy-10">
            <use fill="black" fill-opacity="1" filter="url(#filter-12)" xlink:href="#path-11"></use>
            <use fill="#4A4A47" fill-rule="evenodd" xlink:href="#path-11"></use>
        </g>
        <path d="M215,552.332809 C214.237905,557.683132 211.4262,561.14651 206.271408,560.995236 C201.299645,560.851924 197.874161,557.823259 198.003544,552.38058 C198.131349,547.063697 201.291755,544.003185 206.476527,544 C211.792258,543.998408 214.250528,547.579621 215,552.332809" id="Fill-490-Copy" fill="#F1F1F1"></path>
        <path d="M196,567.829704 C195.33939,573.180677 192.638192,576.079375 187.262793,575.998346 C181.811169,575.915788 178.913059,572.619589 179.001987,567.826646 C179.092503,562.987838 182.246283,559.910265 187.634386,560.001996 C193.066953,560.090669 195.44261,563.293608 196,567.829704" id="Fill-492-Copy" fill="#F4F4F4"></path>
        <g id="Fill-502-Copy">
            <use fill="black" fill-opacity="1" filter="url(#filter-14)" xlink:href="#path-13"></use>
            <use fill="#947C64" fill-rule="evenodd" xlink:href="#path-13"></use>
        </g>
        <g id="Fill-510-Copy">
            <use fill="black" fill-opacity="1" filter="url(#filter-16)" xlink:href="#path-15"></use>
            <use fill="#D9CEC1" fill-rule="evenodd" xlink:href="#path-15"></use>
        </g>
        <g id="Fill-516-Copy">
            <use fill="black" fill-opacity="1" filter="url(#filter-18)" xlink:href="#path-17"></use>
            <use fill="#735A42" fill-rule="evenodd" xlink:href="#path-17"></use>
        </g>
    </g>
</svg>