<?xml version="1.0" encoding="UTF-8"?>
<svg width="2422px" height="416px" viewBox="0 0 2422 416" version="1.1" xmlns="http://www.w3.org/2000/svg" xmlns:xlink="http://www.w3.org/1999/xlink">
    <!-- Generator: Sketch 63.1 (92452) - https://sketch.com -->
    <title>Final Website</title>
    <desc>Created with Sketch.</desc>
    <g id="Final-Website" stroke="none" stroke-width="1" fill="none" fill-rule="evenodd">
        <path d="M85.6016355,389.623155 C95.3442028,383.854599 103.271566,386.910487 109.383726,398.792197 L114.2318,398.527546 C126.570998,383.934546 136.984797,386.275049 145.473334,405.547679 L151.654228,405.848168 C156.704925,399.059604 161.550381,399.703311 166.190873,407.77929 C172.119143,405.039054 175.722139,407.77929 177,416 L0.0155596643,416 C-0.108548596,411.416858 0.509788786,408.243807 1.87043407,406.47947 C3.23121709,404.715132 6.30127804,403.105174 11.0807546,401.650975 L22.0160561,401.65511 C22.0708786,387.089677 27.6328846,383.62303 38.7020742,391.253789 C39.663259,390.818218 42.4846902,391.328222 47.1665055,392.785179 C57.6077156,375.527753 70.4195174,374.473286 85.6016355,389.623155 Z" id="Path-Copy-5" fill="#B1A6A6" opacity="0.226306734"></path>
        <path d="M1883.67235,54.2964166 C1962.82476,50.928475 1992.44419,86.3432374 1972.53063,160.540704 C2012.07262,176.501322 2034.11896,190.60101 2038.68106,202.851184 C2069.09885,173.658551 2089.66251,174.332139 2100.38344,204.883366 C2209.16669,148.176362 2270.53832,162.355967 2284.49834,247.422181 C2305.87178,255.756409 2316.5699,263.736718 2316.5699,271.363108 C2377.02911,249.865366 2412.02041,257.731507 2421.52098,294.927283 L2422,304.060684 L793,313 C807.393422,260.243192 833.842189,233.85908 872.357707,233.85908 C930.125283,233.85908 921.673995,191.308848 969.108416,204.015693 C1016.54284,216.71112 974.183751,118.24164 1060.41882,183.168705 C1105.94857,110.763668 1164.4917,115.102034 1236.05962,196.206635 C1286.74454,163.68031 1320.19613,167.402171 1336.4258,207.395051 C1365.94257,183.933627 1389.58565,177.414662 1407.34362,187.838156 C1404.59496,146.304015 1425.44375,131.564989 1469.88999,143.609662 C1487.05489,65.4391658 1530.23516,51.0997263 1599.41938,100.557093 C1633.89744,15.5022959 1689.90861,-6.9658706 1767.43007,33.1411766 C1833.77439,-17.22953 1872.52942,-10.1853944 1883.67235,54.2964166 Z" id="Path-Copy-6" fill="#B3A9A9" opacity="0.070265997" transform="translate(1607.500000, 156.500000) scale(-1, 1) translate(-1607.500000, -156.500000) "></path>
        <path d="M1832.07373,146.112466 C1867.20399,144.616799 1880.35,160.344121 1871.51175,193.294434 C1889.0617,200.382376 1898.84654,206.643899 1900.87134,212.084072 C1914.37168,199.119932 1923.49846,199.419065 1928.25674,212.986543 C1976.53807,187.80356 2003.77668,194.100573 2009.97256,231.877582 C2019.45874,235.578725 2024.2069,239.122696 2024.2069,242.509495 C2051.04054,232.962574 2066.57075,236.455845 2070.7874,252.974097 L2071,257.030144 L1348,261 C1354.38824,237.571258 1366.12701,225.854352 1383.22138,225.854352 C1408.86039,225.854352 1405.10945,206.958243 1426.1623,212.601218 C1447.21515,218.239124 1428.41489,174.509866 1466.68865,203.343291 C1486.89614,171.188977 1512.87937,173.1156 1544.64341,209.133298 C1567.13892,194.6887 1581.98576,196.341539 1589.18898,214.101956 C1602.28943,203.682985 1612.78295,200.787981 1620.66448,205.416945 C1619.44454,186.972071 1628.69787,180.426625 1648.42447,185.775537 C1656.04278,151.060844 1675.2075,144.69285 1705.91357,166.656345 C1721.21599,128.884406 1746.07546,118.90653 1780.48186,136.717647 C1809.92749,114.348547 1827.12816,117.476774 1832.07373,146.112466 Z" id="Path-Copy-7" fill="#D6D6D6" transform="translate(1709.500000, 191.500000) scale(-1, 1) translate(-1709.500000, -191.500000) "></path>
    </g>
</svg>