
<svg width="152px" height="140px" viewBox="0 0 152 140" version="1.1" xmlns="http://www.w3.org/2000/svg" xmlns:xlink="http://www.w3.org/1999/xlink">
    <g id="Final-Website" stroke="none" stroke-width="1" fill="none" fill-rule="evenodd">
        <g id="What-we-do" transform="translate(-1531.000000, -4740.000000)" fill="#FF5F4B">
            <g id="Market-Strategy" transform="translate(1172.000000, 4320.000000)">
                <g id="Path" transform="translate(243.750000, 420.750000)">
                    <path d="M123.25,139 C118.831722,139 115.25,135.418278 115.25,131 C115.25,126.581722 118.831722,123 123.25,123 C127.668278,123 131.25,126.581722 131.25,131 C131.25,135.418278 127.668278,139 123.25,139 Z M152.75,110.25 C148.331722,110.25 144.75,106.668278 144.75,102.25 C144.75,97.831722 148.331722,94.25 152.75,94.25 C157.168278,94.25 160.75,97.831722 160.75,102.25 C160.75,106.668278 157.168278,110.25 152.75,110.25 Z M179.25,87.25 C174.831722,87.25 171.25,83.668278 171.25,79.25 C171.25,74.831722 174.831722,71.25 179.25,71.25 C183.668278,71.25 187.25,74.831722 187.25,79.25 C187.25,83.668278 183.668278,87.25 179.25,87.25 Z" id="4"></path>
                    <path d="M207,62.5 C202.581722,62.5 199,58.918278 199,54.5 C199,50.081722 202.581722,46.5 207,46.5 C211.418278,46.5 215,50.081722 215,54.5 C215,58.918278 211.418278,62.5 207,62.5 Z M234.75,39.25 C230.331722,39.25 226.75,35.668278 226.75,31.25 C226.75,26.831722 230.331722,23.25 234.75,23.25 C239.168278,23.25 242.75,26.831722 242.75,31.25 C242.75,35.668278 239.168278,39.25 234.75,39.25 Z M258.75,16 C254.331722,16 250.75,12.418278 250.75,8 C250.75,3.581722 254.331722,0 258.75,0 C263.168278,0 266.75,3.581722 266.75,8 C266.75,12.418278 263.168278,16 258.75,16 Z" id="5"></path>
                </g>
            </g>
        </g>
    </g>
</svg>