

<svg width="108px" height="232px" viewBox="0 0 108 232" version="1.1" xmlns="http://www.w3.org/2000/svg" xmlns:xlink="http://www.w3.org/1999/xlink">
    <g id="Final-Website" stroke="none" stroke-width="1" fill="none" fill-rule="evenodd">
        <g id="What-we-do" transform="translate(-1415.000000, -4891.000000)" fill="#FF5F4B">
            <g id="Market-Strategy" transform="translate(1172.000000, 4320.000000)">
                <g id="Path" transform="translate(243.750000, 420.750000)">
                    <path d="M8,381.75 C3.581722,381.75 0,378.168278 0,373.75 C0,369.331722 3.581722,365.75 8,365.75 C12.418278,365.75 16,369.331722 16,373.75 C16,378.168278 12.418278,381.75 8,381.75 Z M8,355.5 C3.581722,355.5 0,351.918278 0,347.5 C0,343.081722 3.581722,339.5 8,339.5 C12.418278,339.5 16,343.081722 16,347.5 C16,351.918278 12.418278,355.5 8,355.5 Z M11.25,329.25 C6.831722,329.25 3.25,325.668278 3.25,321.25 C3.25,316.831722 6.831722,313.25 11.25,313.25 C15.668278,313.25 19.25,316.831722 19.25,321.25 C19.25,325.668278 15.668278,329.25 11.25,329.25 Z" id="1"></path>
                    <path d="M16.75,303.25 C12.6078644,303.25 9.25,299.892136 9.25,295.75 C9.25,291.607864 12.6078644,288.25 16.75,288.25 C20.8921356,288.25 24.25,291.607864 24.25,295.75 C24.25,299.892136 20.8921356,303.25 16.75,303.25 Z M28.75,274.25 C24.6078644,274.25 21.25,270.892136 21.25,266.75 C21.25,262.607864 24.6078644,259.25 28.75,259.25 C32.8921356,259.25 36.25,262.607864 36.25,266.75 C36.25,270.892136 32.8921356,274.25 28.75,274.25 Z M43.75,248.25 C39.6078644,248.25 36.25,244.892136 36.25,240.75 C36.25,236.607864 39.6078644,233.25 43.75,233.25 C47.8921356,233.25 51.25,236.607864 51.25,240.75 C51.25,244.892136 47.8921356,248.25 43.75,248.25 Z" id="2"></path>
                    <path d="M59.25,224.25 C54.831722,224.25 51.25,220.668278 51.25,216.25 C51.25,211.831722 54.831722,208.25 59.25,208.25 C63.668278,208.25 67.25,211.831722 67.25,216.25 C67.25,220.668278 63.668278,224.25 59.25,224.25 Z M78.25,196.25 C73.831722,196.25 70.25,192.668278 70.25,188.25 C70.25,183.831722 73.831722,180.25 78.25,180.25 C82.668278,180.25 86.25,183.831722 86.25,188.25 C86.25,192.668278 82.668278,196.25 78.25,196.25 Z M98.5,166.25 C94.081722,166.25 90.5,162.668278 90.5,158.25 C90.5,153.831722 94.081722,150.25 98.5,150.25 C102.918278,150.25 106.5,153.831722 106.5,158.25 C106.5,162.668278 102.918278,166.25 98.5,166.25 Z" id="3"></path>
                </g>
            </g>
        </g>
    </g>
</svg>