
<svg width="72px" height="68px" viewBox="0 0 72 68" version="1.1" xmlns="http://www.w3.org/2000/svg" xmlns:xlink="http://www.w3.org/1999/xlink">
    <g id="Final-Website" stroke="none" stroke-width="1" fill="none" fill-rule="evenodd">
        <g id="What-we-do" transform="translate(-1531.000000, -4812.000000)" fill="#FF5F4B">
            <g id="Market-Strategy" transform="translate(1172.000000, 4320.000000)">
                <g id="Path" transform="translate(243.750000, 420.750000)">
                    <path d="M123.25,139 C118.831722,139 115.25,135.418278 115.25,131 C115.25,126.581722 118.831722,123 123.25,123 C127.668278,123 131.25,126.581722 131.25,131 C131.25,135.418278 127.668278,139 123.25,139 Z M152.75,110.25 C148.331722,110.25 144.75,106.668278 144.75,102.25 C144.75,97.831722 148.331722,94.25 152.75,94.25 C157.168278,94.25 160.75,97.831722 160.75,102.25 C160.75,106.668278 157.168278,110.25 152.75,110.25 Z M179.25,87.25 C174.831722,87.25 171.25,83.668278 171.25,79.25 C171.25,74.831722 174.831722,71.25 179.25,71.25 C183.668278,71.25 187.25,74.831722 187.25,79.25 C187.25,83.668278 183.668278,87.25 179.25,87.25 Z" id="4"></path>
                </g>
            </g>
        </g>
    </g>
</svg>