

<svg width="42px" height="70px" viewBox="0 0 42 70" version="1.1" xmlns="http://www.w3.org/2000/svg" xmlns:xlink="http://www.w3.org/1999/xlink">
    <g id="Final-Website" stroke="none" stroke-width="1" fill="none" fill-rule="evenodd">
        <g id="What-we-do" transform="translate(-1425.000000, -4974.000000)" fill="#FF5F4B">
            <g id="Market-Strategy" transform="translate(1172.000000, 4320.000000)">
                <g id="Path" transform="translate(243.750000, 420.750000)">
                    <path d="M16.75,303.25 C12.6078644,303.25 9.25,299.892136 9.25,295.75 C9.25,291.607864 12.6078644,288.25 16.75,288.25 C20.8921356,288.25 24.25,291.607864 24.25,295.75 C24.25,299.892136 20.8921356,303.25 16.75,303.25 Z M28.75,274.25 C24.6078644,274.25 21.25,270.892136 21.25,266.75 C21.25,262.607864 24.6078644,259.25 28.75,259.25 C32.8921356,259.25 36.25,262.607864 36.25,266.75 C36.25,270.892136 32.8921356,274.25 28.75,274.25 Z M43.75,248.25 C39.6078644,248.25 36.25,244.892136 36.25,240.75 C36.25,236.607864 39.6078644,233.25 43.75,233.25 C47.8921356,233.25 51.25,236.607864 51.25,240.75 C51.25,244.892136 47.8921356,248.25 43.75,248.25 Z" id="2"></path>
                </g>
            </g>
        </g>
    </g>
</svg>