



<svg width="56px" height="74px" viewBox="0 0 56 74" version="1.1" xmlns="http://www.w3.org/2000/svg" xmlns:xlink="http://www.w3.org/1999/xlink">
    <g id="Final-Website" stroke="none" stroke-width="1" fill="none" fill-rule="evenodd">
        <g id="What-we-do" transform="translate(-1467.000000, -4891.000000)" fill="#FF5F4B">
            <g id="Market-Strategy" transform="translate(1172.000000, 4320.000000)">
                <g id="Path" transform="translate(243.750000, 420.750000)">
                    <path d="M59.25,224.25 C54.831722,224.25 51.25,220.668278 51.25,216.25 C51.25,211.831722 54.831722,208.25 59.25,208.25 C63.668278,208.25 67.25,211.831722 67.25,216.25 C67.25,220.668278 63.668278,224.25 59.25,224.25 Z M78.25,196.25 C73.831722,196.25 70.25,192.668278 70.25,188.25 C70.25,183.831722 73.831722,180.25 78.25,180.25 C82.668278,180.25 86.25,183.831722 86.25,188.25 C86.25,192.668278 82.668278,196.25 78.25,196.25 Z M98.5,166.25 C94.081722,166.25 90.5,162.668278 90.5,158.25 C90.5,153.831722 94.081722,150.25 98.5,150.25 C102.918278,150.25 106.5,153.831722 106.5,158.25 C106.5,162.668278 102.918278,166.25 98.5,166.25 Z" id="3"></path>
                </g>
            </g>
        </g>
    </g>
</svg>