


<svg width="20px" height="69px" viewBox="0 0 20 69" version="1.1" xmlns="http://www.w3.org/2000/svg" xmlns:xlink="http://www.w3.org/1999/xlink">
    <g id="Final-Website" stroke="none" stroke-width="1" fill="none" fill-rule="evenodd">
        <g id="What-we-do" transform="translate(-1415.000000, -5054.000000)" fill="#FF5F4B">
            <g id="Market-Strategy" transform="translate(1172.000000, 4320.000000)">
                <g id="Path" transform="translate(243.750000, 420.750000)">
                    <path d="M8,381.75 C3.581722,381.75 0,378.168278 0,373.75 C0,369.331722 3.581722,365.75 8,365.75 C12.418278,365.75 16,369.331722 16,373.75 C16,378.168278 12.418278,381.75 8,381.75 Z M8,355.5 C3.581722,355.5 0,351.918278 0,347.5 C0,343.081722 3.581722,339.5 8,339.5 C12.418278,339.5 16,343.081722 16,347.5 C16,351.918278 12.418278,355.5 8,355.5 Z M11.25,329.25 C6.831722,329.25 3.25,325.668278 3.25,321.25 C3.25,316.831722 6.831722,313.25 11.25,313.25 C15.668278,313.25 19.25,316.831722 19.25,321.25 C19.25,325.668278 15.668278,329.25 11.25,329.25 Z" id="1"></path>
                </g>
            </g>
        </g>
    </g>
</svg>